<svg width="28" height="28" viewBox="0 0 28 28" fill="none" xmlns="http://www.w3.org/2000/svg">
<path fill-rule="evenodd" clip-rule="evenodd" d="M12.8005 4.00003L13.0001 4.00007H15.0001L15.1997 4.00003C16.8687 3.99959 17.948 3.9993 18.8542 4.29373C20.6808 4.88724 22.1129 6.31934 22.7064 8.14597C22.8791 8.67728 22.9504 9.26816 22.9798 10.0025C23.1988 10.0073 23.3992 10.0207 23.5854 10.0577C24.7754 10.2944 25.7057 11.2247 25.9424 12.4148C26.0007 12.7076 26.0004 13.0355 26.0001 13.4162V13.4162L26.0001 13.5001V16.0001V16.2001V16.2414C26.0001 17.0463 26.0001 17.7107 25.9559 18.2519C25.91 18.814 25.8114 19.3307 25.5641 19.816C25.1806 20.5687 24.5687 21.1806 23.816 21.5641C23.5539 21.6976 23.2827 21.7878 23.0001 21.8497V22.2001L23.0001 22.2232C23.0002 22.3423 23.0002 22.4846 22.99 22.6099C22.9781 22.7551 22.9477 22.9631 22.8366 23.1811C22.6928 23.4633 22.4633 23.6928 22.1811 23.8366C21.9631 23.9476 21.7551 23.9781 21.6099 23.9899C21.4846 24.0002 21.3424 24.0001 21.2233 24.0001H21.2232L21.2001 24.0001H20.8001L20.777 24.0001H20.7768C20.6578 24.0001 20.5155 24.0002 20.3903 23.9899C20.2451 23.9781 20.0371 23.9476 19.8191 23.8366C19.5369 23.6928 19.3074 23.4633 19.1636 23.1811C19.0525 22.9631 19.0221 22.7551 19.0102 22.6099C19 22.4846 19 22.3423 19.0001 22.2232L19.0001 22.2001V22.0001H9.0001V22.2001L9.00011 22.2232C9.00015 22.3423 9.00021 22.4846 8.98997 22.6099C8.9781 22.7551 8.94766 22.9631 8.83661 23.1811C8.6928 23.4633 8.46333 23.6928 8.18109 23.8366C7.96314 23.9476 7.75515 23.9781 7.60993 23.9899C7.48465 24.0002 7.34244 24.0001 7.22334 24.0001H7.22324L7.2001 24.0001H6.8001L6.77695 24.0001H6.77685C6.65776 24.0001 6.51555 24.0002 6.39027 23.9899C6.24505 23.9781 6.03706 23.9476 5.81911 23.8366C5.53687 23.6928 5.3074 23.4633 5.16359 23.1811C5.05254 22.9631 5.0221 22.7551 5.01023 22.6099C4.99999 22.4846 5.00005 22.3423 5.00009 22.2232L5.0001 22.2001V21.8497C4.71749 21.7878 4.44623 21.6976 4.18413 21.5641C3.43148 21.1806 2.81955 20.5687 2.43606 19.816L3.315 19.3682L2.43606 19.816C2.18877 19.3307 2.09021 18.814 2.04428 18.2519C2.00006 17.7107 2.00007 17.0463 2.00009 16.2414L2.00009 16.2001V16.0001V13.5001L2.00004 13.4162C1.99974 13.0355 1.99948 12.7076 2.05773 12.4148C2.29445 11.2247 3.22474 10.2944 4.41482 10.0577C4.60102 10.0207 4.80136 10.0073 5.02044 10.0025C5.04981 9.26816 5.12112 8.67728 5.29376 8.14597C5.88726 6.31934 7.31937 4.88724 9.14599 4.29373C10.0521 3.9993 11.1315 3.99959 12.8005 4.00003ZM7.01644 10.1774C7.99608 10.5298 8.73516 11.3727 8.94244 12.4148C9.0007 12.7076 9.00043 13.0355 9.00013 13.4162L9.00009 13.5001V15.0001H19.0001V13.5001L19 13.4162C18.9997 13.0355 18.9995 12.7076 19.0577 12.4148C19.265 11.3727 20.0041 10.5298 20.9837 10.1774C20.9624 9.49858 20.9139 9.10133 20.8043 8.764C20.4086 7.54625 19.4539 6.59151 18.2362 6.19584C17.6716 6.01241 16.9392 6.00007 15.0001 6.00007H13.0001C11.061 6.00007 10.3286 6.01241 9.76403 6.19584C8.54628 6.59151 7.59154 7.54625 7.19587 8.764C7.08626 9.10133 7.03774 9.49858 7.01644 10.1774ZM23.0001 12.5745V12.0039L23.0001 12.1996L23.0001 12.5745ZM5.00009 12.0039V12.5749L5.00006 12.1996L5.00009 12.0039ZM5.00009 12.0039C4.89051 12.0069 4.8426 12.0118 4.805 12.0193C4.40831 12.0982 4.09821 12.4083 4.0193 12.805C4.00493 12.8772 4.00009 12.9875 4.00009 13.5001V16.0001V16.2001C4.00009 17.0566 4.00086 17.6389 4.03764 18.089C4.07346 18.5274 4.13838 18.7516 4.21807 18.908C4.40982 19.2844 4.71578 19.5903 5.09211 19.7821C5.24851 19.8618 5.47271 19.9267 5.91112 19.9625C6.36121 19.9993 6.94351 20.0001 7.80009 20.0001H20.2001C21.0567 20.0001 21.639 19.9993 22.0891 19.9625C22.5275 19.9267 22.7517 19.8618 22.9081 19.7821C23.2844 19.5903 23.5904 19.2844 23.7821 18.908C23.8618 18.7516 23.9267 18.5274 23.9625 18.089C23.9993 17.6389 24.0001 17.0566 24.0001 16.2001V16.0001V13.5001C24.0001 12.9875 23.9952 12.8772 23.9809 12.805C23.902 12.4083 23.5919 12.0982 23.1952 12.0193C23.1576 12.0118 23.1097 12.0069 23.0001 12.0039C22.8992 12.0012 22.7459 12.0001 22.5001 12.0001C21.9875 12.0001 21.8772 12.0049 21.805 12.0193C21.4083 12.0982 21.0982 12.4083 21.0193 12.805C21.0049 12.8772 21.0001 12.9875 21.0001 13.5001V16.0001C21.0001 16.5523 20.5524 17.0001 20.0001 17.0001H8.00009C7.4478 17.0001 7.00009 16.5523 7.00009 16.0001V13.5001C7.00009 12.9875 6.99524 12.8772 6.98087 12.805C6.90197 12.4083 6.59187 12.0982 6.19518 12.0193C6.12293 12.0049 6.01267 12.0001 5.50009 12.0001C5.25432 12.0001 5.10104 12.0012 5.00009 12.0039Z" fill="#141414"/>
</svg>
