<svg width="28" height="28" viewBox="0 0 28 28" fill="none" xmlns="http://www.w3.org/2000/svg">
<path fill-rule="evenodd" clip-rule="evenodd" d="M9.69166 4C7.24388 4 6.16477 4.21562 5.06946 4.8014C4.09426 5.32294 3.32294 6.09426 2.8014 7.06946C2.21562 8.16477 2 9.24388 2 11.6917V16.3083C2 18.7561 2.21562 19.8352 2.8014 20.9305C3.32294 21.9057 4.09426 22.6771 5.06946 23.1986C6.16477 23.7844 7.24388 24 9.69166 24H18.3083C20.7561 24 21.8352 23.7844 22.9305 23.1986C23.9057 22.6771 24.6771 21.9057 25.1986 20.9305C25.7844 19.8352 26 18.7561 26 16.3083V11.6917C26 9.24388 25.7844 8.16477 25.1986 7.06946C24.6771 6.09426 23.9057 5.32294 22.9305 4.8014C21.8352 4.21562 20.7561 4 18.3083 4H9.69166ZM15 12.4142V18C15 18.5522 14.5522 19 14 19C13.4478 19 13 18.5522 13 18V12.4142L11.707 13.7072C11.3167 14.0977 10.6833 14.0977 10.293 13.7072C9.90234 13.3165 9.90234 12.6835 10.293 12.2928L13.293 9.29285C13.3987 9.18701 13.5225 9.10986 13.6543 9.0614C13.762 9.02173 13.8784 9 14 9C14.2761 9 14.5261 9.11194 14.707 9.29285L17.707 12.2928C18.0977 12.6835 18.0977 13.3165 17.707 13.7072C17.3167 14.0977 16.6833 14.0977 16.293 13.7072L15 12.4142Z" fill="#141414"/>
</svg>
