<svg width="28" height="28" viewBox="0 0 28 28" fill="none" xmlns="http://www.w3.org/2000/svg">
<path d="M2 7C2 6.44772 2.44772 6 3 6H11C11.5523 6 12 6.44772 12 7C12 7.55229 11.5523 8 11 8L8 8V15C8 15.5523 7.55228 16 7 16C6.44772 16 6 15.5523 6 15V8L3 8C2.44772 8 2 7.55228 2 7Z" fill="#141414"/>
<path d="M16 8C15.4477 8 15 8.44772 15 9C15 9.55228 15.4477 10 16 10L24 10C24.5523 10 25 9.55228 25 9C25 8.44771 24.5523 8 24 8L16 8Z" fill="#141414"/>
<path d="M11 15C11 14.4477 11.4477 14 12 14L24 14C24.5523 14 25 14.4477 25 15C25 15.5523 24.5523 16 24 16L12 16C11.4477 16 11 15.5523 11 15Z" fill="#141414"/>
<path d="M6 21C6 20.4477 6.44772 20 7 20L24 20C24.5523 20 25 20.4477 25 21C25 21.5523 24.5523 22 24 22L7 22C6.44772 22 6 21.5523 6 21Z" fill="#141414"/>
</svg>
