<svg width="28" height="28" viewBox="0 0 28 28" fill="none" xmlns="http://www.w3.org/2000/svg">
<path fill-rule="evenodd" clip-rule="evenodd" d="M14 5.99857C11.6105 4.54559 9.15312 3.96006 5.87653 4.00645C5.82492 4.00718 5.77367 4.00781 5.72275 4.00844C4.94643 4.01805 4.24962 4.02668 3.61161 4.35976C3.07583 4.63948 2.59333 5.12886 2.32122 5.66855C2.13593 6.03605 2.06336 6.40875 2.0305 6.78832C1.99996 7.14107 1.99998 7.56231 2 8.04139C2 8.05428 2 8.06721 2 8.08019V18.501C1.99999 19.0735 1.99998 19.5586 2.02964 19.9518C2.06028 20.3581 2.12769 20.7678 2.32162 21.1522C2.61848 21.7406 3.02901 22.1565 3.61342 22.4611C4.0061 22.6658 4.44414 22.7353 4.87178 22.7702C5.29767 22.805 5.83441 22.8121 6.48147 22.8206L6.51735 22.8211C9.37687 22.8588 11.4038 23.4706 13.4453 24.8316C13.7812 25.0555 14.2188 25.0555 14.5547 24.8316C16.5962 23.4706 18.6231 22.8588 21.4826 22.8211L21.5185 22.8206C22.1656 22.8121 22.7023 22.805 23.1282 22.7702C23.5559 22.7353 23.9939 22.6658 24.3866 22.4611C24.971 22.1565 25.3815 21.7406 25.6784 21.1522C25.8723 20.7678 25.9397 20.3581 25.9704 19.9518C26 19.5586 26 19.0735 26 18.501V8.0414C26 7.56232 26 7.14107 25.9695 6.78832C25.9366 6.40875 25.8641 6.03605 25.6788 5.66855C25.4067 5.12886 24.9242 4.63948 24.3884 4.35976C23.7504 4.02668 23.0536 4.01805 22.2773 4.00844C22.2263 4.00781 22.1751 4.00718 22.1235 4.00645C18.8469 3.96006 16.3895 4.54559 14 5.99857ZM13 7.73127C10.9673 6.48514 8.88277 5.96409 5.90484 6.00625C4.8838 6.0207 4.70068 6.04735 4.5372 6.13269C4.3724 6.21873 4.19077 6.40295 4.10708 6.56895C4.07822 6.62619 4.04372 6.72197 4.02304 6.96082C4.00087 7.217 4 7.55088 4 8.08019V18.4636C4 19.0836 4.00067 19.4925 4.02397 19.8014C4.04693 20.1057 4.08672 20.2107 4.10721 20.2513C4.21544 20.4658 4.32474 20.5765 4.53781 20.6876C4.56721 20.7029 4.67902 20.7479 5.03451 20.7769C5.38391 20.8054 5.85161 20.8121 6.54372 20.8212C9.05677 20.8544 11.0841 21.2964 13 22.2588V7.73127ZM15 22.2588C16.9159 21.2964 18.9432 20.8544 21.4563 20.8212C22.1484 20.8121 22.6161 20.8054 22.9655 20.7769C23.321 20.7479 23.4328 20.7029 23.4622 20.6876C23.6753 20.5765 23.7846 20.4658 23.8928 20.2513C23.9133 20.2107 23.9531 20.1057 23.976 19.8014C23.9993 19.4925 24 19.0836 24 18.4636V8.08019C24 7.55088 23.9991 7.217 23.977 6.96082C23.9563 6.72197 23.9218 6.62619 23.8929 6.56895C23.8092 6.40295 23.6276 6.21873 23.4628 6.13269C23.2993 6.04735 23.1162 6.0207 22.0952 6.00625C19.1172 5.96409 17.0327 6.48514 15 7.73127V22.2588ZM21.9994 10.964C22.0191 11.5159 21.5877 11.9794 21.0357 11.9991C20.0201 12.0354 19.1281 12.1819 18.3119 12.4498C17.7872 12.6221 17.2222 12.3364 17.0499 11.8117C16.8776 11.2869 17.1633 10.7219 17.6881 10.5496C18.714 10.2128 19.7967 10.0421 20.9643 10.0004C21.5162 9.98065 21.9796 10.4121 21.9994 10.964ZM6.00064 10.964C6.02037 10.4121 6.48379 9.98066 7.03572 10.0004C8.20326 10.0421 9.28597 10.2128 10.3119 10.5496C10.8367 10.7219 11.1224 11.287 10.9501 11.8117C10.7778 12.3364 10.2128 12.6221 9.68806 12.4499C8.87194 12.1819 7.97993 12.0354 6.96429 11.9991C6.41235 11.9794 5.98091 11.516 6.00064 10.964ZM6.00064 15.964C6.02037 15.4121 6.48379 14.9807 7.03572 15.0004C8.20326 15.0421 9.28597 15.2128 10.3119 15.5496C10.8367 15.7219 11.1224 16.287 10.9501 16.8117C10.7778 17.3364 10.2128 17.6221 9.68806 17.4499C8.87194 17.1819 7.97993 17.0354 6.96429 16.9991C6.41235 16.9794 5.98091 16.516 6.00064 15.964ZM21.9994 15.964C22.0191 16.516 21.5877 16.9794 21.0357 16.9991C20.0201 17.0354 19.1281 17.1819 18.3119 17.4499C17.7872 17.6221 17.2222 17.3364 17.0499 16.8117C16.8776 16.287 17.1633 15.7219 17.6881 15.5496C18.714 15.2128 19.7967 15.0421 20.9643 15.0004C21.5162 14.9807 21.9796 15.4121 21.9994 15.964Z" fill="#141414"/>
</svg>
