<svg width="28" height="28" viewBox="0 0 28 28" fill="none" xmlns="http://www.w3.org/2000/svg">
<path fill-rule="evenodd" clip-rule="evenodd" d="M12.0733 2C12.8243 2 13.4638 2.23306 14.0002 2.59296C14.5366 2.23306 15.1761 2 15.9272 2C17.9322 2 19.58 3.61833 19.58 5.64211C19.58 6.03981 19.5389 6.4932 19.3777 6.97725C19.2153 7.46462 18.9645 7.88375 18.6619 8.26213C18.1149 8.94622 17.2798 9.6302 16.2379 10.4353L15.5228 10.9878C14.6263 11.6806 13.3742 11.6806 12.4776 10.9878L11.7626 10.4353C10.7207 9.6302 9.88558 8.94622 9.33852 8.26213C9.03593 7.88375 8.78516 7.46462 8.6228 6.97725C8.46155 6.4932 8.42041 6.03981 8.42041 5.64211C8.42041 3.61833 10.0682 2 12.0733 2ZM12.0733 4C11.1604 4 10.4204 4.7352 10.4204 5.64211C10.4204 6.67059 10.8456 7.19922 12.9855 8.8527L13.7005 9.40525C13.8768 9.54146 14.1236 9.54146 14.2999 9.40525L15.015 8.8527C17.1548 7.19922 17.58 6.67059 17.58 5.64211C17.58 4.7352 16.84 4 15.9272 4C15.3749 4 14.8735 4.31198 14.4017 4.98967L14.2679 5.18194C14.1657 5.32881 13.963 5.36553 13.8151 5.26397C13.7828 5.2418 13.7549 5.21401 13.7326 5.18194L13.5987 4.98967C13.127 4.31198 12.6255 4 12.0733 4ZM6.88564 10.383C7.39705 10.1745 7.64259 9.5909 7.43407 9.07949C7.22555 8.56808 6.64193 8.32255 6.13053 8.53107L4.48174 9.20334L4.3614 9.25226C3.81083 9.47573 3.31237 9.67806 2.92922 10.0295C2.59425 10.3367 2.33714 10.7192 2.17911 11.1454C1.99835 11.6329 1.9992 12.1708 2.00014 12.765L2.00027 12.8949V18.5272L2.00013 18.6481C1.99922 19.1852 1.99837 19.6861 2.16341 20.1436C2.30761 20.5434 2.5425 20.9043 2.84965 21.1981C3.20119 21.5342 3.65951 21.7363 4.15099 21.9529L4.151 21.9529L4.2616 22.0017L12.0835 25.4656L12.172 25.5048C12.6417 25.7133 13.0304 25.8858 13.4468 25.9559C13.813 26.0175 14.187 26.0175 14.5533 25.9559C14.9696 25.8858 15.3583 25.7133 15.8281 25.5049L15.8281 25.5049L15.9166 25.4656L23.7389 22.0017L23.8495 21.9529C24.341 21.7363 24.7993 21.5342 25.1509 21.1981C25.458 20.9043 25.6929 20.5434 25.8371 20.1436C26.0022 19.6861 26.0013 19.1852 26.0004 18.6481V18.6481L26.0003 18.5272V12.8963L26.0004 12.7663C26.0013 12.1717 26.0022 11.6335 25.8213 11.1457C25.6631 10.7194 25.4057 10.3367 25.0704 10.0295C24.6869 9.67803 24.188 9.4759 23.637 9.25263L23.5165 9.20375L21.8695 8.53339C21.358 8.32518 20.7745 8.57108 20.5663 9.08262C20.3581 9.59415 20.604 10.1776 21.1155 10.3858L22.718 11.0381L15.1087 14.4143C14.5044 14.6824 14.3585 14.7392 14.2219 14.7622C14.0751 14.787 13.9253 14.787 13.7785 14.7622C13.6419 14.7392 13.496 14.6824 12.8916 14.4143L9.15576 12.7567L5.28084 11.0374L6.88564 10.383ZM15.9199 16.2424L23.9997 12.6574C24.0001 12.7298 24.0003 12.8092 24.0003 12.8963V18.5272C24.0003 19.2633 23.986 19.3811 23.9558 19.465C23.9165 19.5741 23.8524 19.6725 23.7686 19.7526C23.7041 19.8142 23.6022 19.8749 22.9291 20.173L15.1068 23.6369L15 23.6841V16.6213C15.2629 16.5345 15.5305 16.4155 15.8313 16.2818L15.9199 16.2424ZM12.1691 16.2818C12.4698 16.4154 12.7373 16.5344 13 16.6212V23.684L12.8933 23.6369L5.07143 20.173C4.39834 19.875 4.29639 19.8143 4.23192 19.7526C4.14815 19.6725 4.08409 19.5741 4.04476 19.465C4.0145 19.3811 4.00027 19.2633 4.00027 18.5272V12.8949C4.00027 12.8084 4.00045 12.7295 4.0008 12.6575L8.34462 14.5848L12.0805 16.2424L12.1691 16.2818L12.1691 16.2818Z" fill="#141414"/>
</svg>
