<svg width="28" height="28" viewBox="0 0 28 28" fill="none" xmlns="http://www.w3.org/2000/svg">
<path d="M20.3547 2.07482C20.406 1.97766 20.5478 1.97766 20.5991 2.07482C20.9208 2.68436 21.2383 3.15975 21.5181 3.57866C22.0708 4.40634 22.4764 5.01354 22.4764 5.99924C22.4764 7.10381 21.5812 7.99924 20.4769 7.99924C19.3726 7.99924 18.4774 7.10381 18.4774 5.99924C18.4774 5.01354 18.883 4.40634 19.4357 3.57866C19.7155 3.15975 20.033 2.68436 20.3547 2.07482Z" fill="#141414"/>
<path d="M7.39221 2.07958C7.4435 1.98242 7.5853 1.98242 7.63659 2.07958C7.95879 2.68991 8.27674 3.16533 8.55681 3.58411C9.10894 4.40969 9.51385 5.01513 9.51385 6.0001C9.51385 7.10467 8.61867 8.0001 7.5144 8.0001C6.41013 8.0001 5.51494 7.10467 5.51494 6.0001C5.51494 5.01513 5.91985 4.40969 6.47198 3.58411C6.75206 3.16533 7.07001 2.68991 7.39221 2.07958Z" fill="#141414"/>
<path d="M14.1165 2.07495C14.0652 1.97778 13.9234 1.97778 13.8721 2.07495C13.5504 2.68448 13.2329 3.15987 12.9531 3.57879C12.4004 4.40646 11.9948 5.01366 11.9948 5.99936C11.9948 7.10393 12.89 7.99936 13.9943 7.99936C15.0986 7.99936 15.9937 7.10393 15.9937 5.99936C15.9937 5.01366 15.5882 4.40646 15.0355 3.57879C14.7557 3.15987 14.4382 2.68448 14.1165 2.07495Z" fill="#141414"/>
<path fill-rule="evenodd" clip-rule="evenodd" d="M2.75799 12.0088C3.22274 11.457 3.93412 11.0032 4.8047 11.0032H23.1385C24.0021 11.0032 24.7228 11.4501 25.1998 11.9927C25.6751 12.5333 26 13.2677 26 14.0288C26 16.2085 24.9264 17.7996 23.4768 18.581V20.2002C23.4768 21.8804 23.4768 22.7205 23.1499 23.3622C22.8623 23.9267 22.4035 24.3856 21.8392 24.6733C21.1976 25.0002 20.3578 25.0002 18.6781 25.0002H9.31554C7.63583 25.0002 6.79598 25.0002 6.15442 24.6733C5.59009 24.3856 5.13127 23.9267 4.84373 23.3622C4.51684 22.7205 4.51684 21.8804 4.51684 20.2002V18.5775C3.07043 17.7949 2 16.2053 2 14.0288C2 13.2872 2.29617 12.557 2.75799 12.0088ZM6.66644 19.1238C6.61633 19.1238 6.56627 19.123 6.51629 19.1213V20.2002C6.51629 21.0733 6.51785 21.6079 6.55051 22.0078C6.56573 22.1941 6.58484 22.3068 6.60096 22.3752C6.60863 22.4078 6.61505 22.4278 6.61892 22.4387C6.62263 22.4491 6.62526 22.4542 6.62526 22.4542C6.7211 22.6424 6.87404 22.7954 7.06215 22.8913C7.06215 22.8913 7.06732 22.8939 7.07772 22.8976C7.08854 22.9015 7.10857 22.9079 7.14112 22.9156C7.20956 22.9317 7.32224 22.9508 7.50849 22.966C7.90831 22.9987 8.44269 23.0002 9.31554 23.0002H18.6781C19.5509 23.0002 20.0853 22.9987 20.4851 22.966C20.6714 22.9508 20.7841 22.9317 20.8525 22.9156C20.8851 22.9079 20.9051 22.9015 20.9159 22.8976C20.9263 22.8939 20.9315 22.8913 20.9315 22.8913C21.1196 22.7954 21.2725 22.6424 21.3684 22.4542C21.3684 22.4542 21.371 22.4491 21.3747 22.4387C21.3786 22.4278 21.385 22.4078 21.3927 22.3752C21.4088 22.3068 21.4279 22.1941 21.4431 22.0078C21.4758 21.6079 21.4773 21.0733 21.4773 20.2002V19.1215C21.4294 19.1231 21.3815 19.1238 21.3335 19.1238C19.7278 19.1238 18.5999 18.6066 17.8617 18.0423C17.793 17.9898 17.7281 17.9372 17.6667 17.8848C17.6053 17.9372 17.5404 17.9898 17.4717 18.0423C16.7336 18.6066 15.6056 19.1238 14 19.1238C12.3943 19.1238 11.2663 18.6066 10.5282 18.0423C10.4595 17.9898 10.3946 17.9372 10.3332 17.8848C10.2718 17.9372 10.2069 17.9898 10.1382 18.0423C9.40004 18.6066 8.27211 19.1238 6.66644 19.1238ZM9.45485 15.8942C9.62959 15.5726 9.96644 15.3718 10.3332 15.3718C10.6999 15.3718 11.0368 15.5726 11.2115 15.8942C11.2173 15.9039 11.2478 15.9541 11.3058 16.0281C11.3906 16.1362 11.5325 16.2928 11.7424 16.4533C12.1501 16.765 12.8556 17.1238 14 17.1238C15.1443 17.1238 15.8498 16.765 16.2575 16.4533C16.4674 16.2928 16.6093 16.1362 16.6941 16.0281C16.7522 15.9541 16.7884 15.8942 16.7884 15.8942C16.9631 15.5726 17.3 15.3718 17.6667 15.3718C18.0335 15.3718 18.3703 15.5726 18.5451 15.8942C18.5508 15.9039 18.5813 15.9542 18.6393 16.0281C18.7241 16.1362 18.866 16.2928 19.0759 16.4533C19.4836 16.765 20.1891 17.1238 21.3335 17.1238C22.6045 17.1238 24.0005 16.1149 24.0005 14.0288C24.0005 13.8222 23.9009 13.5438 23.6984 13.3135C23.4977 13.0852 23.2875 13.0032 23.1385 13.0032H4.8047C4.66274 13.0032 4.47163 13.0783 4.28703 13.2974C4.0995 13.5201 3.99945 13.8027 3.99945 14.0288C3.99945 16.1149 5.39548 17.1238 6.66644 17.1238C7.81082 17.1238 8.51628 16.765 8.924 16.4533C9.13392 16.2928 9.27577 16.1362 9.36062 16.0281C9.39426 15.9852 9.42684 15.941 9.45485 15.8942Z" fill="#141414"/>
</svg>
