<svg width="28" height="28" viewBox="0 0 28 28" fill="none" xmlns="http://www.w3.org/2000/svg">
<path d="M11.3918 5H16.6082C17.367 5 17.8117 5.22087 18.2475 5.73287C18.2698 5.75915 18.6373 6.21606 19.0373 6.70987C19.4374 7.20368 20.2521 7.5 21 7.5H21.5C23.5 7.5 25 9 25 11.5V19C25 21 23 23 20.5 23H7.5C5 23 3 21 3 19V11.5C3 9 4.5 7.5 6.5 7.5H7C7.74789 7.5 8.5626 7.20368 8.96266 6.70987C9.36272 6.21606 9.73015 5.75915 9.75252 5.73287C10.1883 5.22087 10.633 5 11.3918 5ZM8.64999 14.75C8.64999 17.7032 11.0468 20.1 14 20.1C16.9532 20.1 19.35 17.7032 19.35 14.75C19.35 11.7968 16.9532 9.40002 14 9.40002C11.0468 9.40002 8.64999 11.7968 8.64999 14.75ZM10.25 14.75C10.25 12.6787 11.9287 11 14 11C16.0713 11 17.75 12.6787 17.75 14.75C17.75 16.8213 16.0713 18.5 14 18.5C11.9287 18.5 10.25 16.8213 10.25 14.75Z" fill="#141414"/>
</svg>
