<svg width="28" height="28" viewBox="0 0 28 28" fill="none" xmlns="http://www.w3.org/2000/svg">
<path fill-rule="evenodd" clip-rule="evenodd" d="M11 14C11 12.3432 12.3432 11 14 11C15.6569 11 17 12.3432 17 14C17 15.6569 15.6569 17 14 17C12.3432 17 11 15.6569 11 14ZM14 9.00003C11.2386 9.00003 9.00003 11.2386 9.00003 14C9.00003 16.7615 11.2386 19 14 19C16.7615 19 19 16.7615 19 14C19 11.2386 16.7615 9.00003 14 9.00003Z" fill="#141414"/>
<path fill-rule="evenodd" clip-rule="evenodd" d="M12.6634 3.00003L12.587 3.00002C12.118 2.99985 11.7651 2.99973 11.426 3.05818C10.576 3.20472 9.79614 3.6221 9.2027 4.24807C8.966 4.49775 8.77032 4.79149 8.5103 5.18182L8.46798 5.24533L8.38248 5.37358C8.25352 5.56703 8.22647 5.60547 8.20221 5.63499C8.03436 5.83921 7.79248 5.96866 7.52945 5.99504C7.49143 5.99886 7.44444 6.00003 7.21194 6.00003L7.12241 6.00002C6.54774 5.99987 6.14146 5.99977 5.78419 6.05733C3.86825 6.36604 2.36604 7.86826 2.05733 9.7842C1.99976 10.1415 1.99987 10.5477 2.00001 11.1224L2.00003 11.2119L2.00003 15.0438C2.00002 16.4068 2.00001 17.4909 2.07147 18.3655C2.14465 19.2611 2.29771 20.0247 2.65399 20.724C3.22923 21.853 4.14711 22.7708 5.27609 23.3461C5.97533 23.7024 6.73901 23.8554 7.63461 23.9286C8.50919 24 9.59321 24 10.9562 24H17.0438C18.4068 24 19.4909 24 20.3655 23.9286C21.2611 23.8554 22.0247 23.7024 22.724 23.3461C23.8529 22.7708 24.7708 21.8529 25.3461 20.724C25.7024 20.0247 25.8554 19.2611 25.9286 18.3655C26 17.4909 26 16.4069 26 15.0438V11.2119L26 11.1224C26.0002 10.5477 26.0003 10.1415 25.9427 9.7842C25.634 7.86826 24.1318 6.36604 22.2159 6.05733C21.8586 5.99977 21.4523 5.99987 20.8776 6.00002L20.7881 6.00003C20.5556 6.00003 20.5086 5.99886 20.4706 5.99504C20.2076 5.96866 19.9657 5.83921 19.7978 5.63499C19.7736 5.60548 19.7465 5.56703 19.6176 5.37358L19.5321 5.24533L19.4897 5.1818C19.2297 4.79149 19.0341 4.49775 18.7974 4.24807C18.2039 3.6221 17.424 3.20472 16.574 3.05818C16.235 2.99973 15.882 2.99985 15.413 3.00002L15.3367 3.00003H12.6634ZM12.6634 5.00003C12.0849 5.00003 11.9145 5.00347 11.7658 5.02911C11.3408 5.10238 10.9509 5.31106 10.6541 5.62405C10.5503 5.73358 10.453 5.87343 10.1321 6.35473L10.0466 6.48298L10.0263 6.51337C9.92887 6.6597 9.84348 6.78789 9.7473 6.90491C9.24375 7.51757 8.5181 7.90593 7.72902 7.98506C7.57831 8.00018 7.42428 8.00011 7.24846 8.00004L7.21194 8.00003C6.51169 8.00003 6.27999 8.00324 6.10234 8.03187C5.03793 8.20337 4.20337 9.03794 4.03186 10.1023C4.00324 10.28 4.00003 10.5117 4.00003 11.2119V15C4.00003 16.4167 4.00081 17.419 4.06483 18.2026C4.1279 18.9745 4.24732 19.4457 4.436 19.816C4.8195 20.5686 5.43142 21.1806 6.18407 21.5641C6.55438 21.7527 7.02555 21.8722 7.79747 21.9352C8.58106 21.9993 9.5834 22 11 22H17C18.4167 22 19.419 21.9993 20.2026 21.9352C20.9745 21.8722 21.4457 21.7527 21.816 21.5641C22.5686 21.1806 23.1806 20.5686 23.5641 19.816C23.7527 19.4457 23.8722 18.9745 23.9352 18.2026C23.9993 17.419 24 16.4167 24 15V11.2119C24 10.5117 23.9968 10.28 23.9682 10.1023C23.7967 9.03794 22.9621 8.20337 21.8977 8.03187C21.7201 8.00324 21.4884 8.00003 20.7881 8.00003L20.7516 8.00004C20.5758 8.00011 20.4218 8.00018 20.271 7.98506C19.482 7.90593 18.7563 7.51757 18.2528 6.90491C18.1566 6.78789 18.0712 6.6597 17.9737 6.51337L17.9535 6.48299L17.868 6.35474C17.5471 5.87343 17.4498 5.73358 17.3459 5.62405C17.0492 5.31106 16.6593 5.10238 16.2343 5.02911C16.0855 5.00347 15.9152 5.00003 15.3367 5.00003H12.6634Z" fill="#141414"/>
</svg>
