<svg width="28" height="28" viewBox="0 0 28 28" fill="none" xmlns="http://www.w3.org/2000/svg">
<path fill-rule="evenodd" clip-rule="evenodd" d="M11.2846 5.00004L11.4554 5.00009H16.5446L16.7153 5.00004C17.9856 4.99952 18.8632 4.99916 19.6582 5.27336C20.3588 5.51503 20.997 5.90942 21.5264 6.428C22.1272 7.01642 22.5194 7.80153 23.087 8.93797L23.1633 9.09071L24.118 11.0001H25.5C26.0523 11.0001 26.5 11.4478 26.5 12.0001V12.3538C26.5 13.2866 25.8299 14.0149 25 14.18V18.0001L25 20.2001L25 20.2232L25 20.2722V22.2801L25 22.3018C25.0001 22.408 25.0001 22.54 24.9906 22.6571C24.9794 22.794 24.9503 22.9958 24.842 23.2084C24.703 23.4812 24.4811 23.703 24.2083 23.8421C23.9957 23.9504 23.7939 23.9795 23.657 23.9906C23.5399 24.0002 23.4079 24.0001 23.3017 24.0001L23.28 24.0001H22.72L22.6983 24.0001C22.5921 24.0001 22.4601 24.0002 22.343 23.9906C22.2061 23.9795 22.0043 23.9504 21.7917 23.8421C21.5189 23.703 21.2971 23.4812 21.1581 23.2084C21.0497 22.9958 21.0206 22.794 21.0095 22.6571C20.9999 22.54 21 22.408 21 22.3018L21 22.2801V22.0001H7.00001V22.2801L7.00002 22.3018C7.00007 22.408 7.00013 22.54 6.99056 22.6571C6.97938 22.794 6.9503 22.9958 6.84197 23.2084C6.70296 23.4812 6.48113 23.703 6.2083 23.8421C5.9957 23.9504 5.79388 23.9795 5.657 23.9906C5.53992 24.0002 5.40791 24.0001 5.30172 24.0001L5.28001 24.0001H4.72001L4.69831 24.0001C4.59212 24.0001 4.46011 24.0002 4.34302 23.9906C4.20614 23.9795 4.00433 23.9504 3.79173 23.8421C3.51889 23.703 3.29707 23.4812 3.15805 23.2084C3.04973 22.9958 3.02065 22.794 3.00947 22.6571C2.9999 22.54 2.99996 22.408 3.00001 22.3018L3.00001 22.2801V20.3486L3.00001 20.3018L3.00001 20.2801V18.7842L2.99997 18.6362L2.99997 14.18C2.17006 14.0148 1.5 13.2866 1.5 12.3538V12.0001C1.5 11.4478 1.94772 11.0001 2.5 11.0001H3.88194L4.83663 9.09071L4.91295 8.93796C5.48059 7.80153 5.87274 7.01641 6.47351 6.428C7.00299 5.90942 7.64113 5.51503 8.34175 5.27336C9.13672 4.99916 10.0143 4.99952 11.2846 5.00004ZM5.01709 19.5039C5.00243 19.3244 5.0003 19.0908 5.00001 18.7292V17.0001L4.99997 14.0207C5.07134 14.0339 5.15944 14.0492 5.2659 14.066C5.58739 14.1167 6.0782 14.1818 6.78446 14.246C8.19625 14.3743 10.4773 14.5001 14 14.5001C17.5227 14.5001 19.8037 14.3743 21.2155 14.246C21.9218 14.1818 22.4126 14.1167 22.7341 14.066C22.8405 14.0492 22.9286 14.0339 23 14.0207V18.6001C23 19.0366 22.9992 19.3039 22.9829 19.5039C22.9752 19.597 22.9657 19.6534 22.9576 19.6876C22.9538 19.7039 22.9506 19.7139 22.9486 19.7193C22.9468 19.7245 22.9455 19.7271 22.9455 19.7271C22.8975 19.8212 22.821 19.8977 22.727 19.9456C22.727 19.9456 22.7254 19.9464 22.7225 19.9475L22.7192 19.9488C22.7138 19.9507 22.7038 19.9539 22.6875 19.9577C22.6532 19.9658 22.5969 19.9754 22.5037 19.983C22.3038 19.9993 22.0365 20.0001 21.6 20.0001H6.39997C5.96343 20.0001 5.69617 19.9993 5.49621 19.983C5.40306 19.9754 5.3467 19.9658 5.31247 19.9577C5.29619 19.9539 5.28618 19.9507 5.28076 19.9488C5.27556 19.9469 5.27298 19.9456 5.27298 19.9456C5.1789 19.8977 5.10241 19.8212 5.05447 19.7271C5.05447 19.7271 5.05315 19.7245 5.0513 19.7193C5.04937 19.7139 5.04615 19.7039 5.04232 19.6876C5.03426 19.6534 5.0247 19.597 5.01709 19.5039ZM22.4268 12.0897L21.3745 9.98514C20.6999 8.63605 20.4577 8.18069 20.127 7.85684C19.8093 7.54569 19.4264 7.30905 19.0061 7.16406C18.5685 7.01314 18.0529 7.00009 16.5446 7.00009H11.4554C9.94707 7.00009 9.43143 7.01314 8.9939 7.16406C8.57352 7.30905 8.19064 7.54569 7.87295 7.85684C7.54229 8.18069 7.30003 8.63605 6.62548 9.98514L5.5732 12.0897L5.57783 12.0904C5.85009 12.1334 6.29679 12.1934 6.96553 12.2542C8.30373 12.3758 10.5227 12.5001 14 12.5001C17.4773 12.5001 19.6963 12.3758 21.0345 12.2542C21.7032 12.1934 22.1499 12.1334 22.4222 12.0904L22.4268 12.0897ZM20.124 17.9924C20.672 17.9239 21.0608 17.4241 20.9923 16.876C20.9238 16.328 20.424 15.9393 19.8759 16.0078L17.8759 16.2578C17.3279 16.3263 16.9392 16.8261 17.0077 17.3741C17.0762 17.9221 17.576 18.3109 18.124 18.2424L20.124 17.9924ZM7.00774 16.876C6.93924 17.4241 7.32796 17.9239 7.87598 17.9924L9.87598 18.2424C10.424 18.3109 10.9238 17.9221 10.9923 17.3741C11.0608 16.8261 10.6721 16.3263 10.1241 16.2578L8.12405 16.0078C7.57603 15.9393 7.07624 16.328 7.00774 16.876Z" fill="#141414"/>
</svg>
