<svg width="28" height="28" viewBox="0 0 28 28" fill="none" xmlns="http://www.w3.org/2000/svg">
<path fill-rule="evenodd" clip-rule="evenodd" d="M9.198 5.44737L6.22185 5.97537C4.56712 6.26894 3.73976 6.41573 3.16487 6.84989C2.65918 7.23179 2.28738 7.76397 2.10274 8.37017C1.89284 9.05932 2.03962 9.88669 2.33319 11.5414L4.15066 21.7857C4.44423 23.4404 4.59101 24.2678 5.02517 24.8427C5.40707 25.3484 5.93926 25.7202 6.54545 25.9048C7.23461 26.1147 8.06197 25.9679 9.71669 25.6744L14.739 24.7833C15.5431 24.6407 16.1519 24.5327 16.6312 24.4095L12.8065 23.7351C12.04 23.6 11.3501 23.4784 10.7845 23.3303C10.1787 23.1717 9.54572 22.9429 8.96314 22.5039C8.11966 21.8683 7.49905 20.982 7.19026 19.972C6.97698 19.2744 6.97847 18.6013 7.03663 17.9778C7.09094 17.3956 7.2126 16.7059 7.34781 15.9393L9.13439 5.80713C9.15588 5.68521 9.17703 5.56521 9.198 5.44737Z" fill="#141414"/>
<path d="M11.0919 6.22563C11.3837 4.5706 11.5296 3.74309 11.9632 3.16774C12.3445 2.66165 12.8763 2.28928 13.4823 2.10401C14.1713 1.89338 14.9988 2.0393 16.6538 2.33112L21.7827 3.23548C23.4377 3.52731 24.2652 3.67322 24.8406 4.10678C25.3466 4.48814 25.719 5.01993 25.9043 5.62594C26.1149 6.31487 25.969 7.14239 25.6772 8.79742L23.9157 18.7874C23.6238 20.4424 23.4779 21.27 23.0444 21.8453C22.663 22.3514 22.1312 22.7238 21.5252 22.909C20.8363 23.1197 20.0088 22.9737 18.3537 22.6819L13.2249 21.7776C11.5698 21.4857 10.7423 21.3398 10.167 20.9063C9.66089 20.5249 9.28853 19.9931 9.10325 19.3871C8.89262 18.6982 9.03854 17.8706 9.33036 16.2156L11.0919 6.22563Z" fill="#141414"/>
</svg>
