<svg width="28" height="28" viewBox="0 0 28 28" fill="none" xmlns="http://www.w3.org/2000/svg">
<path fill-rule="evenodd" clip-rule="evenodd" d="M26 14C26 7.37231 20.6258 2 14 2C7.37231 2 2 7.37231 2 14C2 20.6277 7.37231 26 14 26C20.6258 26 26 20.6277 26 14ZM13.5 8C14.0523 8 14.5 8.44772 14.5 9V14.1036L19.3746 16.0728C19.8866 16.2797 20.1341 16.8625 19.9272 17.3746C19.7203 17.8866 19.1375 18.1341 18.6254 17.9272L13.1254 15.7053C12.7475 15.5526 12.5 15.1858 12.5 14.7781V9C12.5 8.44772 12.9477 8 13.5 8Z" fill="#141414"/>
</svg>
