<svg width="28" height="28" viewBox="0 0 28 28" fill="none" xmlns="http://www.w3.org/2000/svg">
<g clip-path="url(#clip0_1570_12254)">
<path fill-rule="evenodd" clip-rule="evenodd" d="M18.3163 1.05108C17.7923 0.876434 17.226 1.15959 17.0513 1.68354L16.9049 2.12288C16.5947 3.05361 16.6668 4.06947 17.1056 4.94698C17.3071 5.35005 17.3403 5.81667 17.1978 6.2442L17.0513 6.68354C16.8767 7.20748 17.1599 7.7738 17.6838 7.94845C18.2077 8.1231 18.7741 7.83994 18.9487 7.31599L19.0952 6.87665C19.4054 5.94592 19.3332 4.93006 18.8945 4.05255C18.6929 3.64948 18.6598 3.18286 18.8023 2.75533L18.9487 2.31599C19.1234 1.79205 18.8402 1.22573 18.3163 1.05108Z" fill="#141414"/>
<path fill-rule="evenodd" clip-rule="evenodd" d="M8.31626 1.05108C7.79231 0.876434 7.22599 1.15959 7.05135 1.68354L6.9049 2.12288C6.59465 3.05361 6.66685 4.06947 7.1056 4.94698C7.30714 5.35005 7.3403 5.81667 7.19779 6.2442L7.05134 6.68354C6.8767 7.20748 7.15986 7.7738 7.6838 7.94845C8.20774 8.1231 8.77406 7.83994 8.94871 7.31599L9.09516 6.87665C9.4054 5.94592 9.33321 4.93006 8.89446 4.05255C8.69292 3.64948 8.65976 3.18286 8.80227 2.75533L8.94871 2.31599C9.12336 1.79205 8.8402 1.22573 8.31626 1.05108Z" fill="#141414"/>
<path fill-rule="evenodd" clip-rule="evenodd" d="M13.2677 0.0362474C12.7355 -0.111568 12.1843 0.199985 12.0365 0.732122L11.8141 1.53276C11.5743 2.39601 11.6313 3.31478 11.9759 4.1418L12.178 4.62696C12.3503 5.04047 12.3788 5.49986 12.2589 5.93148L12.0365 6.73212C11.8887 7.26426 12.2002 7.81547 12.7324 7.96328C13.2645 8.1111 13.8157 7.79955 13.9635 7.26741L14.1859 6.46677C14.4257 5.60352 14.3688 4.68475 14.0242 3.85773L13.822 3.37257C13.6497 2.95906 13.6213 2.49967 13.7411 2.06805L13.9635 1.26741C14.1114 0.735273 13.7998 0.184063 13.2677 0.0362474Z" fill="#141414"/>
<path fill-rule="evenodd" clip-rule="evenodd" d="M20.2182 10.0352C19.8042 9.99973 19.2967 9.99975 18.7037 9.99976H7.29654C6.70352 9.99975 6.19601 9.99973 5.782 10.0352C5.34836 10.0723 4.9158 10.1544 4.51032 10.3809C3.91142 10.7156 3.44533 11.2455 3.18974 11.8822C3.01671 12.3132 2.99048 12.7527 3.00895 13.1875C3.02658 13.6027 3.09131 14.1061 3.16694 14.6942L3.55187 17.6884L3.57659 17.8809C3.81944 19.7726 3.97097 20.9531 4.41995 21.928C5.2475 23.7249 6.79673 25.0877 8.68446 25.6793C9.70864 26.0004 10.8988 26.0001 12.806 25.9998L13.0001 25.9998L13.1941 25.9998C15.1014 26.0001 16.2915 26.0004 17.3156 25.6794C19.2034 25.0877 20.7526 23.7249 21.5801 21.928C21.6724 21.7278 21.752 21.519 21.8225 21.2971L24.2443 20.5705C25.8799 20.0798 27 18.5744 27 16.8667C27 14.731 25.2687 12.9998 23.1331 12.9998H22.9962C22.9992 12.6265 22.9586 12.2513 22.8105 11.8822C22.5549 11.2455 22.0888 10.7156 21.4899 10.3809C21.0844 10.1544 20.6519 10.0723 20.2182 10.0352ZM22.4483 17.6886L22.4235 17.881C22.3679 18.3146 22.317 18.7109 22.2663 19.0759L23.6696 18.6549C24.4592 18.418 25 17.6911 25 16.8667C25 15.8356 24.1642 14.9998 23.1331 14.9998H22.794L22.4483 17.6886ZM5.95261 12.0279C5.64421 12.0543 5.53523 12.0993 5.48597 12.1268C5.28634 12.2384 5.13098 12.415 5.04578 12.6272C5.02476 12.6796 4.99401 12.7934 5.00715 13.1027C5.02071 13.422 5.07355 13.8397 5.1559 14.4803L5.53555 17.4334C5.81169 19.5814 5.93231 20.4307 6.23655 21.0913C6.82766 22.3748 7.93425 23.3483 9.28263 23.7709C9.97664 23.9884 10.8344 23.9998 13.0001 23.9998C15.1657 23.9998 16.0235 23.9884 16.7175 23.7709C18.0659 23.3483 19.1724 22.3749 19.7636 21.0914C20.0678 20.4308 20.1884 19.5815 20.4646 17.4335L20.8443 14.4803C20.9267 13.8397 20.9795 13.422 20.9931 13.1027C21.0062 12.7934 20.9755 12.6796 20.9544 12.6272C20.8692 12.415 20.7139 12.2384 20.5142 12.1268C20.465 12.0993 20.356 12.0543 20.0476 12.0279C19.7292 12.0006 19.3081 11.9998 18.6623 11.9998H7.33794C6.69206 11.9998 6.27103 12.0006 5.95261 12.0279Z" fill="#141414"/>
</g>
<defs>
<clipPath id="clip0_1570_12254">
<rect width="28" height="28" fill="white"/>
</clipPath>
</defs>
</svg>
