<svg width="28" height="28" viewBox="0 0 28 28" fill="none" xmlns="http://www.w3.org/2000/svg">
<path fill-rule="evenodd" clip-rule="evenodd" d="M9.4 20H10.6349L10.254 23H7C6.44772 23 6 23.4477 6 24C6 24.5523 6.44772 25 7 25H21C21.5523 25 22 24.5523 22 24C22 23.4477 21.5523 23 21 23H17.746L17.3651 20H18.6C20.8402 20 21.9603 20 22.816 19.564C23.5686 19.1805 24.1805 18.5686 24.564 17.816C25 16.9603 25 15.8402 25 13.6V10.4C25 8.15979 25 7.03969 24.564 6.18404C24.1805 5.43139 23.5686 4.81947 22.816 4.43597C21.9603 4 20.8402 4 18.6 4H9.4C7.15979 4 6.03968 4 5.18404 4.43597C4.43139 4.81947 3.81947 5.43139 3.43597 6.18404C3 7.03969 3 8.15979 3 10.4V13.6C3 15.8402 3 16.9603 3.43597 17.816C3.81947 18.5686 4.43139 19.1805 5.18404 19.564C6.03968 20 7.15979 20 9.4 20ZM23 13.6V10.4C23 9.24689 22.9984 8.50235 22.9521 7.93567C22.9078 7.39235 22.8324 7.19091 22.782 7.09202C22.5903 6.7157 22.2843 6.40973 21.908 6.21799C21.8091 6.1676 21.6077 6.09225 21.0643 6.04786C20.4977 6.00156 19.7531 6 18.6 6L9.4 6C8.24689 6 7.50235 6.00156 6.93567 6.04785C6.39235 6.09225 6.19091 6.1676 6.09202 6.21799C5.71569 6.40973 5.40973 6.71569 5.21799 7.09202C5.1676 7.19091 5.09225 7.39235 5.04786 7.93567C5.00155 8.50235 5 9.24689 5 10.4L5 13.6C5 14.7531 5.00155 15.4977 5.04785 16.0643C5.09225 16.6077 5.1676 16.8091 5.21799 16.908C5.40973 17.2843 5.71569 17.5903 6.09202 17.782C6.19091 17.8324 6.39234 17.9078 6.93567 17.9521C7.50235 17.9984 8.24689 18 9.4 18L18.6 18C19.7531 18 20.4977 17.9984 21.0643 17.9521C21.6077 17.9078 21.8091 17.8324 21.908 17.782C22.2843 17.5903 22.5903 17.2843 22.782 16.908C22.8324 16.8091 22.9078 16.6077 22.9521 16.0643C22.9984 15.4977 23 14.7531 23 13.6ZM15.73 23L15.349 20H12.651L12.27 23H15.73Z" fill="#141414"/>
</svg>
