<svg width="28" height="28" viewBox="0 0 28 28" fill="none" xmlns="http://www.w3.org/2000/svg">
<path d="M15.207 8.68984C15.9779 8.26402 16.5 7.44298 16.5 6.5C16.5 5.11929 15.3807 4 14 4C12.6193 4 11.5 5.11929 11.5 6.5C11.5 7.44298 12.0221 8.26402 12.793 8.68984L9.46499 13.349C9.30223 13.5769 9.22085 13.6908 9.11434 13.7462C9.02064 13.7949 8.91394 13.8126 8.80952 13.797C8.69081 13.7792 8.57688 13.6978 8.34901 13.535L5.71757 11.6554C5.89799 11.3098 6 10.9168 6 10.5C6 9.11929 4.88071 8 3.5 8C2.11929 8 1 9.11929 1 10.5C1 11.7773 1.95787 12.8308 3.19445 12.9815L4.7 18H23.3L24.8055 12.9815C26.0421 12.8308 27 11.7773 27 10.5C27 9.11929 25.8807 8 24.5 8C23.1193 8 22 9.11929 22 10.5C22 10.9168 22.102 11.3098 22.2824 11.6554L19.651 13.535C19.4231 13.6978 19.3092 13.7792 19.1905 13.797C19.0861 13.8126 18.9794 13.7949 18.8857 13.7462C18.7792 13.6908 18.6978 13.5769 18.535 13.349L15.207 8.68984Z" fill="#141414"/>
<path d="M10.0713 24C8.78993 24 8.14922 24 7.60875 23.7817C7.13163 23.5891 6.7121 23.2769 6.39046 22.8753C6.0261 22.4203 5.84199 21.8066 5.47378 20.5793L5.3 20H22.7L22.5262 20.5793C22.158 21.8066 21.9739 22.4203 21.6095 22.8753C21.2879 23.2769 20.8684 23.5891 20.3913 23.7817C19.8508 24 19.2101 24 17.9287 24H10.0713Z" fill="#141414"/>
</svg>
