<svg width="28" height="28" viewBox="0 0 28 28" fill="none" xmlns="http://www.w3.org/2000/svg">
<path fill-rule="evenodd" clip-rule="evenodd" d="M16.7394 5.76495C15.6739 3.41169 12.3261 3.41168 11.2606 5.76493L9.52567 9.59661L6.46492 7.90962C4.13746 6.62681 1.41001 8.76979 2.11239 11.3295L3.9792 18.1327V19.7987L3.9792 19.8373C3.97918 20.3646 3.97916 20.8195 4.00983 21.1942C4.0422 21.5897 4.11366 21.983 4.30686 22.3615C4.59508 22.9261 5.05497 23.3852 5.62063 23.6729C5.9998 23.8658 6.39384 23.9371 6.79 23.9694C7.16535 24 7.62106 24 8.14931 24H8.18793H19.812H19.8507C20.3789 24 20.8346 24 21.21 23.9694C21.6061 23.9371 22.0002 23.8658 22.3793 23.6729C22.945 23.3852 23.4049 22.9261 23.6931 22.3615C23.8863 21.983 23.9578 21.5897 23.9901 21.1942C24.0208 20.8195 24.0208 20.3646 24.0208 19.8373V19.7987V18.1327L25.8876 11.3295C26.59 8.7698 23.8625 6.6268 21.5351 7.90962L18.4743 9.5966L16.7394 5.76495ZM22.0166 18.9985H5.98336V19.7987C5.98336 20.3755 5.98414 20.7479 6.00733 21.0313C6.02958 21.303 6.06733 21.4038 6.09258 21.4532C6.18865 21.6414 6.34195 21.7945 6.5305 21.8904C6.58005 21.9156 6.68098 21.9533 6.9532 21.9755C7.23713 21.9986 7.61018 21.9994 8.18793 21.9994H19.812C20.3898 21.9994 20.7628 21.9986 21.0468 21.9755C21.319 21.9533 21.4199 21.9156 21.4695 21.8904C21.658 21.7945 21.8113 21.6414 21.9074 21.4532C21.9326 21.4038 21.9704 21.303 21.9926 21.0313C22.0158 20.7479 22.0166 20.3755 22.0166 19.7987V18.9985ZM13.0869 6.58891C13.442 5.80449 14.558 5.80449 14.9131 6.58891L17.0952 11.4081C17.2104 11.6625 17.4268 11.8573 17.6922 11.9453C17.9576 12.0334 18.2478 12.0067 18.4927 11.8718L22.5038 9.66099C23.2796 9.23338 24.1888 9.94771 23.9547 10.8009L22.2542 16.9979H5.74579L4.04534 10.8009C3.81122 9.94771 4.72037 9.23338 5.49619 9.66099L9.50731 11.8718C9.75215 12.0067 10.0423 12.0334 10.3078 11.9453C10.5732 11.8573 10.7896 11.6625 10.9048 11.4081L13.0869 6.58891Z" fill="#141414"/>
</svg>
