<svg width="28" height="28" viewBox="0 0 28 28" fill="none" xmlns="http://www.w3.org/2000/svg">
<path fill-rule="evenodd" clip-rule="evenodd" d="M10.0628 4C9.90959 4 9.75848 4.03518 9.62107 4.10283L5.57127 6.09658C5.41167 6.17219 5.27044 6.29077 5.16671 6.44755C5.15742 6.46156 5.14849 6.4758 5.13992 6.49026L2.15491 11.4653C2.14987 11.4733 2.14493 11.4813 2.1401 11.4895C2.09995 11.557 2.06845 11.6282 2.04559 11.7016C2.02222 11.7762 2.00802 11.8523 2.00262 11.9284C1.99467 12.0377 2.00496 12.1455 2.03141 12.2483C2.05809 12.3528 2.10189 12.4538 2.16282 12.5469C2.20369 12.6096 2.25193 12.6682 2.30721 12.7212L13.2876 23.7016C13.3004 23.7146 13.3136 23.7273 13.3271 23.7396C13.4987 23.8959 13.7114 23.9819 13.9283 23.9974L13.9523 23.9989L13.9545 23.999C13.9697 23.9997 13.985 24 14.0002 24C14.0288 24 14.0573 23.9988 14.0857 23.9964C14.2979 23.9783 14.5054 23.8927 14.6733 23.7396C14.6869 23.7273 14.7 23.7146 14.7129 23.7016L25.6932 12.7213C25.698 12.7166 25.7028 12.7119 25.7076 12.7071C25.7725 12.6424 25.827 12.5701 25.8707 12.4927C25.913 12.4182 25.9449 12.3393 25.9665 12.2582C25.9961 12.1478 26.007 12.0314 25.9967 11.9135C25.9885 11.8187 25.9668 11.7242 25.9308 11.6333C25.9129 11.5878 25.8916 11.5433 25.8667 11.5003C25.8483 11.4682 25.8282 11.4375 25.8065 11.408L22.3195 6.42654C22.2261 6.29304 22.1059 6.18936 21.9713 6.11765L18.4273 4.12802C18.2778 4.04408 18.1092 4 17.9378 4H10.0628ZM21.121 8.20197L17.7313 9.43461L18.9366 12.6489C18.9376 12.6516 18.9386 12.6542 18.9396 12.6569L23.3716 11.4172L21.121 8.20197ZM16.9323 13L15.8073 10H12.1933L11.0683 13H16.9323ZM9.06097 12.6569C9.06195 12.6542 9.06294 12.6516 9.06394 12.6489L10.2551 9.47238L6.44505 8.20236L4.53236 11.3902L9.06097 12.6569ZM8.62695 6.82147L10.2956 6H17.6762L19.1102 6.80504L15.8241 8H12.1625L8.62695 6.82147ZM10.8991 18.4846L6.4053 13.9908L9.25629 14.7883L10.8991 18.4846ZM14.0002 20.5378L11.539 15H16.4615L14.0002 20.5378ZM17.1014 18.4846L18.7442 14.7883L21.5952 13.9909L17.1014 18.4846Z" fill="#141414"/>
</svg>
