<svg width="28" height="28" viewBox="0 0 28 28" fill="none" xmlns="http://www.w3.org/2000/svg">
<path fill-rule="evenodd" clip-rule="evenodd" d="M15.4 5H12.6C10.8868 5 9.72226 5.00156 8.82208 5.0751C7.94525 5.14674 7.49684 5.27659 7.18404 5.43597C6.43139 5.81947 5.81947 6.43139 5.43597 7.18404C5.27659 7.49684 5.14674 7.94525 5.0751 8.82208C5.00156 9.72226 5 10.8868 5 12.6V15.4C5 17.1132 5.00156 18.2777 5.0751 19.1779C5.14674 20.0548 5.27659 20.5032 5.43597 20.816C5.81947 21.5686 6.43139 22.1805 7.18404 22.564C7.49684 22.7234 7.94525 22.8533 8.82208 22.9249C9.72226 22.9984 10.8868 23 12.6 23H15.4C17.1132 23 18.2777 22.9984 19.1779 22.9249C20.0548 22.8533 20.5032 22.7234 20.816 22.564C21.5686 22.1805 22.1805 21.5686 22.564 20.816C22.7234 20.5032 22.8533 20.0548 22.9249 19.1779C22.9984 18.2777 23 17.1132 23 15.4V12.6C23 10.8868 22.9984 9.72226 22.9249 8.82208C22.8533 7.94525 22.7234 7.49684 22.564 7.18404C22.1805 6.43139 21.5686 5.81947 20.816 5.43597C20.5032 5.27659 20.0548 5.14674 19.1779 5.0751C18.2777 5.00156 17.1132 5 15.4 5ZM3.65396 6.27606C3 7.55953 3 9.23969 3 12.6V15.4C3 18.7603 3 20.4405 3.65396 21.7239C4.2292 22.8529 5.14708 23.7708 6.27606 24.346C7.55953 25 9.23969 25 12.6 25H15.4C18.7603 25 20.4405 25 21.7239 24.346C22.8529 23.7708 23.7708 22.8529 24.346 21.7239C25 20.4405 25 18.7603 25 15.4V12.6C25 9.23969 25 7.55953 24.346 6.27606C23.7708 5.14708 22.8529 4.2292 21.7239 3.65396C20.4405 3 18.7603 3 15.4 3H12.6C9.23969 3 7.55953 3 6.27606 3.65396C5.14708 4.2292 4.2292 5.14708 3.65396 6.27606Z" fill="#141414"/>
<path d="M11 9.25C11 8.2835 10.2165 7.5 9.25 7.5C8.2835 7.5 7.5 8.2835 7.5 9.25C7.5 10.2165 8.2835 11 9.25 11C10.2165 11 11 10.2165 11 9.25Z" fill="#141414"/>
<path d="M15.75 14C15.75 13.0335 14.9665 12.25 14 12.25C13.0335 12.25 12.25 13.0335 12.25 14C12.25 14.9665 13.0335 15.75 14 15.75C14.9665 15.75 15.75 14.9665 15.75 14Z" fill="#141414"/>
<path d="M20.5 18.75C20.5 17.7835 19.7165 17 18.75 17C17.7835 17 17 17.7835 17 18.75C17 19.7165 17.7835 20.5 18.75 20.5C19.7165 20.5 20.5 19.7165 20.5 18.75Z" fill="#141414"/>
</svg>
