<svg width="28" height="28" viewBox="0 0 28 28" fill="none" xmlns="http://www.w3.org/2000/svg">
<path d="M17.1499 10.135C17.363 9.77985 17.2479 9.31916 16.8927 9.10605C16.5375 8.89294 16.0768 9.00812 15.8637 9.3633L10.7467 17.8918C10.5336 18.247 10.6487 18.7077 11.0039 18.9208C11.3591 19.1339 11.8198 19.0187 12.0329 18.6635L17.1499 10.135Z" fill="#141414"/>
<path fill-rule="evenodd" clip-rule="evenodd" d="M9.00024 10.9998C9.00024 9.89519 9.89567 8.99976 11.0002 8.99976C12.1048 8.99976 13.0002 9.89519 13.0002 10.9998V11.4998C13.0002 12.6043 12.1048 13.4998 11.0002 13.4998C9.89567 13.4998 9.00024 12.6043 9.00024 11.4998V10.9998ZM11.6702 10.9998V11.4998C11.6702 11.8698 11.3703 12.1698 11.0002 12.1698C10.6302 12.1698 10.3302 11.8698 10.3302 11.4998V10.9998C10.3302 10.6297 10.6302 10.3298 11.0002 10.3298C11.3703 10.3298 11.6702 10.6297 11.6702 10.9998Z" fill="#141414"/>
<path fill-rule="evenodd" clip-rule="evenodd" d="M17.0002 14.4998C15.8957 14.4998 15.0002 15.3952 15.0002 16.4998V16.9998C15.0002 18.1043 15.8957 18.9998 17.0002 18.9998C18.1048 18.9998 19.0002 18.1043 19.0002 16.9998V16.4998C19.0002 15.3952 18.1048 14.4998 17.0002 14.4998ZM17.6702 16.9998V16.4998C17.6702 16.1297 17.3703 15.8298 17.0002 15.8298C16.6302 15.8298 16.3302 16.1297 16.3302 16.4998V16.9998C16.3302 17.3698 16.6302 17.6698 17.0002 17.6698C17.3703 17.6698 17.6702 17.3698 17.6702 16.9998Z" fill="#141414"/>
<path fill-rule="evenodd" clip-rule="evenodd" d="M16.3768 3.00182C15.0874 1.66736 12.9486 1.66736 11.6592 3.00182L10.8984 3.78919C10.6248 4.07236 10.2361 4.21383 9.84451 4.17279L8.75559 4.05866C6.91008 3.86522 5.27171 5.23997 5.14173 7.09104L5.06504 8.18323C5.03746 8.57602 4.83064 8.93426 4.50426 9.15454L3.59674 9.76705C2.05866 10.8051 1.68727 12.9114 2.77755 14.4129L3.42085 15.2989C3.6522 15.6175 3.72403 16.0249 3.6156 16.4034L3.31412 17.456C2.80315 19.2399 3.87252 21.0921 5.67289 21.5415L6.73517 21.8067C7.11721 21.902 7.43409 22.1679 7.59435 22.5276L8.03996 23.5277C8.7952 25.2227 10.805 25.9542 12.473 25.1412L13.4572 24.6615C13.8112 24.489 14.2248 24.489 14.5788 24.6615L15.563 25.1412C17.2311 25.9542 19.2408 25.2227 19.9961 23.5277L20.4417 22.5276C20.6019 22.1679 20.9188 21.902 21.3008 21.8067L22.3631 21.5415C24.1635 21.0921 25.2329 19.2399 24.7219 17.456L24.4204 16.4034C24.312 16.0249 24.3838 15.6175 24.6152 15.2989L25.2585 14.4129C26.3487 12.9114 25.9774 10.8051 24.4393 9.76705L23.5318 9.15454C23.2054 8.93426 22.9985 8.57602 22.971 8.18323L22.8943 7.09104C22.7643 5.23997 21.1259 3.86522 19.2804 4.05866L18.1915 4.17279C17.7999 4.21383 17.4112 4.07236 17.1376 3.78919L16.3768 3.00182ZM13.0975 4.39155C13.6007 3.87079 14.4353 3.87079 14.9385 4.39155L15.6993 5.17892C16.4004 5.90453 17.3965 6.26707 18.4 6.16189L19.4889 6.04776C20.2091 5.97227 20.8485 6.50876 20.8992 7.23113L20.9759 8.32332C21.0466 9.32984 21.5766 10.2478 22.4129 10.8123L23.3204 11.4248C23.9206 11.8299 24.0656 12.6519 23.6401 13.2378L22.9968 14.1238C22.404 14.9403 22.2199 15.9842 22.4977 16.9541L22.7992 18.0067C22.9986 18.7029 22.5813 19.4257 21.8787 19.601L20.8164 19.8662C19.8375 20.1106 19.0255 20.792 18.6148 21.7136L18.1692 22.7137C17.8745 23.3752 17.0902 23.6606 16.4392 23.3434L15.455 22.8637C14.548 22.4216 13.488 22.4216 12.581 22.8637L11.5968 23.3434C10.9458 23.6606 10.1615 23.3752 9.86682 22.7137L9.4212 21.7136C9.01054 20.792 8.19854 20.1106 7.21958 19.8662L6.1573 19.601C5.45471 19.4257 5.0374 18.7029 5.2368 18.0067L5.53829 16.9541C5.81612 15.9842 5.63206 14.9403 5.03922 14.1238L4.39592 13.2378C3.97044 12.6519 4.11537 11.8299 4.7156 11.4248L5.62312 10.8123C6.45946 10.2478 6.98946 9.32984 7.06013 8.32332L7.13682 7.23113C7.18754 6.50876 7.8269 5.97227 8.54711 6.04776L9.63602 6.16189C10.6395 6.26707 11.6356 5.90453 12.3367 5.17892L13.0975 4.39155Z" fill="#141414"/>
</svg>
