<svg width="28" height="28" viewBox="0 0 28 28" fill="none" xmlns="http://www.w3.org/2000/svg">
<path d="M5 5.5V21.5C5 23.433 6.567 25 8.5 25H20.5C22.433 25 24 23.433 24 21.5V10.2461C24 9.76488 23.8265 9.29983 23.5114 8.93621L18.0981 2.69014C17.7182 2.25181 17.1668 2 16.5867 2H8.5C6.567 2 5 3.567 5 5.5ZM16.5975 4.59749L21.3906 9.39058C21.5273 9.52726 21.5273 9.74887 21.3906 9.88555C21.3237 9.95238 21.2327 9.98934 21.1382 9.98803L16.4931 9.92351C16.2196 9.91972 16 9.697 16 9.42356V4.84497C16 4.65168 16.1567 4.49497 16.35 4.49497C16.4428 4.49497 16.5318 4.53185 16.5975 4.59749Z" fill="#141414"/>
</svg>
