<svg width="28" height="28" viewBox="0 0 28 28" fill="none" xmlns="http://www.w3.org/2000/svg">
<path fill-rule="evenodd" clip-rule="evenodd" d="M15.0004 3.00244C15.0004 2.45016 14.5527 2.00244 14.0004 2.00244C13.4481 2.00244 13.0004 2.45016 13.0004 3.00244V4.00126C11.2429 4.13461 9.67297 4.61837 8.4629 5.37093C7.03579 6.25848 6.0001 7.60511 6.0001 9.24474C6.0001 10.1922 6.15276 11.5431 7.37956 12.7145C8.44606 13.7329 10.2021 14.4953 13.0004 14.8871V22.0001C10.1375 21.7691 8.56008 20.5522 7.83499 19.4524C7.531 18.9913 6.91078 18.8639 6.44968 19.1679C5.98859 19.4719 5.86124 20.0921 6.16523 20.5532C7.29493 22.2668 9.51841 23.7647 13.0004 24.0054V25.0008C13.0004 25.553 13.4481 26.0008 14.0004 26.0008C14.5527 26.0008 15.0004 25.553 15.0004 25.0008V24.0012C16.756 23.8674 18.3243 23.3838 19.5334 22.6319C20.9605 21.7443 21.9962 20.3977 21.9962 18.7581C21.9962 17.8106 21.8435 16.4597 20.6167 15.2883C19.5508 14.2705 17.796 13.5083 15.0004 13.1164V6.00308C17.8605 6.235 19.4366 7.45119 20.1613 8.55043C20.4653 9.01152 21.0855 9.13888 21.5466 8.83488C22.0077 8.53089 22.1351 7.91067 21.8311 7.44957C20.7018 5.73677 18.4798 4.2394 15.0004 3.99775V3.00244ZM13.0004 6.008C11.5777 6.13608 10.3823 6.53249 9.51913 7.06928C8.4522 7.73282 8.0001 8.52671 8.0001 9.24474C8.0001 9.95438 8.1074 10.6442 8.76074 11.268C9.37691 11.8564 10.5918 12.4951 13.0004 12.8657V6.008ZM15.0004 15.1378V21.9944C16.4211 21.8659 17.6149 21.4698 18.4772 20.9335C19.5441 20.27 19.9962 19.4761 19.9962 18.7581C19.9962 18.0484 19.8889 17.3586 19.2355 16.7348C18.6198 16.1468 17.406 15.5085 15.0004 15.1378Z" fill="#141414"/>
</svg>
