<svg width="28" height="28" viewBox="0 0 28 28" fill="none" xmlns="http://www.w3.org/2000/svg">
<path fill-rule="evenodd" clip-rule="evenodd" d="M3 9C3 6.23858 5.23858 4 8 4H16.5C17.8088 4 18.9219 4.83814 19.3317 6.00698C19.3872 6.00236 19.4433 6 19.5 6H20C21.3062 6 22.4175 6.83481 22.8293 8H25C25.5523 8 26 8.44772 26 9C26 9.55228 25.5523 10 25 10H22.8293C22.4175 11.1652 21.3062 12 20 12H19.5C19.4433 12 19.3872 11.9976 19.3317 11.993C18.9219 13.1619 17.8088 14 16.5 14H13.6579L12.1186 23H17C17.5523 23 18 23.4477 18 24C18 24.5523 17.5523 25 17 25H4C3.44772 25 3 24.5523 3 24C3 23.4477 3.44772 23 4 23H5.40724L7.25116 13.9443C4.84496 13.5829 3 11.5069 3 9ZM7.44828 23H10.0895L11.6289 14H9.28086L7.44828 23ZM16.5 12H8C6.34315 12 5 10.6569 5 9C5 7.34315 6.34315 6 8 6H16.5C17.0523 6 17.5 6.44772 17.5 7V11C17.5 11.5523 17.0523 12 16.5 12ZM21 9C21 8.44772 20.5523 8 20 8H19.5V10H20C20.5523 10 21 9.55228 21 9Z" fill="#141414"/>
</svg>
