<svg width="28" height="28" viewBox="0 0 28 28" fill="none" xmlns="http://www.w3.org/2000/svg">
<path fill-rule="evenodd" clip-rule="evenodd" d="M13.0365 3.24879C13.6367 2.9189 14.3639 2.91903 14.9639 3.24912L24.9594 8.74789C25.5919 9.09581 26.0002 9.77652 26.0002 10.5003V18.0003C26.0002 18.5525 25.5525 19.0003 25.0002 19.0003C24.4479 19.0003 24.0002 18.5525 24.0002 18.0003V12.7803L22.0002 13.8805V17.0416C22.0002 17.4666 22.0002 17.7265 21.9865 17.9531C21.7575 21.7387 18.7386 24.7576 14.953 24.9866C14.636 25.0058 14.3175 25.0004 14.0001 25.0002C13.6828 25.0004 13.3643 25.0057 13.0473 24.9866C9.26175 24.7576 6.24284 21.7387 6.01385 17.9531C6.00015 17.7265 6.00016 17.4665 6.00017 17.0414V13.884L3.0327 12.2529C1.65055 11.4932 1.65056 9.50727 3.03271 8.74756L13.0365 3.24879ZM8.00017 14.9834V17.0003C8.00017 17.4792 8.00063 17.6741 8.01021 17.8323C8.17813 20.6084 10.392 22.8223 13.1681 22.9902C13.3264 22.9998 13.5213 23.0003 14.0002 23.0003C14.4791 23.0003 14.674 22.9998 14.8323 22.9902C17.6083 22.8223 19.8222 20.6084 19.9901 17.8323C19.9997 17.6741 20.0002 17.4792 20.0002 17.0003V14.9808L14.9639 17.7514C14.3639 18.0815 13.6367 18.0816 13.0365 17.7517L8.00017 14.9834ZM13.9999 5.00147L3.99609 10.5002L13.9999 15.999L23.9954 10.5002L13.9999 5.00147Z" fill="#141414"/>
</svg>
