<svg width="28" height="28" viewBox="0 0 28 28" fill="none" xmlns="http://www.w3.org/2000/svg">
<path d="M4 12.6C4 9.23969 4 7.55953 4.65396 6.27606C5.2292 5.14708 6.14709 4.2292 7.27606 3.65396C8.55953 3 10.2397 3 13.6 3H14.4C17.7603 3 19.4405 3 20.7239 3.65396C21.7268 4.16494 22.7458 5.08841 23.3 6.17606C23.7949 7.14737 23.9767 8.15628 23.9963 10.4985C24.001 11.0507 23.5523 11.5 23 11.5C22.4471 11.5 21.9992 11.0528 21.9925 10.5C21.9885 10.1637 21.9828 9.86311 21.975 9.69084C21.964 9.44407 21.948 9.19751 21.9249 8.84161C21.8533 7.96478 21.7234 7.49684 21.564 7.18404C21.1805 6.43139 20.5686 5.81947 19.816 5.43597C19.5032 5.27659 19.0548 5.14674 18.1779 5.0751C17.2777 5.00156 16.1132 5 14.4 5H13.6C11.8868 5 10.7223 5.00156 9.82208 5.0751C8.94525 5.14674 8.49684 5.27659 8.18404 5.43597C7.43139 5.81947 6.81947 6.43139 6.43597 7.18404C6.2766 7.49684 6.14674 7.94525 6.0751 8.82208C6.00156 9.72226 6 10.8868 6 12.6V15.4C6 17.1132 6.00156 18.2777 6.0751 19.1779C6.14674 20.0548 6.2766 20.5032 6.43597 20.816C6.81947 21.5686 7.43139 22.1805 8.18404 22.564C8.49684 22.7234 8.94525 22.8533 9.82208 22.9249C10.4093 22.9729 11.6089 22.9902 12.5 22.9965V23C13.0523 23 13.5 23.4477 13.5 24C13.5 24.5523 13.0523 25 12.5 25C12.472 25 12.4443 24.9988 12.4168 24.9966C9.5 24.9966 8.329 24.8825 7.27606 24.346C6.14709 23.7708 5.2292 22.8529 4.65396 21.7239C4 20.4405 4 19 4 16.4V12.6Z" fill="#141414"/>
<path d="M8.6001 8.99998C8.6001 8.62772 8.6001 8.44159 8.64904 8.29096C8.74796 7.98652 8.98664 7.74784 9.29108 7.64892C9.44171 7.59998 9.62784 7.59998 10.0001 7.59998C10.3724 7.59998 10.5585 7.59998 10.7091 7.64892C11.0136 7.74784 11.2522 7.98652 11.3512 8.29096C11.4001 8.44159 11.4001 8.62772 11.4001 8.99998C11.4001 9.37223 11.4001 9.55836 11.3512 9.70899C11.2522 10.0134 11.0136 10.2521 10.7091 10.351C10.5585 10.4 10.3724 10.4 10.0001 10.4C9.62784 10.4 9.44171 10.4 9.29108 10.351C8.98664 10.2521 8.74796 10.0134 8.64904 9.70899C8.6001 9.55836 8.6001 9.37223 8.6001 8.99998Z" fill="#141414"/>
<path d="M16.649 8.29096C16.6001 8.44159 16.6001 8.62772 16.6001 8.99998C16.6001 9.37223 16.6001 9.55836 16.649 9.70899C16.748 10.0134 16.9866 10.2521 17.2911 10.351C17.4417 10.4 17.6278 10.4 18.0001 10.4C18.3724 10.4 18.5585 10.4 18.7091 10.351C19.0136 10.2521 19.2522 10.0134 19.3512 9.70899C19.4001 9.55836 19.4001 9.37223 19.4001 8.99998C19.4001 8.62772 19.4001 8.44159 19.3512 8.29096C19.2522 7.98652 19.0136 7.74784 18.7091 7.64892C18.5585 7.59998 18.3724 7.59998 18.0001 7.59998C17.6278 7.59998 17.4417 7.59998 17.2911 7.64892C16.9866 7.74784 16.748 7.98652 16.649 8.29096Z" fill="#141414"/>
<path d="M8.6001 14C8.6001 13.6277 8.6001 13.4416 8.64904 13.291C8.74796 12.9865 8.98664 12.7478 9.29108 12.6489C9.44171 12.6 9.62784 12.6 10.0001 12.6C10.3724 12.6 10.5585 12.6 10.7091 12.6489C11.0136 12.7478 11.2522 12.9865 11.3512 13.291C11.4001 13.4416 11.4001 13.6277 11.4001 14C11.4001 14.3722 11.4001 14.5584 11.3512 14.709C11.2522 15.0134 11.0136 15.2521 10.7091 15.351C10.5585 15.4 10.3724 15.4 10.0001 15.4C9.62784 15.4 9.44171 15.4 9.29108 15.351C8.98664 15.2521 8.74796 15.0134 8.64904 14.709C8.6001 14.5584 8.6001 14.3722 8.6001 14Z" fill="#141414"/>
<path d="M8.64904 18.291C8.6001 18.4416 8.6001 18.6277 8.6001 19C8.6001 19.3722 8.6001 19.5584 8.64904 19.709C8.74796 20.0134 8.98664 20.2521 9.29108 20.351C9.44171 20.4 9.62784 20.4 10.0001 20.4C10.3724 20.4 10.5585 20.4 10.7091 20.351C11.0136 20.2521 11.2522 20.0134 11.3512 19.709C11.4001 19.5584 11.4001 19.3722 11.4001 19C11.4001 18.6277 11.4001 18.4416 11.3512 18.291C11.2522 17.9865 11.0136 17.7478 10.7091 17.6489C10.5585 17.6 10.3724 17.6 10.0001 17.6C9.62784 17.6 9.44171 17.6 9.29108 17.6489C8.98664 17.7478 8.74796 17.9865 8.64904 18.291Z" fill="#141414"/>
<path fill-rule="evenodd" clip-rule="evenodd" d="M26 19C26 22.3137 23.3137 25 20 25C16.6863 25 14 22.3137 14 19C14 15.6863 16.6863 13 20 13C23.3137 13 26 15.6863 26 19ZM20 15C20.5523 15 21 15.4477 21 16V18H23C23.5523 18 24 18.4477 24 19C24 19.5523 23.5523 20 23 20H21V22C21 22.5523 20.5523 23 20 23C19.4477 23 19 22.5523 19 22V20H17C16.4477 20 16 19.5523 16 19C16 18.4477 16.4477 18 17 18H19V16C19 15.4477 19.4477 15 20 15Z" fill="#141414"/>
</svg>
