<svg width="28" height="28" viewBox="0 0 28 28" fill="none" xmlns="http://www.w3.org/2000/svg">
<path fill-rule="evenodd" clip-rule="evenodd" d="M9.51014 23.1603C7.49852 22.2583 5 20.5284 5 17.5C5 14.5 6.18454 13.2524 9 11C11.1707 9.26344 12.3719 7.60144 12.8083 5.27193C12.9379 4.58 13 3.82917 13 3C13 3 13.9467 3.47338 14.9314 4.51414C16.0463 5.69259 17.2098 7.59849 17.1025 10.3683C17.066 11.3105 16.8825 12.3526 16.5 13.5C16.5 13.5 17.7572 12.6299 19.043 11.2384C19.2749 10.9874 19.5078 10.7194 19.7344 10.4365C20.2048 9.84921 20.6482 9.19761 21 8.5C21 8.5 21.5076 9.36887 22.0109 10.7161C23.311 14.1961 24.5821 20.8678 17 24C17 24 14.3847 23.4188 13.1417 20.7058C12.7542 19.8601 12.5 18.8071 12.5 17.5C12.5 17.5 10.991 18.7085 11.153 21.14C11.1648 21.317 11.1854 21.5004 11.2161 21.6904C11.327 22.3757 11.5691 23.1455 12 24C12 24 10.8656 23.7681 9.51014 23.1603ZM12 24L11.5994 25.9595C12.3505 26.113 13.1233 25.8237 13.5889 25.2146C13.7168 25.0474 13.8153 24.8641 13.8838 24.672C14.4836 25.1096 15.0589 25.4044 15.5132 25.5979C15.7941 25.7175 16.0348 25.801 16.2153 25.8569C16.3057 25.8849 16.3817 25.9061 16.4408 25.9217C16.4704 25.9294 16.4958 25.9358 16.5168 25.9409L16.5449 25.9475L16.5564 25.9502L16.5615 25.9513L16.5639 25.9519C16.5639 25.9519 16.5661 25.9524 17 24L16.5661 25.9524C16.9665 26.0413 17.3846 26.0051 17.7636 25.8485C20.7619 24.6099 22.7175 22.8036 23.8336 20.6733C24.9331 18.5747 25.1167 16.3555 24.9351 14.4326C24.7538 12.5127 24.2002 10.7879 23.7103 9.56639C23.4628 8.94935 23.2251 8.4449 23.0463 8.08923C22.9567 7.91105 22.8813 7.76924 22.8262 7.66826C22.7986 7.61774 22.7761 7.57736 22.7593 7.54767L22.7385 7.51118L22.7315 7.49906L22.7289 7.49455L22.7278 7.49269C22.7278 7.49269 22.7269 7.49109 21 8.5L22.7269 7.49109C22.3571 6.85826 21.6709 6.47836 20.9383 6.50095C20.2058 6.52355 19.5442 6.94503 19.2142 7.59943C19.1285 7.76953 19.0349 7.93768 18.935 8.10338C18.6507 6.58629 18.0461 5.31387 17.3231 4.28652C16.5841 3.23629 15.7538 2.48473 15.1098 1.99453C14.7858 1.74787 14.5024 1.56245 14.2912 1.43415C14.1853 1.36986 14.0969 1.31949 14.0297 1.28257C13.996 1.2641 13.9676 1.24895 13.945 1.23708L13.9153 1.2217L13.9037 1.21582L13.8988 1.21334L13.8965 1.2122C13.8965 1.2122 13.8944 1.21115 13 3L13.8944 1.21115C13.2745 0.901159 12.5382 0.934287 11.9485 1.2987C11.3589 1.66311 11 2.30685 11 3C11 4.58412 10.7429 5.6889 10.2755 6.60171C9.80147 7.5277 9.03041 8.41442 7.75061 9.43826C6.36153 10.5495 5.1244 11.5985 4.28203 12.8574C3.36802 14.2232 3 15.695 3 17.5C3 21.1139 5.52933 23.2666 7.51419 24.391C8.53995 24.9721 9.54754 25.3585 10.2879 25.5992C10.6616 25.7207 10.9762 25.808 11.2029 25.8661C11.3165 25.8951 11.4086 25.9171 11.4757 25.9324C11.5093 25.9401 11.5367 25.9461 11.5574 25.9506L11.5836 25.9562L11.5928 25.9581L11.5964 25.9589L11.598 25.9592C11.598 25.9592 11.5994 25.9595 12 24Z" fill="#141414"/>
</svg>
