<svg width="28" height="28" viewBox="0 0 28 28" fill="none" xmlns="http://www.w3.org/2000/svg">
<path fill-rule="evenodd" clip-rule="evenodd" d="M14 24C19.5228 24 24 19.5228 24 14C24 8.47715 19.5228 4 14 4C8.47715 4 4 8.47715 4 14C4 19.5228 8.47715 24 14 24ZM14 26C20.6274 26 26 20.6274 26 14C26 7.37258 20.6274 2 14 2C7.37258 2 2 7.37258 2 14C2 20.6274 7.37258 26 14 26Z" fill="#141414"/>
<path fill-rule="evenodd" clip-rule="evenodd" d="M16.1595 13.6418L15.8407 13.5343C15.8521 13.5007 15.8627 13.4691 15.8728 13.4392C15.8469 13.4212 15.8195 13.4022 15.7903 13.382L14.0759 12.1952C14.0491 12.1766 14.0238 12.1591 14 12.1426C13.9762 12.1591 13.9509 12.1766 13.9241 12.1952L12.2097 13.382C12.1805 13.4022 12.1531 13.4212 12.1272 13.4392C12.1373 13.4691 12.1479 13.5007 12.1593 13.5343L12.791 15.4083C12.8018 15.4404 12.812 15.4706 12.8216 15.4991C12.8517 15.4991 12.8835 15.4991 12.9174 15.4991H15.0826C15.1165 15.4991 15.1483 15.4991 15.1784 15.4991C15.188 15.4706 15.1982 15.4404 15.209 15.4083L15.8407 13.5343L16.1595 13.6418C16.1595 13.6418 16.1595 13.6418 16.1595 13.6418ZM16.2421 13.7058C16.2421 13.7057 16.2417 13.7055 16.2411 13.7049ZM16.0098 13.0048C16.0098 13.0048 16.0097 13.0053 16.0095 13.0061ZM15.0321 15.9073C15.0318 15.9079 15.0321 15.9073 15.0321 15.9073ZM11.9902 13.0048C11.9902 13.0049 11.9903 13.0052 11.9905 13.006ZM11.7588 13.705C11.7582 13.7055 11.7579 13.7058 11.7579 13.7058ZM14.32 10.0364C14.5578 10.0952 14.7768 10.2468 15.2149 10.55L16.9292 11.7369C17.4027 12.0647 17.6395 12.2286 17.7824 12.4476C17.9085 12.6409 17.9823 12.8636 17.9966 13.094C18.0128 13.3549 17.9208 13.6278 17.7368 14.1735L17.1051 16.0475C16.9289 16.5699 16.8409 16.8312 16.6786 17.0242C16.5354 17.1947 16.3517 17.3266 16.1443 17.4079C15.9096 17.5 15.6339 17.5 15.0826 17.5H12.9174C12.3661 17.5 12.0904 17.5 11.8557 17.4079C11.6483 17.3266 11.4646 17.1947 11.3214 17.0242C11.1591 16.8312 11.0711 16.5699 10.8949 16.0475L10.2632 14.1735C10.0792 13.6278 9.98721 13.3549 10.0034 13.094C10.0177 12.8636 10.0915 12.6409 10.2176 12.4476C10.3605 12.2286 10.5973 12.0647 11.0708 11.7369L12.7851 10.55C13.2232 10.2468 13.4422 10.0952 13.68 10.0364C13.8902 9.98448 14.1098 9.98448 14.32 10.0364Z" fill="#141414"/>
<path fill-rule="evenodd" clip-rule="evenodd" d="M18.6593 4.69496L15.5242 7.42774C14.6431 8.19579 13.3297 8.19375 12.4509 7.42296L9.33857 4.69291L10.658 3.18867L13.7704 5.91872C13.8959 6.02884 14.0836 6.02913 14.2094 5.91941L17.3446 3.18662L18.6593 4.69496Z" fill="#141414"/>
<path fill-rule="evenodd" clip-rule="evenodd" d="M9.64643 20.652C9.62161 20.4534 9.42876 20.3213 9.23464 20.3698L5.35932 21.3387L4.87402 19.3975L8.74934 18.4286C10.1082 18.0889 11.4582 19.014 11.6319 20.4038L12.1121 24.2458L10.1267 24.494L9.64643 20.652Z" fill="#141414"/>
<path fill-rule="evenodd" clip-rule="evenodd" d="M18.3233 20.652C18.3481 20.4534 18.5409 20.3213 18.7351 20.3698L22.6104 21.3386L23.0957 19.3975L19.2204 18.4286C17.8615 18.0889 16.5115 19.0139 16.3378 20.4038L15.8576 24.2458L17.843 24.494L18.3233 20.652Z" fill="#141414"/>
<path fill-rule="evenodd" clip-rule="evenodd" d="M6.50714 6.81493L8.30123 10.6389C8.82408 11.7534 8.39169 13.0823 7.31317 13.6757L4.08277 15.4531L3.11822 13.7L6.34862 11.9226C6.50269 11.8379 6.56446 11.648 6.48977 11.4888L4.69568 7.6648L6.50714 6.81493Z" fill="#141414"/>
<path fill-rule="evenodd" clip-rule="evenodd" d="M21.493 6.81495L19.6989 10.639C19.176 11.7534 19.6084 13.0823 20.6869 13.6757L23.9173 15.4531L24.8819 13.7L21.6515 11.9227C21.4974 11.8379 21.4356 11.648 21.5103 11.4888L23.3044 7.66482L21.493 6.81495Z" fill="#141414"/>
</svg>
