<svg width="28" height="28" viewBox="0 0 28 28" fill="none" xmlns="http://www.w3.org/2000/svg">
<path d="M20 7C25.5 7 26 16 26 19C26 22 25.5 23 23.5 23C21.5 23 19.5 18 18 18H10C8.5 18 5.98891 23 4.5 23C2.5 23 2 22 2 19C2 16 2.5 7 8 7H20ZM8.9975 10H8.5025C8.22498 10 8 10.225 8 10.5025L7.999 11.75H6.7525C6.50581 11.75 6.30064 11.9278 6.2581 12.1622L6.25 12.2525V12.7475C6.25 13.025 6.47498 13.25 6.7525 13.25H7.999L8 14.4975C8 14.7442 8.17776 14.9494 8.41218 14.9919L8.5025 15H8.9975C9.27502 15 9.5 14.775 9.5 14.4975L9.499 13.25H10.7475C10.9942 13.25 11.1994 13.0722 11.2419 12.8378L11.25 12.7475V12.2525C11.25 11.975 11.025 11.75 10.7475 11.75H9.499L9.5 10.5025C9.5 10.2558 9.32224 10.0506 9.08782 10.0081L8.9975 10ZM19.4975 13.5H19.0025C18.725 13.5 18.5 13.725 18.5 14.0025V14.4975C18.5 14.775 18.725 15 19.0025 15H19.4975C19.775 15 20 14.775 20 14.4975V14.0025C20 13.725 19.775 13.5 19.4975 13.5ZM17.7475 11.75H17.2525C16.975 11.75 16.75 11.975 16.75 12.2525V12.7475C16.75 13.025 16.975 13.25 17.2525 13.25H17.7475C18.025 13.25 18.25 13.025 18.25 12.7475V12.2525C18.25 11.975 18.025 11.75 17.7475 11.75ZM21.2475 11.75H20.7525C20.475 11.75 20.25 11.975 20.25 12.2525V12.7475C20.25 13.025 20.475 13.25 20.7525 13.25H21.2475C21.525 13.25 21.75 13.025 21.75 12.7475V12.2525C21.75 11.975 21.525 11.75 21.2475 11.75ZM19.4975 10H19.0025C18.725 10 18.5 10.225 18.5 10.5025V10.9975C18.5 11.275 18.725 11.5 19.0025 11.5H19.4975C19.775 11.5 20 11.275 20 10.9975V10.5025C20 10.225 19.775 10 19.4975 10Z" fill="#141414"/>
</svg>
