<svg width="28" height="28" viewBox="0 0 28 28" fill="none" xmlns="http://www.w3.org/2000/svg">
<path fill-rule="evenodd" clip-rule="evenodd" d="M14 2C7.92487 2 3 6.92487 3 13V22.0792C3 22.6796 3.17773 23.2666 3.51079 23.7662C4.34025 25.0104 6.0086 25.3696 7.27663 24.5771L7.83897 24.2256C8.54288 23.7857 9.44161 23.8091 10.1216 24.2852L11.389 25.1723C12.9567 26.2697 15.0433 26.2697 16.611 25.1723L17.8784 24.2852C18.5584 23.8091 19.4571 23.7857 20.161 24.2256L20.7234 24.5771C21.9914 25.3696 23.6598 25.0104 24.4892 23.7662C24.8223 23.2666 25 22.6796 25 22.0792V13C25 6.92487 20.0751 2 14 2ZM11.5 12.751C11.5 11.7839 10.7165 11 9.75 11C8.7835 11 8 11.7839 8 12.751C8 13.718 8.7835 14.502 9.75 14.502C10.7165 14.502 11.5 13.718 11.5 12.751ZM17.2433 17.3142C16.8738 16.9034 16.2415 16.8701 15.831 17.2398C14.7972 18.1708 13.7661 18.1708 12.7159 17.6034C12.4455 17.4573 12.253 17.3155 12.169 17.2398L12.0705 17.1616C11.6627 16.8775 11.0977 16.935 10.7567 17.3142C10.3872 17.7249 10.4205 18.3576 10.831 18.7272C11.0248 18.9017 11.3415 19.1351 11.7656 19.3642C13.4932 20.2976 15.4251 20.2976 17.169 18.7272C17.5795 18.3576 17.6128 17.7249 17.2433 17.3142ZM20.169 12.264C19.1195 11.3225 17.9284 11.3225 16.8952 11.8786C16.6448 12.0134 16.4554 12.1524 16.331 12.264C15.9205 12.6322 15.8872 13.2625 16.2567 13.6717C16.5977 14.0494 17.1627 14.1067 17.5705 13.8237L17.669 13.7458C17.6835 13.7327 17.7487 13.6849 17.8455 13.6328C18.1657 13.4604 18.4329 13.4432 18.7306 13.6635L18.831 13.7458C19.2415 14.1141 19.8738 14.0809 20.2433 13.6717C20.6128 13.2625 20.5795 12.6322 20.169 12.264Z" fill="#141414"/>
</svg>
