<svg width="28" height="28" viewBox="0 0 28 28" fill="none" xmlns="http://www.w3.org/2000/svg">
<path d="M5 17H13V25H9.8C8.11984 25 7.27976 25 6.63803 24.673C6.07354 24.3854 5.6146 23.9265 5.32698 23.362C5 22.7202 5 21.8802 5 20.2V17Z" fill="#141414"/>
<path d="M15 17H23V20.2C23 21.8802 23 22.7202 22.673 23.362C22.3854 23.9265 21.9265 24.3854 21.362 24.673C20.7202 25 19.8802 25 18.2 25H15V17Z" fill="#141414"/>
<path fill-rule="evenodd" clip-rule="evenodd" d="M3.21799 10.092C3 10.5198 3 11.0799 3 12.2V13.4C3 13.9601 3 14.2401 3.10899 14.454C3.20487 14.6422 3.35785 14.7951 3.54601 14.891C3.75992 15 4.03995 15 4.6 15H13V9H6.2C5.0799 9 4.51984 9 4.09202 9.21799C3.71569 9.40973 3.40973 9.71569 3.21799 10.092ZM15 9V15H23.4C23.9601 15 24.2401 15 24.454 14.891C24.6422 14.7951 24.7951 14.6422 24.891 14.454C25 14.2401 25 13.9601 25 13.4V12.2C25 11.0799 25 10.5198 24.782 10.092C24.5903 9.71569 24.2843 9.40973 23.908 9.21799C23.4802 9 22.9201 9 21.8 9H15Z" fill="#141414"/>
<path d="M14.3437 8.99968C20.5608 8.95633 22.1243 4.59077 20.2663 2.73344C18.4196 0.88732 14.0941 2.42033 14.0007 8.542C13.9059 2.42033 9.5804 0.88732 7.73368 2.73344C5.84195 4.62454 7.49721 9.11591 14 8.99771L14.3437 8.99968Z" fill="#141414"/>
</svg>
