<svg width="28" height="28" viewBox="0 0 28 28" fill="none" xmlns="http://www.w3.org/2000/svg">
<path fill-rule="evenodd" clip-rule="evenodd" d="M22.0669 2.00219C22.6567 1.97539 23.2944 2.19407 23.7971 2.67408C24.8404 3.67022 25.1957 5.11016 24.8994 6.25323L21.4699 20.2185L21.4688 20.2229C20.848 22.7022 18.904 23.913 16.9452 24.479C15.0039 25.04 12.8665 25.0318 11.4547 24.9744C11.3475 24.9701 11.2382 24.9659 11.1272 24.9617C10.54 24.9394 9.90567 24.9153 9.30348 24.8502C8.58623 24.7727 7.82978 24.6301 7.15314 24.3168C6.45547 23.9938 5.83312 23.4839 5.4374 22.6954C5.05043 21.9244 4.92941 20.985 5.03811 19.8819C5.11851 19.066 5.4195 18.3751 5.96936 17.869C6.50274 17.378 7.17144 17.1523 7.82236 17.0584C9.08202 16.8766 10.6294 17.1459 11.9917 17.416C12.251 17.4674 12.5047 17.519 12.7523 17.5694C13.8942 17.8019 14.9053 18.0077 15.726 18.0385C16.2209 18.0571 16.5169 18.0028 16.6744 17.9327C16.7715 17.8895 16.7997 17.8577 16.8243 17.7531L16.8278 17.7388L20.4897 3.15382C20.496 3.12884 20.5032 3.10412 20.5114 3.0797C20.7731 2.29846 21.529 2.02663 22.0669 2.00219ZM22.1495 4.00091C22.1495 4.00089 22.1501 4.00074 22.1516 4.00058ZM22.3263 4.05188C22.355 4.06897 22.3853 4.09138 22.4159 4.12059C22.9475 4.62818 23.0742 5.32891 22.9627 5.75424L22.9588 5.76945L19.5287 19.7371C19.5285 19.7378 19.5283 19.7384 19.5282 19.7391C19.148 21.2538 17.9849 22.0968 16.39 22.5577C14.7768 23.0238 12.9127 23.032 11.5359 22.9761C11.4175 22.9713 11.3005 22.9668 11.185 22.9624C10.5971 22.9399 10.0449 22.9187 9.51835 22.8618C8.88951 22.7939 8.38212 22.6819 7.99341 22.5019C7.62574 22.3317 7.38125 22.1098 7.22489 21.7983C7.05977 21.4693 6.94347 20.9406 7.02847 20.078C7.07075 19.649 7.20422 19.4506 7.3239 19.3404C7.46005 19.2151 7.69595 19.0973 8.10799 19.0379C8.97424 18.9129 10.1862 19.097 11.6029 19.3778C11.8271 19.4222 12.0569 19.4692 12.2897 19.5169C13.432 19.7505 14.6493 19.9995 15.651 20.0371C16.2585 20.0599 16.9164 20.0141 17.4875 19.76C18.1168 19.48 18.5908 18.9661 18.7692 18.2196L22.3263 4.05188Z" fill="#141414"/>
<path d="M14 9.5C14 11.5 11.9853 12.5 9.5 12.5C7.01472 12.5 5 11.5 5 9.5C5 7.5 7.01472 6.5 9.5 6.5C11.9853 6.5 14 7.5 14 9.5Z" fill="#141414"/>
</svg>
