<svg width="28" height="28" viewBox="0 0 28 28" fill="none" xmlns="http://www.w3.org/2000/svg">
<path fill-rule="evenodd" clip-rule="evenodd" d="M14 26C20.6274 26 26 20.6274 26 14C26 7.37258 20.6274 2 14 2C7.37258 2 2 7.37258 2 14C2 20.6274 7.37258 26 14 26ZM14 20C13.4477 20 13 19.5523 13 19V13C13 12.4477 13.4477 12 14 12C14.5523 12 15 12.4477 15 13V19C15 19.5523 14.5523 20 14 20ZM14.0001 10.1999L13.8773 10.1937C13.2722 10.1322 12.8001 9.62126 12.8001 8.99999C12.8001 8.33731 13.3373 7.8001 14 7.8001L14.1227 7.80629C14.7278 7.86774 15.2 8.37873 15.2 8.99999C15.2 9.66268 14.6627 10.1999 14.0001 10.1999Z" fill="#141414"/>
<path fill-rule="evenodd" clip-rule="evenodd" d="M14 26C20.6274 26 26 20.6274 26 14C26 7.37258 20.6274 2 14 2C7.37258 2 2 7.37258 2 14C2 20.6274 7.37258 26 14 26ZM14 20C13.4477 20 13 19.5523 13 19V13C13 12.4477 13.4477 12 14 12C14.5523 12 15 12.4477 15 13V19C15 19.5523 14.5523 20 14 20ZM14.0001 10.1999L13.8773 10.1937C13.2722 10.1322 12.8001 9.62126 12.8001 8.99999C12.8001 8.33731 13.3373 7.8001 14 7.8001L14.1227 7.80629C14.7278 7.86774 15.2 8.37873 15.2 8.99999C15.2 9.66268 14.6627 10.1999 14.0001 10.1999Z" fill="#141414"/>
</svg>
