<svg width="28" height="28" viewBox="0 0 28 28" fill="none" xmlns="http://www.w3.org/2000/svg">
<path fill-rule="evenodd" clip-rule="evenodd" d="M7.7902 11.0368C8.05718 9.70385 9.44075 8.92493 10.7314 9.38094C12.6032 10.0423 14.3042 11.0585 15.7524 12.3474C16.7492 13.2345 16.7492 14.7692 15.7524 15.6563C14.3074 16.9424 12.6106 17.957 10.7437 18.6184C9.45592 19.0746 8.07369 18.3009 7.80192 16.9716C7.60384 16.0027 7.5 15.0006 7.5 13.9752C7.5 12.9703 7.59974 11.9876 7.7902 11.0368ZM9.75125 11.4296C9.776 11.306 9.90673 11.2107 10.0652 11.2667C11.6888 11.8404 13.1653 12.7222 14.4228 13.8414C14.4809 13.8932 14.5 13.9485 14.5 14.0019C14.5 14.0552 14.4809 14.1105 14.4228 14.1623C13.168 15.279 11.6953 16.1595 10.0758 16.7332C9.91765 16.7893 9.78663 16.6944 9.76139 16.571C9.5901 15.7331 9.5 14.8652 9.5 13.9752C9.5 13.1029 9.58655 12.2519 9.75125 11.4296Z" fill="#141414"/>
<path fill-rule="evenodd" clip-rule="evenodd" d="M16.0438 3C17.4068 2.99999 18.4908 2.99999 19.3654 3.07144C20.261 3.14462 21.0247 3.29768 21.7239 3.65396C22.8529 4.2292 23.7708 5.14709 24.346 6.27606C24.7023 6.97531 24.8554 7.73898 24.9286 8.63458C25 9.50914 25 10.5932 25 11.9562V16.0439C25 17.4069 25 18.4909 24.9286 19.3654C24.8554 20.261 24.7023 21.0247 24.346 21.7239C23.7708 22.8529 22.8529 23.7708 21.7239 24.346C21.0247 24.7023 20.261 24.8554 19.3654 24.9286C18.4909 25 17.4068 25 16.0438 25H11.9561C10.5931 25 9.50914 25 8.63458 24.9286C7.73898 24.8554 6.97531 24.7023 6.27606 24.346C5.14709 23.7708 4.2292 22.8529 3.65396 21.7239C3.29768 21.0247 3.14462 20.261 3.07144 19.3654C2.99999 18.4908 2.99999 17.4068 3 16.0438V11.9562C2.99999 10.5932 2.99999 9.50916 3.07144 8.63458C3.14462 7.73898 3.29768 6.97531 3.65396 6.27606C4.2292 5.14709 5.14709 4.2292 6.27606 3.65396C6.97531 3.29768 7.73898 3.14462 8.63458 3.07144C9.50916 2.99999 10.5932 2.99999 11.9562 3H16.0438ZM20.816 22.564C20.5066 22.7217 20.1268 22.831 19.5601 22.8994C19.8657 22.542 20.13 22.1479 20.346 21.7239C20.7023 21.0247 20.8554 20.261 20.9286 19.3654C21 18.4909 21 17.4068 21 16.0438V11.9561C21 10.5931 21 9.50914 20.9286 8.63458C20.8554 7.73898 20.7023 6.97531 20.346 6.27606C20.13 5.85215 19.8657 5.458 19.5601 5.10057C20.1268 5.16905 20.5066 5.27834 20.816 5.43597C21.5686 5.81947 22.1805 6.43139 22.564 7.18404C22.7527 7.55435 22.8721 8.02552 22.9352 8.79744C22.9992 9.58104 23 10.5834 23 12V16C23 17.4166 22.9992 18.419 22.9352 19.2026C22.8721 19.9745 22.7527 20.4457 22.564 20.816C22.1805 21.5686 21.5686 22.1805 20.816 22.564ZM8.79744 5.0648C9.58104 5.00078 10.5834 5 12 5C13.4166 5 14.419 5.00078 15.2026 5.0648C15.9745 5.12787 16.4457 5.24729 16.816 5.43597C17.5686 5.81947 18.1805 6.43139 18.564 7.18404C18.7527 7.55435 18.8721 8.02552 18.9352 8.79744C18.9992 9.58104 19 10.5834 19 12V16C19 17.4166 18.9992 18.419 18.9352 19.2026C18.8721 19.9745 18.7527 20.4457 18.564 20.816C18.1805 21.5686 17.5686 22.1805 16.816 22.564C16.4457 22.7527 15.9745 22.8721 15.2026 22.9352C14.419 22.9992 13.4166 23 12 23C10.5834 23 9.58104 22.9992 8.79744 22.9352C8.02552 22.8721 7.55435 22.7527 7.18404 22.564C6.43139 22.1805 5.81947 21.5686 5.43597 20.816C5.24729 20.4457 5.12787 19.9745 5.0648 19.2026C5.00078 18.419 5 17.4166 5 16V12C5 10.5834 5.00078 9.58104 5.0648 8.79744C5.12787 8.02552 5.24729 7.55435 5.43597 7.18404C5.81947 6.43139 6.43139 5.81947 7.18404 5.43597C7.55435 5.24729 8.02552 5.12787 8.79744 5.0648Z" fill="#141414"/>
</svg>
