<svg width="28" height="28" viewBox="0 0 28 28" fill="none" xmlns="http://www.w3.org/2000/svg">
<path fill-rule="evenodd" clip-rule="evenodd" d="M20.0587 24.8382C20.713 24.7423 21.246 24.5894 21.7239 24.3459C22.8529 23.7706 23.7708 22.8528 24.346 21.7238C25 20.4403 25 18.7602 25 15.3998V12.5998C25 9.23952 25 7.55937 24.346 6.27589C23.7708 5.14692 22.8529 4.22904 21.7239 3.6538C21.246 3.41026 20.713 3.25742 20.0587 3.16149C20.5275 3.6516 20.9254 4.21019 21.237 4.8219C21.6478 5.62811 21.8281 6.51526 21.9149 7.57762C22 8.61892 22 9.91287 22 11.5554V16.4443C22 18.0868 22 19.3808 21.9149 20.4221C21.8281 21.4844 21.6478 22.3716 21.237 23.1778C20.9254 23.7895 20.5275 24.3481 20.0587 24.8382ZM11.9864 24.9997C9.0302 24.9973 7.47892 24.9588 6.27606 24.3459C5.14708 23.7706 4.2292 22.8528 3.65396 21.7238C3 20.4403 3 18.7602 3 15.3998V12.5998C3 9.23952 3 7.55937 3.65396 6.27589C4.2292 5.14692 5.14708 4.22904 6.27606 3.6538C7.47892 3.04091 9.03021 3.00242 11.9864 3C13.3819 3.00112 14.4223 3.00987 15.2594 3.07826C16.198 3.15495 16.7927 3.30163 17.27 3.54481C18.2108 4.02417 18.9757 4.78908 19.455 5.72989C19.6982 6.20715 19.8449 6.80181 19.9216 7.74048C19.9992 8.69083 20 9.90318 20 11.5998V16.3998C20 18.0965 19.9992 19.3088 19.9216 20.2592C19.8449 21.1979 19.6982 21.7925 19.455 22.2698C18.9757 23.2106 18.2108 23.9755 17.27 24.4549C16.7927 24.698 16.198 24.8447 15.2594 24.9214C14.4223 24.9898 13.3819 24.9986 11.9864 24.9997ZM9.92732 10.7814C9.61424 10.6714 9.33465 10.8634 9.28309 11.1195C9.09749 12.0412 9 12.9951 9 13.9724C9 14.9696 9.10149 15.9424 9.29452 16.8816C9.34707 17.1373 9.62692 17.3282 9.93934 17.2181C11.7672 16.574 13.4286 15.5857 14.8436 14.333C15.0521 14.1484 15.0521 13.8553 14.8436 13.6707C13.4255 12.4153 11.7599 11.4255 9.92732 10.7814ZM10.5905 8.89456C9.15639 8.39055 7.61908 9.25146 7.32244 10.7247C7.11083 11.7757 7 12.8617 7 13.9724C7 15.1057 7.11538 16.2134 7.33547 17.2842C7.63744 18.7534 9.17324 19.6087 10.6041 19.1044C12.6785 18.3734 14.5637 17.2519 16.1693 15.8305C17.2769 14.85 17.2769 13.1538 16.1693 12.1733C14.5602 10.7487 12.6702 9.62548 10.5905 8.89456Z" fill="#141414"/>
</svg>
