<svg width="28" height="28" viewBox="0 0 28 28" fill="none" xmlns="http://www.w3.org/2000/svg">
<path fill-rule="evenodd" clip-rule="evenodd" d="M13.3003 3.19421C13.402 3.13505 13.6399 3.00684 13.9479 3.00684C14.2558 3.00684 14.4937 3.13505 14.5954 3.19421C14.7263 3.27042 14.8467 3.36358 14.9508 3.45364C15.1616 3.63594 15.3888 3.8779 15.6188 4.15712C16.0828 4.72031 16.6193 5.50954 17.1289 6.46691C17.5155 7.19323 17.8929 8.02832 18.2122 8.94772C18.9712 8.3927 19.744 8.01207 20.4225 7.76066C20.9999 7.54667 21.5256 7.42003 21.9398 7.36055C22.1439 7.33123 22.3423 7.31512 22.5181 7.31913C22.6037 7.32108 22.7117 7.32827 22.8247 7.3517L22.8275 7.35228C22.8941 7.36604 23.1667 7.42236 23.3959 7.65253C23.6735 7.93121 23.7569 8.29292 23.7901 8.46138C23.8335 8.68158 23.8512 8.92466 23.8554 9.1629C23.864 9.64449 23.8195 10.2278 23.7374 10.8271C23.6487 11.4755 23.5087 12.1948 23.3203 12.8719C23.3384 12.8721 23.3565 12.8724 23.3745 12.8726C24.2221 12.8851 24.9614 12.9648 25.5228 13.0654C25.802 13.1155 26.0505 13.173 26.2533 13.2349C26.3538 13.2656 26.4577 13.3017 26.555 13.3446C26.6265 13.3761 26.7936 13.4526 26.9434 13.595C27.1515 13.7928 27.2365 14.0244 27.274 14.166C27.3145 14.319 27.3259 14.4666 27.3265 14.5896C27.3279 14.8366 27.2859 15.1033 27.2198 15.368C27.0857 15.9051 26.8197 16.562 26.4007 17.2759C25.558 18.712 24.0637 20.4355 21.6339 21.9473L21.6226 21.9543L21.6111 21.9611C20.3102 22.723 18.6411 23.4738 17.2367 24.031C16.5313 24.3109 15.8791 24.5473 15.3584 24.7156C15.0989 24.7994 14.8628 24.8694 14.664 24.9195C14.4979 24.9614 14.2617 25.0155 14.0504 25.0155L14.0505 25.0089C14.0172 25.012 13.983 25.0137 13.9479 25.0137C13.8021 25.0137 13.672 24.9846 13.565 24.9478C13.4916 24.9313 13.4263 24.9139 13.3765 24.9006C13.193 24.8514 12.9672 24.7827 12.7135 24.6998C12.204 24.5333 11.5494 24.2987 10.8345 24.0198C9.41377 23.4657 7.70018 22.7157 6.39329 21.9524L6.38176 21.9456L6.3704 21.9386C3.93846 20.4295 2.4432 18.7086 1.60009 17.2745C1.18097 16.5615 0.914877 15.9055 0.780845 15.3691C0.71479 15.1047 0.672934 14.8382 0.674351 14.5915C0.675057 14.4687 0.686507 14.3212 0.727161 14.1684C0.764768 14.027 0.849888 13.7956 1.05834 13.5979C1.20835 13.4556 1.37566 13.3792 1.44729 13.3476C1.54474 13.3047 1.64876 13.2686 1.74934 13.2379C1.95241 13.176 2.20121 13.1184 2.48075 13.0684C2.94529 12.9851 3.53147 12.916 4.19996 12.8874C4.0093 12.2057 3.8679 11.4804 3.77848 10.8271C3.69644 10.2278 3.6519 9.64449 3.66049 9.1629C3.66475 8.92466 3.68236 8.68158 3.72579 8.46138C3.75901 8.29292 3.84241 7.93123 4.11997 7.65255C4.34921 7.42238 4.62179 7.36604 4.68837 7.35228L4.69118 7.3517C4.80421 7.32827 4.91224 7.32108 4.99776 7.31913C5.17359 7.31512 5.37198 7.33123 5.57614 7.36055C5.99035 7.42003 6.51598 7.54667 7.09345 7.76066C7.86207 8.04548 8.75166 8.49612 9.60521 9.17829C9.94024 8.16764 10.3481 7.25349 10.7668 6.46691C11.2764 5.50954 11.8129 4.72031 12.2769 4.15712C12.5069 3.8779 12.7341 3.63594 12.9449 3.45364C13.0491 3.36358 13.1694 3.27042 13.3003 3.19421ZM12.5323 7.40663C11.622 9.11682 10.7967 11.4557 10.7967 14.0103C10.7967 16.5633 11.6274 18.9017 12.5411 20.6127C12.9966 21.4658 13.462 22.1425 13.832 22.5928C13.8724 22.6421 13.9111 22.6879 13.9479 22.7302C13.9846 22.6879 14.0233 22.6421 14.0638 22.5928C14.4337 22.1425 14.8991 21.4658 15.3547 20.6127C16.2683 18.9017 17.099 16.5633 17.099 14.0103C17.099 11.4557 16.2737 9.11682 15.3634 7.40663C14.9094 6.55374 14.4453 5.878 14.0752 5.42879C14.0305 5.3745 13.988 5.32456 13.9479 5.27883C13.9077 5.32456 13.8652 5.3745 13.8205 5.42879C13.4505 5.878 12.9863 6.55374 12.5323 7.40663ZM16.8577 22.026C18.123 21.51 19.5189 20.8667 20.5949 20.2377C22.7485 18.8953 24.0073 17.4086 24.6809 16.2608C24.9658 15.7752 25.1405 15.3598 25.2365 15.0502C25.2147 15.0461 25.1924 15.042 25.1694 15.0378C24.719 14.9571 24.0875 14.8869 23.3428 14.876C22.0733 14.8574 20.5275 15.0118 19.0156 15.5402C18.761 17.8913 17.9601 19.9796 17.1189 21.5548C17.0324 21.7168 16.9451 21.8739 16.8577 22.026ZM19.0865 13.4186C19.8023 13.215 20.5103 13.0789 21.1872 12.9933C21.4358 12.3157 21.6423 11.4123 21.76 10.5529C21.8189 10.1225 21.8515 9.73119 21.8588 9.41442C21.6438 9.46476 21.3914 9.53816 21.1148 9.64068C20.3967 9.90677 19.5561 10.3534 18.7936 11.0564C18.948 11.8111 19.052 12.6017 19.0865 13.4186ZM10.7768 21.5548C10.8442 21.681 10.9121 21.8043 10.9801 21.9245C9.75015 21.4246 8.42353 20.8205 7.41127 20.2305C5.25579 18.8905 3.99621 17.406 3.32235 16.2598C3.03725 15.7748 2.86254 15.36 2.7666 15.0507C2.78837 15.0466 2.81074 15.0425 2.83372 15.0384C3.28469 14.9576 3.91699 14.8872 4.66254 14.876C5.90018 14.8574 7.40013 15.0025 8.87554 15.497C9.12497 17.8657 9.93051 19.9699 10.7768 21.5548ZM9.04114 11.3709C8.92218 12.0199 8.84138 12.6939 8.81058 13.3868C7.95018 13.1511 7.10283 13.0117 6.30903 12.9389C6.06918 12.2677 5.87045 11.3895 5.75595 10.5529C5.69702 10.1225 5.66436 9.73119 5.65706 9.41442C5.8721 9.46476 6.12447 9.53816 6.40113 9.64068C7.22093 9.94447 8.20047 10.4836 9.04114 11.3709ZM5.03595 9.32276C5.03594 9.32276 5.03551 9.32279 5.03595 9.32276ZM5.68689 8.83463C5.69048 8.81862 5.69291 8.81177 5.69323 8.81234C5.69354 8.81292 5.69175 8.82092 5.68689 8.83463ZM21.829 8.83463C21.8254 8.81862 21.823 8.81177 21.8227 8.81234C21.8224 8.81292 21.8242 8.82092 21.829 8.83463Z" fill="#141414"/>
</svg>
