<svg width="28" height="28" viewBox="0 0 28 28" fill="none" xmlns="http://www.w3.org/2000/svg">
<path fill-rule="evenodd" clip-rule="evenodd" d="M2.53663 13.4989C2.53663 7.83902 7.82565 3.5 14.0182 3.5C20.2108 3.5 25.4998 7.83902 25.4998 13.4989C25.4998 19.1589 20.2108 23.4979 14.0182 23.4979C12.6451 23.4979 11.3252 23.288 10.1002 22.9013C8.65538 24.2498 6.55607 24.898 3.98805 24.9989C2.94195 25.04 2.18689 23.9519 2.62492 22.978C3.24632 21.5866 4.04922 19.9915 4.14443 18.6002C3.12759 17.1195 2.53663 15.3721 2.53663 13.4989ZM14.0182 5.5C8.63315 5.5 4.53663 9.21891 4.53663 13.4989C4.53663 15.0359 5.05127 16.4778 5.95849 17.6996C6.08651 17.872 6.15563 18.081 6.15563 18.2957C6.15563 19.9295 5.50437 21.471 4.84121 22.9339C6.89728 22.7155 8.24611 22.0571 9.05946 21.1C9.33263 20.7786 9.77815 20.6631 10.1731 20.8114C11.3453 21.2516 12.6456 21.4979 14.0182 21.4979C19.4033 21.4979 23.4998 17.779 23.4998 13.4989C23.4998 9.21891 19.4033 5.5 14.0182 5.5Z" fill="#141414"/>
<path fill-rule="evenodd" clip-rule="evenodd" d="M18.2069 10.2929C18.5974 10.6834 18.5974 11.3166 18.2069 11.7071L13.2069 16.7071C12.8164 17.0976 12.1832 17.0976 11.7927 16.7071L9.79269 14.7071C9.40217 14.3166 9.40217 13.6834 9.79269 13.2929C10.1832 12.9024 10.8164 12.9024 11.2069 13.2929L12.4998 14.5858L16.7927 10.2929C17.1832 9.90237 17.8164 9.90237 18.2069 10.2929Z" fill="#141414"/>
</svg>
