<svg width="28" height="28" viewBox="0 0 28 28" fill="none" xmlns="http://www.w3.org/2000/svg">
<path d="M11 3C15.9706 3 20 6.45152 20 10.7092C20 14.9669 15.9706 18 11 18C9.98091 18 9.00139 17.8549 8.08803 17.5875C7.06743 18.3748 5.64478 19.4541 3.5 19.9877C3.39845 20.013 3.29102 19.9989 3.1996 19.9483C3.0013 19.8386 2.93025 19.5901 3.04091 19.3935L3.1944 19.1172C3.90667 17.8173 4.19077 16.7512 4.3673 15.9189C2.89689 14.5472 2 12.7179 2 10.7092C2 6.45152 6.02944 3 11 3Z" fill="#141414"/>
<path fill-rule="evenodd" clip-rule="evenodd" d="M11.0014 20C12.5929 21.259 14.7712 21.997 17.1738 21.997C18.1732 21.997 19.1338 21.8516 20.0295 21.5839L20.0387 21.5911C21.0388 22.3789 22.4047 23.4549 24.5016 23.9877C24.6012 24.013 24.7066 23.9989 24.7962 23.9482C24.9907 23.8383 25.0604 23.5895 24.9518 23.3925L24.8013 23.1158C24.1028 21.814 23.8515 20.7463 23.6784 19.9127C25.1204 18.5389 26 16.7068 26 14.695C26 11.8335 24.2205 9.33563 21.5767 8.00192C21.8514 8.85164 22 9.75804 22 10.7092C22 16.4799 16.6169 19.9994 11.0014 20Z" fill="#141414"/>
</svg>
