<svg width="28" height="28" viewBox="0 0 28 28" fill="none" xmlns="http://www.w3.org/2000/svg">
<path d="M19.6633 3.6379C19.6633 3.6379 21.9967 2.90842 21.9967 4.80506L21.996 10.475L22 10.4756V17.3317C22 21.6706 20.4551 22.6056 17.899 22.9492C16.5711 23.1277 14.5 22.4315 14.5 19.9091C14.5 18.677 15.5263 17.453 16.8073 17.2012C17.9954 16.9677 16.422 17.273 19.1097 16.7612C19.4705 16.6925 19.5052 16.467 19.5068 16.2004L19.506 15.8105C19.5058 15.3036 19.5052 14.108 19.5046 12.988L19.5 13V9.20307C19.5 8.92709 19.4147 8.79704 19.0976 8.87637L10.9253 10.4241C10.5698 10.513 10.5 10.6606 10.5 11V19.4561C10.5 23.795 8.95511 24.73 6.399 25.0736C5.07106 25.2521 3 24.5559 3 22.0335C3 20.8014 4.02631 19.5774 5.30732 19.3256C6.49535 19.0921 4.92201 19.3974 7.60969 18.8856C7.97048 18.8169 8.00525 18.5913 8.00681 18.3247L8.00604 17.9349C8.00588 17.5617 8.00549 16.8153 8.00504 16.0006L7.99667 16L7.9961 9.72242C7.99499 9.18748 7.99298 7.93 7.99667 7.22066C8.00237 6.12274 8.592 5.71924 10.33 5.36177C11.0719 5.22474 11.6283 5.12197 11.9993 5.05346C13.7024 4.73889 16.2571 4.26703 19.6633 3.6379Z" fill="#141414"/>
</svg>
