<svg width="28" height="28" viewBox="0 0 28 28" fill="none" xmlns="http://www.w3.org/2000/svg">
<path d="M10.9999 16.9302V19.3936C10.9999 24.0815 6.41738 26.4933 3.92711 24.003C1.43683 21.5128 3.84869 16.9302 8.53654 16.9302H10.9999ZM8.99992 18.9302H8.53654C5.52243 18.9302 4.1984 21.4459 5.34132 22.5888C6.48425 23.7318 8.99992 22.4077 8.99992 19.3936V18.9302ZM19.3881 3.52265C21.0101 3.18472 22.5989 4.2257 22.9369 5.84773C22.9788 6.04898 22.9999 6.25401 22.9999 6.45959V16.8936C22.9999 21.5815 18.4174 23.9933 15.9271 21.503C13.4368 19.0128 15.8487 14.4302 20.5365 14.4302L20.9992 14.43V9.72898L10.9992 11.812L10.9999 18H8.99992V8.91674C8.99992 7.97363 9.07854 7.48677 9.31314 6.96261C9.5351 6.46666 9.8725 6.05173 10.3128 5.73328C10.7781 5.39671 11.2386 5.22044 12.1619 5.02809L19.3881 3.52265ZM20.9999 16.4302H20.5365C17.5224 16.4302 16.1984 18.9459 17.3413 20.0888C18.4842 21.2318 20.9999 19.9077 20.9999 16.8936V16.4302ZM20.9789 6.25563C20.8663 5.71496 20.3366 5.36797 19.796 5.48061L12.5698 6.98605C11.899 7.12581 11.689 7.20619 11.4849 7.35378C11.3292 7.46641 11.2171 7.60422 11.1386 7.77963C11.0358 8.0095 10.9999 8.23148 10.9999 8.91674L10.9992 9.76998L20.9992 7.68698L20.9999 6.45959C20.9999 6.42533 20.9982 6.39111 20.9946 6.35707L20.9789 6.25563Z" fill="#141414"/>
</svg>
