<svg width="28" height="28" viewBox="0 0 28 28" fill="none" xmlns="http://www.w3.org/2000/svg">
<path fill-rule="evenodd" clip-rule="evenodd" d="M24.1133 19.0886C24.7542 18.2083 24.9932 17.2344 25.0003 16.1577C25.0003 13.8615 23.1387 12 20.8424 12C19.8717 12.0251 18.9501 12.2775 18.1374 12.8238L18.0003 12.92L17.8631 12.8238C17.0529 12.2792 16.1447 12 15.1582 12C12.8618 12 11.0003 13.8615 11.0003 16.1577C10.9933 17.2294 11.251 18.2156 11.8867 19.0886C12.5533 20.0042 13.6648 20.9867 15.4424 22.387L17.0889 23.684C17.6238 24.1054 18.3762 24.1054 18.9111 23.684L20.5576 22.387C22.3352 20.9867 23.4467 20.0042 24.1133 19.0886Z" fill="#141414"/>
<path fill-rule="evenodd" clip-rule="evenodd" d="M7.64753 3.47394L11.0115 2.57258C11.789 2.36423 12.4307 2.19227 12.9649 2.09491C13.5197 1.99378 14.0444 1.95526 14.5772 2.06851C15.4034 2.24414 16.1529 2.67683 16.7181 3.30458C17.0826 3.70937 17.3115 4.18296 17.5013 4.71402C17.6841 5.22533 17.8561 5.86706 18.0644 6.64462L18.7446 9.18333C18.8876 9.71679 18.571 10.2651 18.0375 10.4081C17.5041 10.551 16.9557 10.2344 16.8128 9.70097L16.1432 7.20213C15.9215 6.37474 15.7701 5.81248 15.6181 5.38725C15.47 4.97304 15.3493 4.77328 15.2318 4.64284C14.9492 4.32896 14.5745 4.11262 14.1613 4.0248C13.9896 3.98831 13.7563 3.98362 13.3235 4.06249C12.8793 4.14347 12.3166 4.29342 11.4892 4.51512L8.20506 5.39511C7.37767 5.61681 6.81541 5.76827 6.39018 5.92028C5.97597 6.06835 5.77621 6.18909 5.64577 6.30654C5.33189 6.58916 5.11555 6.96388 5.02773 7.37701C4.99124 7.54871 4.98655 7.78207 5.06542 8.21482C5.14639 8.65909 5.29635 9.22174 5.51805 10.0491L8.20977 20.0948C8.43147 20.9222 8.58293 21.4844 8.73494 21.9096C8.88301 22.3238 9.00375 22.5236 9.12121 22.6541C9.40382 22.9679 9.77854 23.1843 10.1917 23.2721C10.5285 23.3437 10.9777 23.2814 12.2832 22.9366C12.8172 22.7956 13.3644 23.1142 13.5054 23.6482C13.6464 24.1821 13.3279 24.7293 12.7939 24.8703C11.6103 25.1829 10.6679 25.418 9.77585 25.2284C8.94959 25.0528 8.20014 24.6201 7.63492 23.9923C7.27044 23.5875 7.0415 23.1139 6.85166 22.5829C6.66887 22.0716 6.49694 21.4298 6.28861 20.6523L3.57551 10.5269C3.36716 9.74934 3.1952 9.10762 3.09784 8.57343C2.99671 8.01859 2.95819 7.49399 3.07144 6.96119C3.24706 6.13493 3.67976 5.38548 4.30751 4.82025C4.7123 4.45577 5.18589 4.22684 5.71695 4.03699C6.22826 3.85421 6.86998 3.68227 7.64753 3.47394Z" fill="#141414"/>
</svg>
