<svg width="28" height="28" viewBox="0 0 28 28" fill="none" xmlns="http://www.w3.org/2000/svg">
<path fill-rule="evenodd" clip-rule="evenodd" d="M16.4129 3.97346C17.0647 3.31922 17.9817 2.86516 18.9939 3.03554C20.0115 3.20682 20.7217 3.94095 21.1055 4.7812C21.4904 5.62398 21.5992 6.65904 21.4074 7.69759C21.2155 8.73654 20.7435 9.66779 20.0872 10.3266C19.4355 10.9808 18.5185 11.4349 17.5063 11.2645C16.4886 11.0932 15.7785 10.3591 15.3947 9.51888C15.0097 8.67609 14.9009 7.64103 15.0927 6.60249C15.2846 5.56354 15.7567 4.63229 16.4129 3.97346ZM17.8299 5.38494C17.4902 5.72592 17.1867 6.27694 17.0595 6.96575C16.9322 7.65495 17.0211 8.26599 17.2139 8.68789C17.4077 9.11233 17.6552 9.26147 17.8382 9.29228C18.0267 9.324 18.326 9.26071 18.6702 8.91513C19.0099 8.57415 19.3134 8.02313 19.4407 7.33432C19.568 6.64512 19.479 6.03408 19.2863 5.61218C19.0924 5.18774 18.8449 5.0386 18.6619 5.00779C18.4735 4.97607 18.1741 5.03937 17.8299 5.38494Z" fill="#141414"/>
<path fill-rule="evenodd" clip-rule="evenodd" d="M10.8078 13.6269C11.5458 12.7185 12.5564 12 14.0001 12C15.4464 12 16.4569 12.7248 17.1932 13.6335C17.8038 14.3869 18.2868 15.3466 18.7151 16.1976C18.7749 16.3163 18.8336 16.4329 18.8914 16.5465C19.2402 17.232 19.5763 17.7664 19.8908 18.2666C20.007 18.4514 20.1205 18.6319 20.2304 18.8132C20.6054 19.432 21.0003 20.1531 21.0001 20.9966C21 21.681 20.8327 22.2795 20.4863 22.7657C20.1424 23.2484 19.6812 23.5375 19.2352 23.7097C18.4641 24.0075 17.5863 24.0029 17.111 24.0004C17.0711 24.0002 17.034 24 17.0001 24C16.4598 24 16.0292 23.9247 15.6483 23.8582L15.5186 23.8356C15.1113 23.7658 14.6723 23.7 14.0001 23.7C13.3278 23.7 12.8889 23.7658 12.4816 23.8356L12.3519 23.8582C11.971 23.9247 11.5404 24 11.0001 24L10.9973 24L10.7849 23.9994L10.7797 23.9994C10.2583 23.9952 9.36089 23.9695 8.57676 23.6012C8.16365 23.4071 7.75347 23.1059 7.45171 22.6444C7.14841 22.1805 7.00012 21.6242 7.00012 20.9964C7.00012 20.1848 7.40177 19.4608 7.76722 18.8506C7.87173 18.6761 7.97995 18.5011 8.09129 18.3211C8.40951 17.8065 8.75307 17.251 9.10749 16.5492C9.16092 16.4434 9.21507 16.3352 9.27008 16.2253C9.7028 15.3605 10.1894 14.3882 10.8078 13.6269ZM11.0545 17.1295C11.0016 17.2347 10.9478 17.3418 10.8928 17.4508C10.4954 18.2376 10.0865 18.8984 9.76101 19.4245C9.65927 19.589 9.5656 19.7403 9.48303 19.8782C9.09848 20.5203 9.00012 20.8044 9.00012 20.9964C9.00012 21.3037 9.06962 21.4642 9.12565 21.5499C9.18322 21.6379 9.27393 21.719 9.42705 21.7909C9.7748 21.9543 10.2701 21.9951 10.7931 21.9994L10.7956 21.9994L11.0001 22H11.0015C11.3603 21.9999 11.6268 21.9538 12.016 21.8864L12.1437 21.8644C12.6113 21.7842 13.1723 21.7 14.0001 21.7C14.8278 21.7 15.3889 21.7842 15.8565 21.8644L15.9842 21.8864C16.3739 21.9538 16.6406 22 17.0001 22L17.0396 22C17.5872 22.0001 18.1104 22.0002 18.5147 21.844C18.6936 21.7749 18.7949 21.6929 18.8574 21.6053C18.9173 21.5211 19.0001 21.35 19.0001 20.9962C19.0002 20.7632 18.8951 20.4687 18.52 19.8497C18.4359 19.711 18.3396 19.5579 18.2344 19.3907C17.9108 18.8763 17.5029 18.2278 17.1089 17.4535C17.0464 17.3308 16.9856 17.2104 16.9259 17.0923C16.4814 16.2129 16.1039 15.4659 15.6394 14.8926C15.1531 14.2926 14.6637 14 14.0001 14C13.334 14 12.8447 14.2915 12.3601 14.888C11.8896 15.4672 11.5071 16.2284 11.0545 17.1295Z" fill="#141414"/>
<path fill-rule="evenodd" clip-rule="evenodd" d="M12.9074 6.60249C12.7155 5.56354 12.2435 4.63229 11.5872 3.97346C10.9355 3.31922 10.0185 2.86516 9.00626 3.03554C7.98863 3.20682 7.27848 3.94095 6.89467 4.7812C6.50969 5.62398 6.40091 6.65904 6.59274 7.69759C6.78463 8.73654 7.25667 9.66779 7.91295 10.3266C8.56466 10.9809 9.48167 11.4349 10.4939 11.2645C11.5115 11.0933 12.2217 10.3591 12.6055 9.51888C12.9904 8.67609 13.0992 7.64103 12.9074 6.60249ZM9.33823 5.00779C9.52667 4.97607 9.826 5.03937 10.1702 5.38494C10.5099 5.72592 10.8134 6.27695 10.9407 6.96575C11.068 7.65496 10.979 8.26599 10.7863 8.68789C10.5924 9.11233 10.3449 9.26147 10.1619 9.29228C9.97346 9.324 9.67413 9.26071 9.3299 8.91514C8.99023 8.57415 8.68669 8.02313 8.55947 7.33432C8.43217 6.64512 8.52114 6.03408 8.71386 5.61218C8.90774 5.18774 9.15522 5.0386 9.33823 5.00779Z" fill="#141414"/>
<path fill-rule="evenodd" clip-rule="evenodd" d="M5.63505 10.4409C6.39055 10.8692 7.05159 11.5791 7.48798 12.4513C7.92375 13.3224 8.09155 14.2688 7.95232 15.1179C7.81266 15.9696 7.33811 16.8036 6.4382 17.1948C5.55501 17.5787 4.61209 17.3827 3.86509 16.9592C3.10959 16.5309 2.44855 15.8211 2.01216 14.9488C1.57639 14.0777 1.40859 13.1313 1.54782 12.2822C1.68748 11.4305 2.16203 10.5965 3.06194 10.2053C3.94513 9.82147 4.88805 10.0174 5.63505 10.4409ZM4.64866 12.1807C4.2617 11.9614 3.99417 11.9809 3.85918 12.0396C3.7409 12.091 3.58233 12.2346 3.52146 12.6058C3.46016 12.9797 3.52442 13.5015 3.80082 14.054C4.07661 14.6052 4.47302 15.0048 4.85148 15.2194C5.23844 15.4388 5.50597 15.4192 5.64096 15.3605C5.75924 15.3091 5.91781 15.1655 5.97868 14.7943C6.03998 14.4204 5.97572 13.8987 5.69932 13.3462C5.42353 12.7949 5.02712 12.3953 4.64866 12.1807Z" fill="#141414"/>
<path fill-rule="evenodd" clip-rule="evenodd" d="M24.9746 10.2354C24.0562 9.7919 23.0773 10.0254 22.3254 10.499C21.5671 10.9767 20.9185 11.7578 20.4947 12.699C20.0706 13.641 19.9138 14.6493 20.0454 15.5415C20.1751 16.4197 20.6174 17.3257 21.5258 17.7644C22.4441 18.2079 23.4231 17.9744 24.1749 17.5007C24.9332 17.0231 25.5818 16.242 26.0056 15.3008C26.4297 14.3588 26.5865 13.3505 26.4549 12.4583C26.3253 11.58 25.8829 10.6741 24.9746 10.2354ZM22.3184 13.5201C22.6068 12.8796 23.0157 12.4279 23.3914 12.1913C23.7735 11.9506 24.0049 11.9881 24.1048 12.0364C24.2147 12.0894 24.4054 12.2697 24.4763 12.7503C24.5452 13.2169 24.4699 13.8399 24.1819 14.4797C23.8935 15.1202 23.4846 15.5718 23.1089 15.8085C22.7269 16.0492 22.4954 16.0116 22.3955 15.9634C22.2857 15.9103 22.0949 15.73 22.024 15.2495C21.9551 14.7828 22.0304 14.1598 22.3184 13.5201Z" fill="#141414"/>
</svg>
