<svg width="28" height="28" viewBox="0 0 28 28" fill="none" xmlns="http://www.w3.org/2000/svg">
<path fill-rule="evenodd" clip-rule="evenodd" d="M6.51628 21.4873L7.98642 23.7593C8.65933 24.7992 9.95059 25.2522 11.1257 24.8605C12.371 24.4454 13.1412 23.1991 12.9556 21.8996L12.7255 20.2888C13.1423 20.0034 13.5741 19.6865 14.0155 19.3425L16.2145 22.484C17.0678 23.703 18.6854 24.113 20.0163 23.4476C21.2272 22.8422 21.883 21.5013 21.6175 20.1738L20.2769 13.4705L21.9495 11.7979C23.0897 10.6577 24.0048 9.37803 24.5235 8.16768C24.7805 7.56799 24.9827 6.88705 25.0021 6.19128C25.0217 5.48971 24.8515 4.58292 24.136 3.8675C23.4206 3.15207 22.5138 2.98189 21.8123 3.00147C21.1165 3.02088 20.4356 3.22304 19.8359 3.48005C18.6255 3.99877 17.3459 4.91386 16.2057 6.05405L14.533 7.72671L7.82978 6.38611C6.50243 6.12065 5.1616 6.77636 4.55615 7.98705C3.89055 9.31799 4.30047 10.9357 5.51957 11.789L8.66103 13.9881C8.31707 14.4294 8.00013 14.8613 7.71477 15.2781L6.10391 15.048C4.80444 14.8623 3.55815 15.6325 3.14305 16.8778C2.75135 18.053 3.20431 19.3442 4.24425 20.0171L6.51628 21.4873ZM7.67475 19.8547C7.7822 19.9242 7.83593 19.959 7.88439 19.9999C7.92744 20.0362 7.96734 20.0761 8.00366 20.1191C8.04456 20.1676 8.07933 20.2213 8.14886 20.3288L9.66556 22.6728C9.84298 22.947 10.1834 23.0664 10.4932 22.9631C10.8216 22.8537 11.0246 22.5251 10.9757 22.1825L10.7161 20.3654C10.6607 19.9778 10.6331 19.784 10.6657 19.6177C10.6965 19.4611 10.7504 19.3396 10.846 19.2118C10.9475 19.076 11.1252 18.9562 11.4808 18.7165C11.9685 18.3877 12.4898 18.0032 13.0332 17.5702C13.543 17.164 13.7979 16.961 14.0436 16.9155C14.2668 16.8742 14.4763 16.9045 14.6786 17.0073C14.9014 17.1206 15.0796 17.3751 15.4359 17.8841L17.853 21.3371C18.1378 21.744 18.6777 21.8808 19.1219 21.6587C19.5261 21.4567 19.745 21.0091 19.6564 20.566L18.2737 13.6528C18.2123 13.3458 18.1816 13.1923 18.1961 13.0445C18.2089 12.9137 18.2473 12.7867 18.3093 12.6707C18.3792 12.5397 18.4899 12.429 18.7113 12.2077L20.5353 10.3837C22.5479 8.371 23.5269 6.08678 22.7218 5.28171C21.9168 4.47664 19.6325 5.4556 17.6199 7.46826L15.7958 9.2923C15.5745 9.51367 15.4638 9.62435 15.3328 9.69431C15.2168 9.75625 15.0898 9.79471 14.959 9.8075C14.8112 9.82195 14.6577 9.79125 14.3507 9.72985L7.43756 8.34727C6.99453 8.25867 6.54702 8.47752 6.34494 8.88161C6.12278 9.32583 6.2596 9.86575 6.66649 10.1506L10.1194 12.5676C10.6285 12.924 10.883 13.1021 10.9962 13.3249C11.099 13.5272 11.1293 13.7368 11.0881 13.9599C11.0426 14.2057 10.8395 14.4606 10.4333 14.9703C10.0003 15.5137 9.6158 16.0351 9.28707 16.5227C9.04737 16.8783 8.92752 17.0561 8.79172 17.1576C8.66391 17.2531 8.54241 17.3071 8.38584 17.3378C8.21949 17.3705 8.02571 17.3428 7.63814 17.2874L5.82105 17.0278C5.47844 16.9789 5.14986 17.182 5.04042 17.5103C4.93714 17.8201 5.05657 18.1606 5.33075 18.338L7.67475 19.8547Z" fill="#141414"/>
</svg>
