<svg width="28" height="28" viewBox="0 0 28 28" fill="none" xmlns="http://www.w3.org/2000/svg">
<path d="M21.65 11.9214C22.8314 12.6034 23.4221 12.9445 23.6203 13.3897C23.7932 13.7781 23.7932 14.2216 23.6203 14.6099C23.4221 15.0552 22.8314 15.3962 21.65 16.0783L11.6 21.8807C10.4186 22.5627 9.82792 22.9038 9.34321 22.8528C8.92042 22.8084 8.53635 22.5866 8.28648 22.2427C8 21.8484 8 21.1663 8 19.8022L8 8.19745C8 6.8333 8 6.15122 8.28648 5.75693C8.53635 5.413 8.92042 5.19126 9.34321 5.14682C9.82792 5.09588 10.4186 5.43691 11.6 6.11899L21.65 11.9214Z" fill="#141414"/>
</svg>
