<svg width="28" height="28" viewBox="0 0 28 28" fill="none" xmlns="http://www.w3.org/2000/svg">
<path d="M20.3251 8.19785C20.4235 8.74279 20.9503 9.1057 21.5017 9.00845C22.0531 8.9112 22.4204 8.3906 22.322 7.84567C22.0096 6.11593 21.7713 4.87748 21.0666 3.9534C20.4222 3.10821 19.5234 2.48634 18.4993 2.17692C17.8546 1.98213 17.193 1.96936 16.4545 2.03744C15.7373 2.10355 14.8642 2.25569 13.7817 2.44432L8.50237 3.36426C7.41986 3.55288 6.54674 3.70501 5.84988 3.8853C5.13239 4.07093 4.51512 4.30653 3.97668 4.7075C3.12141 5.3444 2.49213 6.23252 2.17902 7.24458C1.98775 7.86284 1.97 8.49628 2.03187 9.19942C2.09271 9.8909 2.23907 10.7254 2.42221 11.7529C2.51938 12.2981 3.04534 12.6622 3.59699 12.5661C4.14864 12.4701 4.51707 11.9503 4.4199 11.4052C4.23204 10.3512 4.10422 9.61144 4.05269 9.02578C4.00218 8.45179 4.03388 8.10525 4.11883 7.83065C4.3067 7.22342 4.68427 6.69054 5.19743 6.3084C5.43684 6.13012 5.76788 5.97863 6.36362 5.8245C6.97085 5.66739 7.76209 5.52873 8.89735 5.33091L14.0912 4.42588C15.2264 4.22807 16.0179 4.09094 16.6429 4.03332C17.2561 3.9768 17.6196 4.00727 17.9063 4.09388C18.5207 4.27953 19.06 4.65266 19.4467 5.15977C19.7992 5.62206 19.9856 6.31793 20.3251 8.19785Z" fill="#141414"/>
<path d="M14.8617 14.57C14.7904 14.5037 14.7012 14.4596 14.6052 14.4433C14.333 14.3969 14.0747 14.5801 14.0284 14.8523L13.1594 19.9571C13.1438 20.0485 13.154 20.1425 13.1888 20.2285C13.2923 20.4845 13.5838 20.608 13.8398 20.5045L18.2721 18.7116C18.34 18.6842 18.401 18.6421 18.4509 18.5885C18.6389 18.3862 18.6273 18.0699 18.425 17.8819L14.8617 14.57Z" fill="#141414"/>
<path fill-rule="evenodd" clip-rule="evenodd" d="M25.5001 19.5742L25.5504 19.2923C25.7413 18.2226 25.8952 17.3597 25.9621 16.6509C26.031 15.9212 26.0181 15.2674 25.821 14.6302C25.5079 13.6182 24.8786 12.7301 24.0233 12.0932C23.4849 11.6922 22.8676 11.4566 22.1501 11.271C21.4533 11.0907 20.5801 10.9385 19.4976 10.7499L14.2183 9.82999C13.1358 9.64135 12.2627 9.48921 11.5455 9.42309C10.807 9.35502 10.1454 9.36778 9.50067 9.56258C8.47655 9.87199 7.57784 10.4939 6.93335 11.3391C6.52761 11.8712 6.28919 12.4812 6.10135 13.1902C5.91892 13.8788 5.76499 14.7416 5.57415 15.8112L5.5238 16.0934C5.33293 17.1631 5.17895 18.026 5.11205 18.7347C5.04317 19.4645 5.05609 20.1183 5.2532 20.7554C5.56631 21.7675 6.19559 22.6556 7.05086 23.2925C7.5893 23.6935 8.20656 23.9291 8.92406 24.1147C9.62092 24.295 10.494 24.4471 11.5766 24.6357L16.8558 25.5557C17.9384 25.7443 18.8115 25.8964 19.5287 25.9626C20.2672 26.0306 20.9288 26.0179 21.5735 25.8231C22.5976 25.5137 23.4963 24.8918 24.1408 24.0466C24.5466 23.5145 24.785 22.9045 24.9728 22.1955C25.1553 21.5068 25.3092 20.644 25.5001 19.5742ZM23.8812 15.2163C23.9688 15.4996 23.9996 15.8588 23.9424 16.4648C23.8841 17.0824 23.7454 17.8646 23.5452 18.9865L23.51 19.1839C23.3098 20.3058 23.1695 21.0877 23.0105 21.6878C22.8545 22.2765 22.7012 22.6036 22.5208 22.8402C22.1341 23.3473 21.5949 23.7205 20.9804 23.9061C20.6938 23.9927 20.3303 24.0232 19.7171 23.9667C19.0921 23.9091 18.3006 23.7719 17.1654 23.5741L11.9715 22.6691C10.8363 22.4713 10.045 22.3326 9.4378 22.1755C8.84206 22.0214 8.51101 21.8699 8.2716 21.6916C7.75844 21.3095 7.38088 20.7766 7.19301 20.1693C7.10537 19.886 7.07454 19.5268 7.13173 18.9209C7.19003 18.3033 7.32879 17.5211 7.52897 16.3992L7.56419 16.2018C7.76437 15.0799 7.90469 14.298 8.06366 13.6979C8.21963 13.1092 8.37293 12.782 8.55333 12.5454C8.94003 12.0383 9.47925 11.6652 10.0937 11.4795C10.3804 11.3929 10.7439 11.3625 11.3571 11.419C11.9821 11.4766 12.7736 11.6137 13.9088 11.8115L19.1026 12.7166C20.2379 12.9144 21.0291 13.053 21.6364 13.2102C22.2321 13.3643 22.5632 13.5158 22.8026 13.6941C23.3157 14.0762 23.6933 14.6091 23.8812 15.2163Z" fill="#141414"/>
</svg>
