<svg width="28" height="28" viewBox="0 0 28 28" fill="none" xmlns="http://www.w3.org/2000/svg">
<path d="M16.1789 2.19726C21.8346 3.23508 26.0004 8.18428 26.0004 13.9998C26.0004 19.8158 21.834 24.7652 16.1778 25.8026C15.6345 25.9022 15.1134 25.5426 15.0138 24.9994C14.9141 24.4562 15.2738 23.935 15.817 23.8354C20.5277 22.9714 24.0004 18.8461 24.0004 13.9998C24.0004 9.15386 20.5282 5.02876 15.8179 4.16442C15.2747 4.06474 14.9152 3.54357 15.0149 3.00035C15.1145 2.45714 15.6357 2.09758 16.1789 2.19726ZM6.3752 20.4703C7.65873 21.9812 9.36305 23.084 11.2743 23.6241C11.5711 23.708 11.8722 23.7781 12.1769 23.8342C12.72 23.9342 13.0793 24.4556 12.9793 24.9987C12.8793 25.5419 12.3579 25.9011 11.8148 25.8011C11.4488 25.7338 11.087 25.6495 10.7304 25.5487C8.43487 24.9 6.39005 23.5768 4.85097 21.7652C4.4934 21.3443 4.54474 20.7132 4.96564 20.3556C5.38655 19.998 6.01763 20.0494 6.3752 20.4703ZM3.99212 9.31933C4.51151 9.50709 4.78035 10.0803 4.59259 10.5997C4.20213 11.6798 4 12.8253 4 13.9998C4 15.1273 4.18624 16.228 4.54671 17.2702C4.72724 17.7921 4.45047 18.3616 3.92853 18.5421C3.40658 18.7226 2.83711 18.4459 2.65658 17.9239C2.22361 16.6722 2 15.3505 2 13.9998C2 12.5926 2.24272 11.2172 2.71171 9.9198C2.89947 9.40042 3.47273 9.13158 3.99212 9.31933ZM12.2002 10.0784C12.3394 10.0784 12.4762 10.1147 12.5971 10.1838L18.0596 13.3052C18.4432 13.5244 18.5765 14.0131 18.3573 14.3967C18.2864 14.5208 18.1837 14.6235 18.0596 14.6944L12.5971 17.8159C12.2135 18.0351 11.7248 17.9018 11.5056 17.5182C11.4365 17.3973 11.4002 17.2605 11.4002 17.1213V10.8784C11.4002 10.4365 11.7583 10.0784 12.2002 10.0784ZM12.9813 3.00073C13.0812 3.54391 12.7219 4.06521 12.1787 4.1651C9.93673 4.57738 7.91521 5.74765 6.43221 7.46283C6.07099 7.88061 5.43949 7.92645 5.02171 7.56523C4.60393 7.20401 4.55809 6.5725 4.91931 6.15473C6.69768 4.09794 9.12405 2.69329 11.817 2.19808C12.3601 2.0982 12.8814 2.45755 12.9813 3.00073Z" fill="#141414"/>
</svg>
