<svg width="28" height="28" viewBox="0 0 28 28" fill="none" xmlns="http://www.w3.org/2000/svg">
<path fill-rule="evenodd" clip-rule="evenodd" d="M21 4C18.7909 4 17 5.79086 17 8C17 9.03629 17.3941 9.98054 18.0406 10.6911L14.5001 12L5.54171 7.63476C4.69707 7.17913 3.64667 7.40291 3.06108 8.16324C2.95269 8.30397 3.00619 8.53119 3.16002 8.62L5.09818 9.78L12.5001 14L5.09409 18.22L3.15594 19.38C3.0021 19.4688 2.9486 19.696 3.05699 19.8368C3.64258 20.5971 4.69298 20.8209 5.53762 20.3652L14.5001 16L18.0406 17.3089C17.3941 18.0195 17 18.9637 17 20C17 22.2091 18.7909 24 21 24C23.2092 24 25 22.2091 25 20C25 17.7909 23.2092 16 21 16C20.6513 16 20.313 16.0446 19.9905 16.1285L16.5001 14L19.9905 11.8715C20.313 11.9554 20.6513 12 21 12C23.2092 12 25 10.2091 25 8C25 5.79086 23.2092 4 21 4ZM19 8C19 6.89543 19.8955 6 21 6C22.1046 6 23 6.89543 23 8C23 9.10457 22.1046 10 21 10C19.8955 10 19 9.10457 19 8ZM21 18C19.8955 18 19 18.8954 19 20C19 21.1046 19.8955 22 21 22C22.1046 22 23 21.1046 23 20C23 18.8954 22.1046 18 21 18Z" fill="#141414"/>
</svg>
