<svg width="28" height="28" viewBox="0 0 28 28" fill="none" xmlns="http://www.w3.org/2000/svg">
<path d="M10.7566 14.9998C11.5367 14.9998 11.8196 15.081 12.1047 15.2335C12.3899 15.386 12.6137 15.6098 12.7663 15.895C12.9188 16.1802 13 16.4631 13 17.2432V21.7564C13 22.5364 12.9188 22.8193 12.7663 23.1045C12.6137 23.3897 12.3899 23.6135 12.1047 23.766C11.8196 23.9185 11.5367 23.9998 10.7566 23.9998H6.2434C5.46332 23.9998 5.18045 23.9185 4.89526 23.766C4.61007 23.6135 4.38626 23.3897 4.23374 23.1045C4.08122 22.8193 4 22.5364 4 21.7564V17.2432C4 16.4631 4.08122 16.1802 4.23374 15.895C4.38626 15.6098 4.61007 15.386 4.89526 15.2335C5.18045 15.081 5.46332 14.9998 6.2434 14.9998H10.7566ZM21.7566 14.9998C22.5367 14.9998 22.8196 15.081 23.1047 15.2335C23.3899 15.386 23.6137 15.6098 23.7663 15.895C23.9188 16.1802 24 16.4631 24 17.2432V21.7564C24 22.5364 23.9188 22.8193 23.7663 23.1045C23.6137 23.3897 23.3899 23.6135 23.1047 23.766C22.8196 23.9185 22.5367 23.9998 21.7566 23.9998H17.2434C16.4633 23.9998 16.1804 23.9185 15.8953 23.766C15.6101 23.6135 15.3863 23.3897 15.2337 23.1045C15.0812 22.8193 15 22.5364 15 21.7564V17.2432C15 16.4631 15.0812 16.1802 15.2337 15.895C15.3863 15.6098 15.6101 15.386 15.8953 15.2335C16.1804 15.081 16.4633 14.9998 17.2434 14.9998H21.7566ZM19.9678 2.93413C20.2773 3.02794 20.5347 3.17053 21.0863 3.72213L24.2776 6.91344C24.8292 7.46504 24.9718 7.72249 25.0656 8.032C25.1594 8.3415 25.1594 8.65802 25.0656 8.96753C24.9718 9.27703 24.8292 9.53449 24.2776 10.0861L21.0863 13.2774C20.5347 13.829 20.2773 13.9716 19.9678 14.0654C19.6583 14.1592 19.3417 14.1592 19.0322 14.0654C18.7227 13.9716 18.4653 13.829 17.9137 13.2774L14.7224 10.0861C14.1708 9.53449 14.0282 9.27703 13.9344 8.96753C13.8406 8.65802 13.8406 8.3415 13.9344 8.032C14.0282 7.72249 14.1708 7.46504 14.7224 6.91344L17.9137 3.72213C18.4653 3.17053 18.7227 3.02794 19.0322 2.93413C19.3417 2.84032 19.6583 2.84032 19.9678 2.93413ZM10.7566 3.99976C11.5367 3.99976 11.8196 4.08099 12.1047 4.2335C12.3899 4.38602 12.6137 4.60984 12.7663 4.89502C12.9188 5.18021 13 5.46308 13 6.24316V10.7564C13 11.5364 12.9188 11.8193 12.7663 12.1045C12.6137 12.3897 12.3899 12.6135 12.1047 12.766C11.8196 12.9185 11.5367 12.9998 10.7566 12.9998H6.2434C5.46332 12.9998 5.18045 12.9185 4.89526 12.766C4.61007 12.6135 4.38626 12.3897 4.23374 12.1045C4.08122 11.8193 4 11.5364 4 10.7564V6.24316C4 5.46308 4.08122 5.18021 4.23374 4.89502C4.38626 4.60984 4.61007 4.38602 4.89526 4.2335C5.18045 4.08099 5.46332 3.99976 6.2434 3.99976H10.7566Z" fill="#141414"/>
</svg>
