<svg width="28" height="28" viewBox="0 0 28 28" fill="none" xmlns="http://www.w3.org/2000/svg">
<path fill-rule="evenodd" clip-rule="evenodd" d="M14 2C20.6274 2 26 7.37258 26 14C26 20.6274 20.6274 26 14 26C7.37258 26 2 20.6274 2 14C2 7.37258 7.37258 2 14 2ZM17.4671 16.4655C17.3307 16.6564 17.1779 16.8369 17.0091 17.0057C15.3471 18.6677 12.6523 18.6675 10.9901 17.0053C10.8215 16.8367 10.6688 16.6564 10.5325 16.4658C10.147 15.9264 9.39723 15.8017 8.85789 16.1871C8.31855 16.5726 8.19388 17.3224 8.57943 17.8618C8.79235 18.1596 9.03054 18.4408 9.29258 18.7028C11.8924 21.3027 16.1073 21.3029 18.7068 18.7034C18.9692 18.4411 19.2076 18.1596 19.4207 17.8613C19.806 17.3219 19.6811 16.5722 19.1416 16.1867C18.6022 15.8013 17.8525 15.9261 17.4671 16.4655ZM9.8 9.8C8.80589 9.8 8 10.6059 8 11.6C8 12.5941 8.80589 13.4 9.8 13.4C10.7941 13.4 11.6 12.5941 11.6 11.6C11.6 10.6059 10.7941 9.8 9.8 9.8ZM18.2 9.8C17.2059 9.8 16.4 10.6059 16.4 11.6C16.4 12.5941 17.2059 13.4 18.2 13.4C19.1941 13.4 20 12.5941 20 11.6C20 10.6059 19.1941 9.8 18.2 9.8Z" fill="#141414"/>
</svg>
