<svg width="28" height="28" viewBox="0 0 28 28" fill="none" xmlns="http://www.w3.org/2000/svg">
<path fill-rule="evenodd" clip-rule="evenodd" d="M10.2932 2.79289C10.6837 2.40237 11.3168 2.40237 11.7074 2.79289L14.0003 5.08579L16.2931 2.7929C16.6837 2.40237 17.3168 2.40237 17.7074 2.79289C18.0979 3.18342 18.0979 3.81658 17.7074 4.20711L15.0003 6.91422V12.2679L19.6367 9.59108L20.6276 5.8931C20.7705 5.35963 21.3189 5.04305 21.8523 5.18599C22.3858 5.32893 22.7024 5.87727 22.5594 6.41074L21.7202 9.54289L24.8523 10.3821C25.3858 10.5251 25.7024 11.0734 25.5594 11.6069C25.4165 12.1404 24.8682 12.4569 24.3347 12.314L20.6367 11.3231L16.0003 14L20.6367 16.6768L24.3347 15.686C24.8682 15.543 25.4165 15.8596 25.5595 16.3931C25.7024 16.9265 25.3858 17.4749 24.8523 17.6178L21.7202 18.4571L22.5595 21.5892C22.7024 22.1227 22.3858 22.671 21.8523 22.814C21.3189 22.9569 20.7705 22.6403 20.6276 22.1069L19.6367 18.4089L15.0003 15.732L15.0003 21.0858L17.7074 23.7929C18.0979 24.1834 18.0979 24.8166 17.7074 25.2071C17.3168 25.5976 16.6837 25.5976 16.2931 25.2071L14.0003 22.9142L11.7074 25.2071C11.3168 25.5976 10.6837 25.5976 10.2932 25.2071C9.90263 24.8166 9.90263 24.1834 10.2932 23.7929L13.0003 21.0858L13.0003 15.732L8.36378 18.4089L7.37291 22.1069C7.22997 22.6404 6.68163 22.9569 6.14817 22.814C5.6147 22.6711 5.29812 22.1227 5.44106 21.5892L6.28032 18.4571L3.14817 17.6178C2.6147 17.4749 2.29812 16.9266 2.44106 16.3931C2.584 15.8596 3.13234 15.543 3.66581 15.686L7.36378 16.6769L12.0003 14L7.3638 11.3231L3.66581 12.314C3.13235 12.4569 2.58401 12.1403 2.44107 11.6069C2.29813 11.0734 2.61471 10.5251 3.14818 10.3821L6.28033 9.54287L5.44107 6.41072C5.29813 5.87726 5.61471 5.32892 6.14818 5.18597C6.68164 5.04303 7.22998 5.35962 7.37292 5.89308L8.3638 9.59106L13.0003 12.2679V6.91422L10.2932 4.20711C9.90263 3.81658 9.90263 3.18342 10.2932 2.79289Z" fill="#141414"/>
</svg>
