<svg width="28" height="28" viewBox="0 0 28 28" fill="none" xmlns="http://www.w3.org/2000/svg">
<path fill-rule="evenodd" clip-rule="evenodd" d="M16.4053 11.7931C15.9506 12.7872 15.3579 13.8135 14.5861 14.5851C13.8143 15.3567 12.7877 15.9492 11.7933 16.4039C12.7877 16.8585 13.8143 17.451 14.5861 18.2226C15.3575 18.9938 15.9503 20.0185 16.4053 21.011C16.8603 20.0185 17.4531 18.9938 18.2246 18.2226C18.996 17.4514 20.0209 16.8587 21.0137 16.4039C20.0209 15.949 18.996 15.3563 18.2246 14.5851C17.4528 13.8135 16.8601 12.7872 16.4053 11.7931ZM15.3571 8.95868C14.8306 10.5668 14.1037 12.2397 13.1719 13.1713C12.2401 14.1028 10.5667 14.8295 8.95812 15.3559C8.79416 15.4095 8.63088 15.4611 8.46912 15.5106C8.1078 15.6212 7.7541 15.7214 7.41754 15.8113C7.32065 15.8371 7.22519 15.8622 7.13137 15.8863C6.68453 16.0015 6.68453 16.8063 7.13137 16.9214C7.22519 16.9456 7.32065 16.9706 7.41754 16.9965C7.75409 17.0864 8.1078 17.1866 8.46912 17.2971C8.63088 17.3466 8.79416 17.3982 8.95812 17.4518C10.5667 17.9782 12.2401 18.7049 13.1719 19.6365C14.1035 20.5678 14.8303 22.236 15.3568 23.8388C15.4102 24.0014 15.4616 24.1634 15.5109 24.3238C15.6217 24.6846 15.7222 25.0378 15.8123 25.3738C15.8384 25.471 15.8636 25.5668 15.8879 25.6609C16.0034 26.1072 16.8073 26.1072 16.9227 25.6609C16.9471 25.5668 16.9723 25.471 16.9983 25.3738C17.0885 25.0378 17.1889 24.6846 17.2998 24.3238C17.3491 24.1634 17.4004 24.0014 17.4539 23.8388C17.9804 22.236 18.7071 20.5678 19.6388 19.6365C20.5704 18.7051 22.239 17.9785 23.8422 17.4521C24.0049 17.3987 24.1669 17.3474 24.3274 17.2981C24.6883 17.1873 25.0415 17.0868 25.3776 16.9967C25.4748 16.9707 25.5706 16.9455 25.6648 16.9211C26.1112 16.8057 26.1112 16.002 25.6648 15.8866C25.5706 15.8623 25.4748 15.8371 25.3776 15.811C25.0415 15.7209 24.6883 15.6205 24.3274 15.5096C24.1669 15.4604 24.0049 15.409 23.8422 15.3556C22.239 14.8292 20.5704 14.1027 19.6388 13.1713C18.707 12.2397 17.9801 10.5668 17.4536 8.95868C17.3999 8.79477 17.3483 8.63154 17.2988 8.46983C17.1882 8.10861 17.088 7.755 16.9981 7.41854C16.9722 7.32168 16.9472 7.22624 16.923 7.13244C16.8078 6.68572 16.0028 6.68572 15.8877 7.13244C15.8635 7.22624 15.8385 7.32168 15.8126 7.41854C15.7226 7.755 15.6224 8.10861 15.5118 8.46983C15.4623 8.63154 15.4107 8.79477 15.3571 8.95868Z" fill="#141414"/>
<path d="M7.29687 2.3634C7.13336 1.87301 6.43953 1.87301 6.27603 2.3634L5.62479 4.31659C5.4197 4.93171 4.93688 5.4144 4.32159 5.61944L2.36789 6.27051C1.87737 6.43397 1.87737 7.12761 2.36789 7.29108L4.31676 7.94053C4.93477 8.14648 5.41896 8.63246 5.62252 9.25112L6.27536 11.2352C6.4376 11.7283 7.1353 11.7283 7.29754 11.2352L7.94878 9.25597C8.15323 8.63459 8.64073 8.14722 9.26227 7.94282L11.2421 7.29175C11.7353 7.12955 11.7353 6.43204 11.2421 6.26984L9.25742 5.61717C8.63861 5.41367 8.15249 4.9296 7.94649 4.31175L7.29687 2.3634Z" fill="#141414"/>
</svg>
