<svg width="28" height="28" viewBox="0 0 28 28" fill="none" xmlns="http://www.w3.org/2000/svg">
<path fill-rule="evenodd" clip-rule="evenodd" d="M10.2224 3.9996H17.7776C18.3321 3.99892 18.8201 3.99831 19.2745 4.14529C19.6728 4.27411 20.0397 4.48486 20.3517 4.76399C20.7076 5.08246 20.953 5.50426 21.2318 5.98358L23.5036 9.87825C23.591 10.0281 23.6682 10.1602 23.7321 10.3012C23.8661 10.5965 23.9512 10.9116 23.9843 11.2341C24.0002 11.3882 24.0001 11.5412 24 11.7147L24 11.7498C24 13.5447 22.5449 14.9998 20.75 14.9998C19.8768 14.9998 19.084 14.6554 18.5 14.095C17.9161 14.6554 17.1233 14.9998 16.25 14.9998C15.3768 14.9998 14.584 14.6554 14 14.095C13.4161 14.6554 12.6233 14.9998 11.75 14.9998C10.8768 14.9998 10.084 14.6554 9.50002 14.095C8.91607 14.6554 8.12327 14.9998 7.25002 14.9998C5.45509 14.9998 4.00002 13.5447 4.00002 11.7498L4.00001 11.7147C3.99994 11.5412 3.99988 11.3882 4.01569 11.2341C4.04879 10.9116 4.13397 10.5965 4.2679 10.3012C4.33189 10.1602 4.40902 10.028 4.49652 9.8782L6.76828 5.98357C7.04708 5.50426 7.29243 5.08245 7.64836 4.76399C7.96032 4.48486 8.32725 4.27411 8.72554 4.14529C9.17997 3.99831 9.66794 3.99892 10.2224 3.9996ZM21.9948 11.4383C21.9988 11.4775 22 11.5223 22 11.7498C22 12.4402 21.4404 12.9998 20.75 12.9998C20.0597 12.9998 19.5 12.4402 19.5 11.7498C19.5 11.1975 19.0523 10.7498 18.5 10.7498C17.9477 10.7498 17.5 11.1975 17.5 11.7498C17.5 12.4402 16.9404 12.9998 16.25 12.9998C15.5597 12.9998 15 12.4402 15 11.7498C15 11.1975 14.5523 10.7498 14 10.7498C13.4477 10.7498 13 11.1975 13 11.7498C13 12.4402 12.4404 12.9998 11.75 12.9998C11.0597 12.9998 10.5 12.4402 10.5 11.7498C10.5 11.1975 10.0523 10.7498 9.50002 10.7498C8.94773 10.7498 8.50002 11.1975 8.50002 11.7498C8.50002 12.4402 7.94037 12.9998 7.25002 12.9998C6.55966 12.9998 6.00002 12.4402 6.00002 11.7498C6.00002 11.5223 6.00122 11.4775 6.00524 11.4383C6.01628 11.3308 6.04467 11.2258 6.08931 11.1273C6.1056 11.0914 6.1271 11.0522 6.24176 10.8556L8.43769 7.09118C8.80897 6.45471 8.89233 6.33466 8.98196 6.25446C9.08595 6.16142 9.20826 6.09117 9.34102 6.04823C9.45546 6.01122 9.60116 5.9997 10.338 5.9997H17.662C18.3989 5.9997 18.5446 6.01122 18.659 6.04823C18.7918 6.09117 18.9141 6.16142 19.0181 6.25446C19.1077 6.33466 19.1911 6.45471 19.5623 7.09118L21.7583 10.8556C21.8729 11.0522 21.8944 11.0914 21.9107 11.1273C21.9554 11.2258 21.9838 11.3308 21.9948 11.4383Z" fill="#141414"/>
<path d="M9 17.9998C9 17.4475 8.55228 16.9998 8 16.9998C7.44772 16.9998 7 17.4475 7 17.9998V21.9998H5C4.44772 21.9998 4 22.4475 4 22.9998C4 23.5521 4.44772 23.9998 5 23.9998H23C23.5523 23.9998 24 23.5521 24 22.9998C24 22.4475 23.5523 21.9998 23 21.9998H21V17.9998C21 17.4475 20.5523 16.9998 20 16.9998C19.4477 16.9998 19 17.4475 19 17.9998V21.9998H9V17.9998Z" fill="#141414"/>
</svg>
