<svg width="28" height="28" viewBox="0 0 28 28" fill="none" xmlns="http://www.w3.org/2000/svg">
<path fill-rule="evenodd" clip-rule="evenodd" d="M3.5 11.5C3.5 8.69974 3.5 7.29961 4.04497 6.23005C4.52433 5.28924 5.28924 4.52433 6.23005 4.04497C7.29961 3.5 8.69974 3.5 11.5 3.5H16.5C19.3003 3.5 20.7004 3.5 21.77 4.04497C22.7108 4.52433 23.4757 5.28924 23.955 6.23005C24.5 7.29961 24.5 8.69974 24.5 11.5V16.5C24.5 19.3003 24.5 20.7004 23.955 21.77C23.4757 22.7108 22.7108 23.4757 21.77 23.955C20.7004 24.5 19.3003 24.5 16.5 24.5H11.5C8.69974 24.5 7.29961 24.5 6.23005 23.955C5.28924 23.4757 4.52433 22.7108 4.04497 21.77C3.5 20.7004 3.5 19.3003 3.5 16.5V11.5ZM8 14C8 10.6863 10.6863 8 14 8C17.3137 8 20 10.6863 20 14C20 17.3137 17.3137 20 14 20C10.6863 20 8 17.3137 8 14ZM14 10C11.7909 10 10 11.7909 10 14C10 16.2091 11.7909 18 14 18C16.2091 18 18 16.2091 18 14C18 11.7909 16.2091 10 14 10Z" fill="#141414"/>
</svg>
