<svg width="28" height="28" viewBox="0 0 28 28" fill="none" xmlns="http://www.w3.org/2000/svg">
<path d="M17.926 3.00195C19.8841 3.02264 20.8807 3.23366 21.914 3.78626C22.903 4.31523 23.6853 5.09745 24.2142 6.08653C24.7668 7.11981 24.9778 8.11634 24.9985 10.0745V17.926C24.9778 19.8841 24.7668 20.8807 24.2142 21.914C23.6853 22.903 22.903 23.6853 21.914 24.2142C20.8807 24.7668 19.8841 24.9778 17.926 24.9985H10.0745C8.11634 24.9778 7.11981 24.7668 6.08653 24.2142C5.09745 23.6853 4.31523 22.903 3.78626 21.914C3.23366 20.8807 3.02264 19.8841 3.00195 17.926V10.0745C3.02264 8.11634 3.23366 7.11981 3.78626 6.08653C4.31523 5.09745 5.09745 4.31523 6.08653 3.78626C7.11981 3.23366 8.11634 3.02264 10.0745 3.00195H17.926ZM17.5905 5.00024H10.41L9.85257 5.00512C8.37329 5.03317 7.71092 5.18558 7.02973 5.54989C6.38918 5.89246 5.89246 6.38918 5.54989 7.02973C5.18558 7.71092 5.03317 8.37329 5.00512 9.85257L5.00024 10.41V17.5905L5.00512 18.1479C5.03317 19.6272 5.18558 20.2896 5.54989 20.9708C5.89246 21.6113 6.38918 22.108 7.02973 22.4506C7.71092 22.8149 8.37329 22.9673 9.85257 22.9954L10.41 23.0002H17.5905L18.1479 22.9954C19.6272 22.9673 20.2896 22.8149 20.9708 22.4506C21.6113 22.108 22.108 21.6113 22.4506 20.9708C22.8149 20.2896 22.9673 19.6272 22.9954 18.1479L23.0002 17.5905V10.41L22.9954 9.85257C22.9673 8.37329 22.8149 7.71092 22.4506 7.02973C22.108 6.38918 21.6113 5.89246 20.9708 5.54989C20.2896 5.18558 19.6272 5.03317 18.1479 5.00512L17.5905 5.00024ZM14.0002 8.75024C16.8997 8.75024 19.2502 11.1007 19.2502 14.0002C19.2502 16.8997 16.8997 19.2502 14.0002 19.2502C11.1007 19.2502 8.75024 16.8997 8.75024 14.0002C8.75024 11.1007 11.1007 8.75024 14.0002 8.75024ZM14.0002 10.7502C12.2053 10.7502 10.7502 12.2053 10.7502 14.0002C10.7502 15.7952 12.2053 17.2502 14.0002 17.2502C15.7952 17.2502 17.2502 15.7952 17.2502 14.0002C17.2502 12.2053 15.7952 10.7502 14.0002 10.7502Z" fill="#141414"/>
</svg>
