<svg width="28" height="28" viewBox="0 0 28 28" fill="none" xmlns="http://www.w3.org/2000/svg">
<path d="M14.9999 2C14.9999 1.44772 14.5522 1 13.9999 1C13.4476 1 12.9999 1.44772 12.9999 2V5C12.9999 5.55228 13.4476 6 13.9999 6C14.5522 6 14.9999 5.55228 14.9999 5V2Z" fill="#141414"/>
<path d="M14.9999 23C14.9999 22.4477 14.5522 22 13.9999 22C13.4476 22 12.9999 22.4477 12.9999 23V26C12.9999 26.5523 13.4476 27 13.9999 27C14.5522 27 14.9999 26.5523 14.9999 26V23Z" fill="#141414"/>
<path d="M23.8922 20.866C24.3705 21.1422 24.9821 20.9783 25.2582 20.5C25.5344 20.0217 25.3705 19.4101 24.8922 19.134L22.2941 17.634C21.8158 17.3578 21.2042 17.5217 20.9281 18C20.652 18.4783 20.8158 19.0899 21.2941 19.366L23.8922 20.866Z" fill="#141414"/>
<path d="M5.70567 10.366C6.18396 10.6422 6.79555 10.4783 7.07169 10C7.34784 9.5217 7.18396 8.91011 6.70567 8.63397L4.10759 7.13397C3.6293 6.85783 3.01771 7.02171 2.74157 7.5C2.46542 7.97829 2.6293 8.58988 3.10759 8.86602L5.70567 10.366Z" fill="#141414"/>
<path d="M2.74156 20.5C2.46542 20.0217 2.6293 19.4101 3.10759 19.134L5.70567 17.634C6.18396 17.3578 6.79555 17.5217 7.07169 18C7.34783 18.4783 7.18396 19.0899 6.70567 19.366L4.10759 20.866C3.6293 21.1422 3.01771 20.9783 2.74156 20.5Z" fill="#141414"/>
<path d="M20.9281 10C20.652 9.52171 20.8158 8.91012 21.2941 8.63398L23.8922 7.13398C24.3705 6.85783 24.9821 7.02171 25.2582 7.5C25.5344 7.97829 25.3705 8.58989 24.8922 8.86603L22.2941 10.366C21.8158 10.6422 21.2042 10.4783 20.9281 10Z" fill="#141414"/>
<path fill-rule="evenodd" clip-rule="evenodd" d="M13.9999 8.03125C10.7034 8.03125 8.03113 10.7036 8.03113 14C8.03113 17.2964 10.7034 19.9688 13.9999 19.9688C17.2963 19.9688 19.9686 17.2964 19.9686 14C19.9686 10.7036 17.2963 8.03125 13.9999 8.03125ZM9.99207 14C9.99207 11.6454 11.6453 9.99219 13.9999 9.99219C16.3545 9.99219 18.0155 11.6454 18.0155 14C18.0155 16.3546 16.3545 18 13.9999 18C11.6453 18 9.99207 16.3546 9.99207 14Z" fill="#141414"/>
</svg>
