<svg width="28" height="28" viewBox="0 0 28 28" fill="none" xmlns="http://www.w3.org/2000/svg">
<path fill-rule="evenodd" clip-rule="evenodd" d="M8.80011 11.9795L9.95365 11.0567C10.0463 10.9826 10.1105 10.8787 10.1354 10.7626L11.4503 4.62842C11.8792 2.62767 14.0019 1.49077 15.905 2.24249C17.1693 2.74189 18 3.96318 18 5.32253V9.0002H18.5C20.6828 9.0002 22.5864 9.61655 23.9471 10.9395C25.3126 12.2671 26 14.1783 26 16.5002V17.5002C26 19.8221 25.3126 21.7334 23.9471 23.061C22.5864 24.3839 20.6828 25.0002 18.5 25.0002H8.81796C8.52197 25.347 8.14408 25.6213 7.71264 25.7947C7.40773 25.9172 7.1017 25.9614 6.8011 25.9813C6.51654 26.0002 6.17379 26.0002 5.78071 26.0002H5.71939C5.32631 26.0002 4.98346 26.0002 4.6989 25.9813C4.3983 25.9614 4.09228 25.9172 3.78736 25.7947C3.06653 25.505 2.49517 24.9337 2.20552 24.2129C2.08299 23.9079 2.03884 23.6019 2.01888 23.3013C1.99998 23.0167 1.99999 22.674 2 22.2809V14.7196C1.99999 14.3265 1.99998 13.9837 2.01888 13.6991C2.03884 13.3985 2.08299 13.0925 2.20552 12.7876C2.49517 12.0667 3.06653 11.4954 3.78736 11.2057C4.09228 11.0832 4.3983 11.039 4.6989 11.0191C4.98349 11.0002 5.32627 11.0002 5.7194 11.0002H5.7806C6.17373 11.0002 6.51652 11.0002 6.8011 11.0191C7.1017 11.039 7.40773 11.0832 7.71264 11.2057C8.13546 11.3756 8.50684 11.6424 8.80011 11.9795ZM13.4059 5.04762C13.5758 4.2552 14.4165 3.80491 15.1702 4.10264C15.671 4.30043 16 4.78414 16 5.32253V10.0002C16 10.5525 16.4477 11.0002 17 11.0002H18.5C20.3172 11.0002 21.6636 11.5089 22.5529 12.3735C23.4374 13.2334 24 14.5721 24 16.5002V17.5002C24 19.4283 23.4374 20.7671 22.5529 21.627C21.6636 22.4915 20.3172 23.0002 18.5 23.0002H9.49436C9.50002 22.7845 9.50001 22.544 9.5 22.2808V14.7196C9.50001 14.4505 9.50002 14.205 9.49396 13.9857L11.203 12.6184C11.6558 12.2562 11.9695 11.7487 12.091 11.1818L13.4059 5.04762ZM4.53307 13.0615C4.56015 13.0506 4.62975 13.0281 4.83142 13.0147C5.04173 13.0007 5.31743 13.0002 5.75 13.0002C6.18257 13.0002 6.45827 13.0007 6.66859 13.0147C6.87025 13.0281 6.93985 13.0506 6.96693 13.0615C7.18192 13.1479 7.35232 13.3183 7.43871 13.5333C7.44959 13.5604 7.47213 13.63 7.48552 13.8316C7.49949 14.0419 7.5 14.3176 7.5 14.7502V22.2502C7.5 22.6828 7.49949 22.9585 7.48552 23.1688C7.47213 23.3705 7.44959 23.4401 7.43871 23.4671C7.35232 23.6821 7.18192 23.8525 6.96693 23.9389C6.93985 23.9498 6.87025 23.9723 6.66859 23.9857C6.45827 23.9997 6.18257 24.0002 5.75 24.0002C5.31743 24.0002 5.04173 23.9997 4.83142 23.9857C4.62975 23.9723 4.56015 23.9498 4.53307 23.9389C4.31809 23.8525 4.14769 23.6821 4.0613 23.4671C4.05042 23.4401 4.02787 23.3705 4.01448 23.1688C4.00052 22.9585 4 22.6828 4 22.2502V14.7502C4 14.3176 4.00052 14.0419 4.01448 13.8316C4.02787 13.63 4.05042 13.5604 4.0613 13.5333C4.14769 13.3183 4.31809 13.1479 4.53307 13.0615Z" fill="#141414"/>
</svg>
