<svg width="28" height="28" viewBox="0 0 28 28" fill="none" xmlns="http://www.w3.org/2000/svg">
<path fill-rule="evenodd" clip-rule="evenodd" d="M19.1999 16.026L18.0463 16.9492C17.9537 17.0233 17.8895 17.1273 17.8646 17.2433L16.5497 23.3799C16.1208 25.3814 13.9981 26.5187 12.095 25.7667C10.8307 25.2671 10 24.0454 10 22.6855V19.0064H9.5C7.31718 19.0064 5.41363 18.3899 4.05292 17.0664C2.68741 15.7383 2 13.8264 2 11.5036L2 10.5032C2 8.1804 2.68741 6.26843 4.05292 4.94036C5.41364 3.61695 7.31719 3.00039 9.5 3.00039L19.182 3.00039C19.478 2.65341 19.8559 2.37903 20.2874 2.2056C20.5923 2.08302 20.8983 2.03885 21.1989 2.01888C21.4835 1.99998 21.8262 1.99999 22.2193 2H22.2806C22.6737 1.99999 23.0165 1.99998 23.3011 2.01888C23.6017 2.03885 23.9077 2.08302 24.2126 2.2056C24.9335 2.49536 25.5048 3.06693 25.7945 3.78804C25.917 4.09307 25.9612 4.39921 25.9811 4.69992C26 4.9846 26 5.32748 26 5.72073L26 13.2849C26 13.6781 26 14.0211 25.9811 14.3057C25.9612 14.6065 25.917 14.9126 25.7945 15.2176C25.5048 15.9387 24.9335 16.5103 24.2126 16.8001C23.9077 16.9226 23.6017 16.9668 23.3011 16.9868C23.0165 17.0057 22.6737 17.0057 22.2806 17.0057H22.2194C21.8263 17.0057 21.4835 17.0057 21.1989 16.9868C20.8983 16.9668 20.5923 16.9226 20.2874 16.8001C19.8645 16.6301 19.4932 16.3632 19.1999 16.026ZM14.5941 22.9605C14.4242 23.7532 13.5835 24.2037 12.8298 23.9058C12.329 23.708 12 23.2241 12 22.6855L12 18.0061C12 17.4536 11.5523 17.0057 11 17.0057H9.5C7.68281 17.0057 6.33636 16.4968 5.44708 15.6319C4.56258 14.7716 4 13.4324 4 11.5036L4 10.5032C4 8.57438 4.56258 7.23514 5.44707 6.3749C6.33636 5.50999 7.6828 5.00115 9.5 5.00115L18.5056 5.00115C18.5 5.21689 18.5 5.45756 18.5 5.72079L18.5 13.2849C18.5 13.554 18.5 13.7996 18.506 14.0191L16.797 15.3868C16.3442 15.7492 16.0305 16.2569 15.909 16.824L14.5941 22.9605ZM23.4669 14.9436C23.4398 14.9545 23.3702 14.977 23.1686 14.9904C22.9583 15.0044 22.6826 15.0049 22.25 15.0049C21.8174 15.0049 21.5417 15.0044 21.3314 14.9904C21.1297 14.977 21.0601 14.9545 21.0331 14.9436C20.8181 14.8572 20.6477 14.6867 20.5613 14.4716C20.5504 14.4446 20.5279 14.3749 20.5145 14.1732C20.5005 13.9628 20.5 13.687 20.5 13.2543L20.5 5.75142C20.5 5.31869 20.5005 5.04288 20.5145 4.83248C20.5279 4.63074 20.5504 4.56112 20.5613 4.53403C20.6477 4.31896 20.8181 4.14849 21.0331 4.06207C21.0601 4.05119 21.1297 4.02864 21.3314 4.01524C21.5417 4.00127 21.8174 4.00076 22.25 4.00076C22.6826 4.00076 22.9583 4.00127 23.1686 4.01524C23.3702 4.02864 23.4398 4.05119 23.4669 4.06207C23.6819 4.14849 23.8523 4.31896 23.9387 4.53403C23.9496 4.56112 23.9721 4.63074 23.9855 4.83248C23.9995 5.04288 24 5.31869 24 5.75142L24 13.2543C24 13.687 23.9995 13.9628 23.9855 14.1732C23.9721 14.3749 23.9496 14.4446 23.9387 14.4716C23.8523 14.6867 23.6819 14.8572 23.4669 14.9436Z" fill="#141414"/>
</svg>
