<svg width="28" height="28" viewBox="0 0 28 28" fill="none" xmlns="http://www.w3.org/2000/svg">
<path fill-rule="evenodd" clip-rule="evenodd" d="M6.78809 11.6354C7.22144 11.7438 7.43812 11.7979 7.59945 11.9187C7.74179 12.0253 7.85314 12.1679 7.92202 12.3318C8.00009 12.5177 8.00009 12.741 8.00009 13.1877V21.6741C8.00009 21.7734 8.00019 21.8322 8.00125 21.8809C8.00502 21.887 8.00892 21.8933 8.01293 21.8997C8.01728 21.9066 8.02161 21.9134 8.02586 21.92C8.93223 22.3466 10.9035 23 14.501 23C17.4473 23 19.1593 22.3707 19.9774 21.9526C19.9813 21.9464 19.9853 21.9399 19.9893 21.9334C19.9928 21.9278 19.9961 21.9222 19.9993 21.9168C19.9995 21.9113 19.9996 21.9053 19.9998 21.8987C20.0009 21.8442 20.001 21.7793 20.001 21.674V13.1877C20.001 12.7411 20.001 12.5178 20.079 12.332C20.1479 12.1681 20.2592 12.0255 20.4015 11.9189C20.5628 11.7981 20.7795 11.7439 21.2127 11.6356L21.4998 11.5637L21.5042 11.5625C21.5195 11.558 21.5532 11.5479 21.603 11.5311C21.7027 11.4975 21.8662 11.4375 22.0768 11.3434C22.4297 11.1857 22.9093 10.9347 23.4423 10.555L21.3654 6.91941C20.9005 6.10562 20.1519 5.49182 19.2628 5.19544C18.8744 5.06599 18.4677 5 18.0584 5H18.0432C16.0157 7.66757 11.9839 7.66757 9.95643 5H9.94372C9.53428 5 9.12752 5.06601 8.7391 5.19548C7.84995 5.49187 7.10128 6.10563 6.63627 6.91939L4.55859 10.5553C5.0912 10.9348 5.57065 11.1857 5.92361 11.3433C6.13428 11.4374 6.2978 11.4973 6.39766 11.531C6.4475 11.5478 6.48115 11.5579 6.49651 11.5624L6.50089 11.5636L6.78809 11.6354ZM22.001 13.5C22.001 13.5 23.381 13.1548 24.995 11.8907C25.6192 11.4019 25.727 10.5225 25.3338 9.83407L23.102 5.92736C22.393 4.68622 21.2513 3.75009 19.8952 3.29808C19.3029 3.10065 18.6827 3 18.0584 3H17.489C17.1827 3 16.896 3.15057 16.722 3.40275L16.5399 3.66689C15.3134 5.44528 12.6862 5.44528 11.4597 3.66689L11.2772 3.40227C11.1035 3.1504 10.8171 3 10.5111 3H9.94372C9.31932 3 8.699 3.10066 8.10664 3.29812C6.75067 3.75011 5.60893 4.68612 4.89979 5.92711L2.66725 9.83406C2.27386 10.5225 2.3815 11.402 3.0057 11.891C4.61925 13.1548 6.00009 13.5 6.00009 13.5V21.6741C6.00009 22.0566 6.00009 22.2479 6.11252 22.5689C6.18192 22.767 6.43831 23.1746 6.58686 23.323C6.82753 23.5633 6.92428 23.6098 7.11779 23.7027C8.31735 24.279 10.5982 25 14.501 25C17.7542 25 19.7832 24.3 20.8978 23.7282C21.1054 23.6217 21.2093 23.5685 21.4399 23.3296C21.5857 23.1785 21.8258 22.7855 21.8937 22.5868C22.001 22.2725 22.001 22.073 22.001 21.674V13.5Z" fill="#141414"/>
</svg>
