<svg width="28" height="28" viewBox="0 0 28 28" fill="none" xmlns="http://www.w3.org/2000/svg">
<path fill-rule="evenodd" clip-rule="evenodd" d="M19.8385 4H11.1615C10.6343 3.99998 10.1795 3.99997 9.80497 4.03057C9.40963 4.06287 9.01641 4.13419 8.63803 4.32698C8.07354 4.6146 7.6146 5.07354 7.32698 5.63803C7.13419 6.01641 7.06287 6.40963 7.03057 6.80497C6.99997 7.17955 6.99998 7.63431 7 8.16146V16.8385C6.99998 17.3657 6.99997 17.8205 7.03057 18.195C7.06287 18.5904 7.13419 18.9836 7.32698 19.362C7.6146 19.9265 8.07354 20.3854 8.63803 20.673C9.01641 20.8658 9.40963 20.9371 9.80497 20.9694C10.1795 21 10.6343 21 11.1614 21H19.8386C20.3657 21 20.8205 21 21.195 20.9694C21.5904 20.9371 21.9836 20.8658 22.362 20.673C22.9265 20.3854 23.3854 19.9265 23.673 19.362C23.8658 18.9836 23.9371 18.5904 23.9694 18.195C24 17.8205 24 17.3657 24 16.8386V8.16144C24 7.6343 24 7.17954 23.9694 6.80497C23.9371 6.40963 23.8658 6.01641 23.673 5.63803C23.3854 5.07354 22.9265 4.6146 22.362 4.32698C21.9836 4.13419 21.5904 4.06287 21.195 4.03057C20.8205 3.99997 20.3657 3.99998 19.8385 4ZM17.7505 10.2505C17.7507 9.00751 16.7438 8.00064 15.5005 8.00049C14.2573 8.00034 13.2501 9.00697 13.25 10.2499C13.2498 11.4929 14.2567 12.4998 15.5 12.4999C16.7433 12.5001 17.7504 11.4935 17.7505 10.2505ZM10.9991 15.874L10.999 16.4336C10.999 16.7458 11.2521 16.9989 11.5643 16.9989L19.4346 16.9999C19.7469 16.9999 20 16.7469 20.0001 16.4347L20.0001 15.8751C20.0004 13.9066 17.0019 13.3438 15.4999 13.3436C13.9978 13.3434 10.9993 13.9055 10.9991 15.874Z" fill="#141414"/>
<path d="M5 16V8.99997C3.89543 8.99997 3 9.8954 3 11V16.0437C2.99999 17.4068 2.99999 18.4908 3.07144 19.3654C3.14462 20.261 3.29768 21.0247 3.65396 21.7239C4.2292 22.8529 5.14709 23.7708 6.27606 24.346C6.9753 24.7023 7.73898 24.8553 8.63458 24.9285C9.50914 25 10.5931 25 11.9561 25H18C19.1046 25 20 24.1045 20 23H12C10.5834 23 9.58104 22.9992 8.79744 22.9352C8.02552 22.8721 7.55435 22.7527 7.18404 22.564C6.43139 22.1805 5.81947 21.5686 5.43597 20.8159C5.24729 20.4456 5.12787 19.9744 5.0648 19.2025C5.00078 18.4189 5 17.4166 5 16Z" fill="#141414"/>
</svg>
