<svg width="28" height="28" viewBox="0 0 28 28" fill="none" xmlns="http://www.w3.org/2000/svg">
<path d="M17.926 3.00195C19.8841 3.02264 20.8807 3.23366 21.914 3.78626C22.903 4.31523 23.6853 5.09745 24.2142 6.08653C24.7668 7.11981 24.9778 8.11634 24.9985 10.0745V17.926C24.9778 19.8841 24.7668 20.8807 24.2142 21.914C23.6853 22.903 22.903 23.6853 21.914 24.2142C20.8807 24.7668 19.8841 24.9778 17.926 24.9985H10.0745C8.11634 24.9778 7.11981 24.7668 6.08653 24.2142C5.09745 23.6853 4.31523 22.903 3.78626 21.914C3.23366 20.8807 3.02264 19.8841 3.00195 17.926V10.0745C3.02264 8.11634 3.23366 7.11981 3.78626 6.08653C4.31523 5.09745 5.09745 4.31523 6.08653 3.78626C7.11981 3.23366 8.11634 3.02264 10.0745 3.00195H17.926ZM9.85257 5.00512C8.37329 5.03317 7.71092 5.18558 7.02973 5.54989C6.38918 5.89246 5.89246 6.38918 5.54989 7.02973C5.18558 7.71092 5.03317 8.37329 5.00512 9.85257V18.1479C5.03317 19.6272 5.18558 20.2896 5.54989 20.9708C5.89246 21.6113 6.38918 22.108 7.02973 22.4506C7.71092 22.8149 8.37329 22.9673 9.85257 22.9954H18.1479C19.6272 22.9673 20.2896 22.8149 20.9708 22.4506C21.6113 22.108 22.108 21.6113 22.4506 20.9708C22.8149 20.2896 22.9673 19.6272 22.9954 18.1479V9.85257C22.9673 8.37329 22.8149 7.71092 22.4506 7.02973C22.108 6.38918 21.6113 5.89246 20.9708 5.54989C20.2896 5.18558 19.6272 5.03317 18.1479 5.00512H9.85257Z" fill="#141414"/>
<mask id="mask0_1570_12484" style="mask-type:alpha" maskUnits="userSpaceOnUse" x="5" y="5" width="18" height="18">
<path d="M9.85233 5.00488C8.37305 5.03293 7.71068 5.18534 7.02949 5.54965C6.38894 5.89222 5.89222 6.38894 5.54965 7.02949C5.18534 7.71068 5.03293 8.37305 5.00488 9.85233V18.1477C5.03293 19.627 5.18534 20.2893 5.54965 20.9705C5.89222 21.6111 6.38894 22.1078 7.02949 22.4504C7.71068 22.8147 8.37305 22.9671 9.85233 22.9951H18.1477C19.627 22.9671 20.2893 22.8147 20.9705 22.4504C21.6111 22.1078 22.1078 21.6111 22.4504 20.9705C22.8147 20.2893 22.9671 19.627 22.9951 18.1477V9.85233C22.9671 8.37305 22.8147 7.71068 22.4504 7.02949C22.1078 6.38894 21.6111 5.89222 20.9705 5.54965C20.2893 5.18534 19.627 5.03293 18.1477 5.00488H9.85233Z" fill="#3F8AE0"/>
</mask>
<g mask="url(#mask0_1570_12484)">
<circle cx="14" cy="31.5" r="12" stroke="#141414" stroke-width="2"/>
<path d="M14 7.5C16.6242 7.5 18.75 9.62584 18.75 12.25C18.75 14.8742 16.6242 17 14 17C11.3758 17 9.25 14.8742 9.25 12.25C9.25 9.62584 11.3758 7.5 14 7.5ZM14 9.5C12.4804 9.5 11.25 10.7304 11.25 12.25C11.25 13.7696 12.4804 15 14 15C15.5196 15 16.75 13.7696 16.75 12.25C16.75 10.7304 15.5196 9.5 14 9.5Z" fill="#141414"/>
</g>
<path d="M14.0002 7.50024C16.6244 7.50024 18.7502 9.62608 18.7502 12.2502C18.7502 14.8744 16.6244 17.0002 14.0002 17.0002C11.3761 17.0002 9.25024 14.8744 9.25024 12.2502C9.25024 9.62608 11.3761 7.50024 14.0002 7.50024ZM14.0002 9.50024C12.4807 9.50024 11.2502 10.7307 11.2502 12.2502C11.2502 13.7698 12.4807 15.0002 14.0002 15.0002C15.5198 15.0002 16.7502 13.7698 16.7502 12.2502C16.7502 10.7307 15.5198 9.50024 14.0002 9.50024Z" fill="#141414"/>
<path fill-rule="evenodd" clip-rule="evenodd" d="M21.914 3.78626C20.8807 3.23366 19.8841 3.02264 17.926 3.00195H10.0745C8.11634 3.02264 7.11981 3.23366 6.08653 3.78626C5.09745 4.31523 4.31523 5.09745 3.78626 6.08653C3.23366 7.11981 3.02264 8.11634 3.00195 10.0745V17.926C3.02264 19.8841 3.23366 20.8807 3.78626 21.914C4.31523 22.903 5.09745 23.6853 6.08653 24.2142C7.11981 24.7668 8.11634 24.9778 10.0745 24.9985H17.926C19.8841 24.9778 20.8807 24.7668 21.914 24.2142C22.903 23.6853 23.6853 22.903 24.2142 21.914C24.7668 20.8807 24.9778 19.8841 24.9985 17.926V10.0745C24.9778 8.11634 24.7668 7.11981 24.2142 6.08653C23.6853 5.09745 22.903 4.31523 21.914 3.78626ZM7.02973 5.54989C7.71092 5.18558 8.37329 5.03317 9.85257 5.00512H18.1479C19.6272 5.03317 20.2896 5.18558 20.9708 5.54989C21.6113 5.89246 22.108 6.38918 22.4506 7.02973C22.8149 7.71092 22.9673 8.37329 22.9954 9.85257V18.1479C22.9673 19.6272 22.8149 20.2896 22.4506 20.9708C22.3701 21.1213 22.281 21.264 22.1836 21.3985C19.9491 19.5862 17.1015 18.5002 14.0002 18.5002C10.899 18.5002 8.05139 19.5862 5.81692 21.3985C5.71948 21.264 5.63042 21.1213 5.54989 20.9708C5.18558 20.2896 5.03317 19.6272 5.00512 18.1479V9.85257C5.03317 8.37329 5.18558 7.71092 5.54989 7.02973C5.89246 6.38918 6.38918 5.89246 7.02973 5.54989ZM14.0002 7.50024C16.6244 7.50024 18.7502 9.62608 18.7502 12.2502C18.7502 14.8744 16.6244 17.0002 14.0002 17.0002C11.3761 17.0002 9.25024 14.8744 9.25024 12.2502C9.25024 9.62608 11.3761 7.50024 14.0002 7.50024ZM9.85257 22.9954H18.1479C19.3172 22.9732 19.9761 22.8733 20.5373 22.6525C18.7098 21.3 16.4484 20.5002 14.0002 20.5002C11.5521 20.5002 9.29073 21.3 7.46318 22.6525C8.0244 22.8733 8.68328 22.9732 9.85257 22.9954ZM11.2502 12.2502C11.2502 10.7307 12.4807 9.50024 14.0002 9.50024C15.5198 9.50024 16.7502 10.7307 16.7502 12.2502C16.7502 13.7698 15.5198 15.0002 14.0002 15.0002C12.4807 15.0002 11.2502 13.7698 11.2502 12.2502Z" fill="#141414"/>
</svg>
