<svg width="28" height="28" viewBox="0 0 28 28" fill="none" xmlns="http://www.w3.org/2000/svg">
<path fill-rule="evenodd" clip-rule="evenodd" d="M4.5 8.3C4.5 6.61984 4.5 5.77976 4.82698 5.13803C5.1146 4.57354 5.57354 4.1146 6.13803 3.82698C6.77976 3.5 7.61984 3.5 9.3 3.5H18.7C20.3802 3.5 21.2202 3.5 21.862 3.82698C22.4265 4.1146 22.8854 4.57354 23.173 5.13803C23.5 5.77976 23.5 6.61984 23.5 8.3V19.7C23.5 21.3802 23.5 22.2202 23.173 22.862C22.8854 23.4265 22.4265 23.8854 21.862 24.173C21.2202 24.5 20.3802 24.5 18.7 24.5H9.3C7.61984 24.5 6.77976 24.5 6.13803 24.173C5.57354 23.8854 5.1146 23.4265 4.82698 22.862C4.5 22.2202 4.5 21.3802 4.5 19.7V8.3ZM7.5 7.7C7.5 7.27996 7.5 7.06994 7.58175 6.90951C7.65365 6.76839 7.76839 6.65365 7.90951 6.58175C8.06994 6.5 8.27996 6.5 8.7 6.5H9.3C9.72004 6.5 9.93006 6.5 10.0905 6.58175C10.2316 6.65365 10.3463 6.76839 10.4183 6.90951C10.5 7.06994 10.5 7.27996 10.5 7.7V8.3C10.5 8.72004 10.5 8.93006 10.4183 9.09049C10.3463 9.23161 10.2316 9.34635 10.0905 9.41825C9.93006 9.5 9.72004 9.5 9.3 9.5H8.7C8.27996 9.5 8.06994 9.5 7.90951 9.41825C7.76839 9.34635 7.65365 9.23161 7.58175 9.09049C7.5 8.93006 7.5 8.72004 7.5 8.3V7.7ZM17.5817 6.90951C17.5 7.06994 17.5 7.27996 17.5 7.7V8.3C17.5 8.72004 17.5 8.93006 17.5817 9.09049C17.6537 9.23161 17.7684 9.34635 17.9095 9.41825C18.0699 9.5 18.28 9.5 18.7 9.5H19.3C19.72 9.5 19.9301 9.5 20.0905 9.41825C20.2316 9.34635 20.3463 9.23161 20.4183 9.09049C20.5 8.93006 20.5 8.72004 20.5 8.3V7.7C20.5 7.27996 20.5 7.06994 20.4183 6.90951C20.3463 6.76839 20.2316 6.65365 20.0905 6.58175C19.9301 6.5 19.72 6.5 19.3 6.5H18.7C18.28 6.5 18.0699 6.5 17.9095 6.58175C17.7684 6.65365 17.6537 6.76839 17.5817 6.90951ZM7.5 13.7C7.5 13.28 7.5 13.0699 7.58175 12.9095C7.65365 12.7684 7.76839 12.6537 7.90951 12.5817C8.06994 12.5 8.27996 12.5 8.7 12.5H9.3C9.72004 12.5 9.93006 12.5 10.0905 12.5817C10.2316 12.6537 10.3463 12.7684 10.4183 12.9095C10.5 13.0699 10.5 13.28 10.5 13.7V14.3C10.5 14.72 10.5 14.9301 10.4183 15.0905C10.3463 15.2316 10.2316 15.3463 10.0905 15.4183C9.93006 15.5 9.72004 15.5 9.3 15.5H8.7C8.27996 15.5 8.06994 15.5 7.90951 15.4183C7.76839 15.3463 7.65365 15.2316 7.58175 15.0905C7.5 14.9301 7.5 14.72 7.5 14.3V13.7ZM17.5817 12.9095C17.5 13.0699 17.5 13.28 17.5 13.7V14.3C17.5 14.72 17.5 14.9301 17.5817 15.0905C17.6537 15.2316 17.7684 15.3463 17.9095 15.4183C18.0699 15.5 18.28 15.5 18.7 15.5H19.3C19.72 15.5 19.9301 15.5 20.0905 15.4183C20.2316 15.3463 20.3463 15.2316 20.4183 15.0905C20.5 14.9301 20.5 14.72 20.5 14.3V13.7C20.5 13.28 20.5 13.0699 20.4183 12.9095C20.3463 12.7684 20.2316 12.6537 20.0905 12.5817C19.9301 12.5 19.72 12.5 19.3 12.5H18.7C18.28 12.5 18.0699 12.5 17.9095 12.5817C17.7684 12.6537 17.6537 12.7684 17.5817 12.9095ZM7.5 19.7C7.5 19.28 7.5 19.0699 7.58175 18.9095C7.65365 18.7684 7.76839 18.6537 7.90951 18.5817C8.06994 18.5 8.27996 18.5 8.7 18.5H9.3C9.72004 18.5 9.93006 18.5 10.0905 18.5817C10.2316 18.6537 10.3463 18.7684 10.4183 18.9095C10.5 19.0699 10.5 19.28 10.5 19.7V20.3C10.5 20.72 10.5 20.9301 10.4183 21.0905C10.3463 21.2316 10.2316 21.3463 10.0905 21.4183C9.93006 21.5 9.72004 21.5 9.3 21.5H8.7C8.27996 21.5 8.06994 21.5 7.90951 21.4183C7.76839 21.3463 7.65365 21.2316 7.58175 21.0905C7.5 20.9301 7.5 20.72 7.5 20.3V19.7ZM17.5817 18.9095C17.5 19.0699 17.5 19.28 17.5 19.7V20.3C17.5 20.72 17.5 20.9301 17.5817 21.0905C17.6537 21.2316 17.7684 21.3463 17.9095 21.4183C18.0699 21.5 18.28 21.5 18.7 21.5H19.3C19.72 21.5 19.9301 21.5 20.0905 21.4183C20.2316 21.3463 20.3463 21.2316 20.4183 21.0905C20.5 20.9301 20.5 20.72 20.5 20.3V19.7C20.5 19.28 20.5 19.0699 20.4183 18.9095C20.3463 18.7684 20.2316 18.6537 20.0905 18.5817C19.9301 18.5 19.72 18.5 19.3 18.5H18.7C18.28 18.5 18.0699 18.5 17.9095 18.5817C17.7684 18.6537 17.6537 18.7684 17.5817 18.9095Z" fill="#141414"/>
</svg>
