<svg width="28" height="28" viewBox="0 0 28 28" fill="none" xmlns="http://www.w3.org/2000/svg">
<path d="M2 12.4C2 10.1598 2 9.03968 2.43597 8.18404C2.81947 7.43139 3.43139 6.81947 4.18404 6.43597C5.03969 6 6.15979 6 8.4 6H13.6C15.8402 6 16.9603 6 17.816 6.43597C18.5686 6.81947 19.1805 7.43139 19.564 8.18404C20 9.03968 20 10.1598 20 12.4V15.6C20 17.8402 20 18.9603 19.564 19.816C19.1805 20.5686 18.5686 21.1805 17.816 21.564C16.9603 22 15.8402 22 13.6 22H8.4C6.15979 22 5.03969 22 4.18404 21.564C3.43139 21.1805 2.81947 20.5686 2.43597 19.816C2 18.9603 2 17.8402 2 15.6V12.4Z" fill="#141414"/>
<path d="M22 11.4814C22 11.3064 22 11.2189 22.0262 11.1412C22.0493 11.0725 22.0872 11.0096 22.137 10.957C22.1934 10.8975 22.2707 10.8565 22.4254 10.7746L24.6507 9.59511C25.4259 9.18427 25.8135 8.97885 26.1297 9.02022C26.4057 9.05633 26.6542 9.20585 26.8154 9.43281C27 9.69285 27 10.1315 27 11.0088V16.9912C27 17.8685 27 18.3072 26.8154 18.5672C26.6542 18.7942 26.4057 18.9437 26.1297 18.9798C25.8135 19.0212 25.4259 18.8157 24.6507 18.4049L22.4254 17.2254C22.2707 17.1435 22.1934 17.1025 22.137 17.043C22.0872 16.9904 22.0493 16.9275 22.0262 16.8588C22 16.7811 22 16.6936 22 16.5186V11.4814Z" fill="#141414"/>
</svg>
