<svg width="28" height="28" viewBox="0 0 28 28" fill="none" xmlns="http://www.w3.org/2000/svg">
<path fill-rule="evenodd" clip-rule="evenodd" d="M11.8132 3.93018C13.1171 2.98291 14.8826 2.98291 16.1864 3.93018C16.5682 4.20763 16.8675 4.59206 17.1493 5.01735C17.4301 5.44112 17.7507 5.99643 18.1469 6.68265L24.5751 17.8167C24.9714 18.503 25.292 19.0583 25.5186 19.5134C25.746 19.9701 25.9293 20.4214 25.9786 20.8909C26.1471 22.4937 25.2643 24.0226 23.7921 24.6781C23.3609 24.8701 22.8783 24.937 22.3691 24.9684C21.8617 24.9997 21.2205 24.9997 20.4281 24.9997H7.57151C6.77913 24.9997 6.13791 24.9997 5.6305 24.9684C5.12129 24.937 4.63875 24.8701 4.20754 24.6781C2.73527 24.0226 1.85252 22.4937 2.02098 20.8909C2.07032 20.4214 2.25364 19.9701 2.48104 19.5134C2.70763 19.0583 3.02824 18.503 3.42443 17.8168L9.85275 6.68264C10.2489 5.99642 10.5695 5.44112 10.8503 5.01735C11.1322 4.59206 11.4314 4.20763 11.8132 3.93018ZM15.0108 5.54822C14.408 5.11023 13.5917 5.11023 12.9888 5.54822C12.9029 5.6106 12.7631 5.75153 12.5175 6.1221C12.2749 6.48822 11.985 6.98956 11.568 7.71172L5.17327 18.7877C4.75633 19.5099 4.46714 20.0117 4.27138 20.4048C4.07324 20.8028 4.02112 20.9944 4.01002 21.0999C3.93213 21.841 4.34029 22.5479 5.02101 22.851C5.11797 22.8942 5.30996 22.9449 5.75366 22.9722C6.19202 22.9993 6.77118 22.9997 7.60507 22.9997H20.3945C21.2284 22.9997 21.8076 22.9993 22.2459 22.9722C22.6896 22.9449 22.8816 22.8942 22.9786 22.851C23.6593 22.5479 24.0675 21.841 23.9896 21.0999C23.9785 20.9944 23.9264 20.8028 23.7282 20.4048C23.5325 20.0117 23.2433 19.5099 22.8263 18.7877L16.4316 7.71173C16.0147 6.98956 15.7247 6.48822 15.4821 6.1221C15.2365 5.75154 15.0967 5.6106 15.0108 5.54822Z" fill="#141414"/>
<path fill-rule="evenodd" clip-rule="evenodd" d="M13.9998 9.49976C13.4475 9.49976 12.9998 9.94748 12.9998 10.4998L12.9998 15.4998C12.9998 16.052 13.4475 16.4998 13.9998 16.4998C14.5521 16.4998 14.9998 16.052 14.9998 15.4998V10.4998C14.9998 9.94748 14.5521 9.49976 13.9998 9.49976ZM13.9998 18.2998C13.3371 18.2998 12.7998 18.837 12.7998 19.4998C12.7998 20.1625 13.3371 20.6998 13.9998 20.6998C14.6626 20.6998 15.1998 20.1625 15.1998 19.4998C15.1998 18.837 14.6626 18.2998 13.9998 18.2998Z" fill="#141414"/>
</svg>
