<svg width="28" height="28" viewBox="0 0 28 28" fill="none" xmlns="http://www.w3.org/2000/svg">
<path d="M17.188 7.27245L20.727 10.8114L9.10417 22.4354C8.3309 23.2086 7.3795 23.78 6.33363 24.0993L3.43116 24.9853C3.25488 25.0392 3.06836 24.9399 3.01454 24.7636C2.99515 24.7001 2.99515 24.6322 3.01454 24.5687L3.90055 21.6665C4.21988 20.6205 4.79138 19.6689 5.56475 18.8956L17.188 7.27245ZM22.1391 4.44371L23.5574 5.86198C24.1066 6.41112 24.1409 7.28018 23.6604 7.86934L23.5573 7.98326L21.788 9.75145L18.248 6.21145L20.0177 4.44367C20.6036 3.85796 21.5533 3.85797 22.1391 4.44371Z" fill="#141414"/>
</svg>
